<svg width="64" height="64" viewBox="0 0 64 64" fill="none" xmlns="http://www.w3.org/2000/svg">
<g id="24-support">
<g id="vuesax/bold/24-support">
<g id="24-support_2">
<path id="Vector" d="M48 5.33325H16C11.5733 5.33325 8 8.87992 8 13.2533V42.3466C8 46.7199 11.5733 50.2666 16 50.2666H18.0267C20.16 50.2666 22.1867 51.0933 23.68 52.5866L28.24 57.0933C30.32 59.1466 33.7067 59.1466 35.7867 57.0933L40.3467 52.5866C41.84 51.0933 43.8933 50.2666 46 50.2666H48C52.4267 50.2666 56 46.7199 56 42.3466V13.2533C56 8.87992 52.4267 5.33325 48 5.33325ZM27.68 34.6933C28.7733 34.6933 29.68 35.5999 29.68 36.6933C29.68 37.7866 28.7733 38.6933 27.68 38.6933H20.5333C19.36 38.6933 18.2667 38.1333 17.5733 37.1733C16.9067 36.2666 16.7467 35.1466 17.0667 34.0799C18 31.2266 20.2933 29.6799 22.32 28.2933C24.4533 26.8533 25.6533 25.9466 25.6533 24.3999C25.6533 23.0133 24.5333 21.8933 23.1467 21.8933C21.76 21.8933 20.6667 23.0399 20.6667 24.4266C20.6667 25.5199 19.76 26.4266 18.6667 26.4266C17.5733 26.4266 16.6667 25.5199 16.6667 24.4266C16.6667 20.8533 19.5733 17.9199 23.1733 17.9199C26.7733 17.9199 29.68 20.8266 29.68 24.4266C29.68 28.1866 26.8533 30.1066 24.5867 31.6533C23.1733 32.6133 21.84 33.5199 21.1733 34.7199H27.68V34.6933ZM45.3333 34.8799H44.7733V36.7199C44.7733 37.8133 43.8667 38.7199 42.7733 38.7199C41.68 38.7199 40.7733 37.8133 40.7733 36.7199V34.8799H35.5467C35.5467 34.8799 35.5467 34.8799 35.52 34.8799C34.2133 34.8799 33.0133 34.1866 32.3467 33.0666C31.68 31.9199 31.68 30.5066 32.3467 29.3866C34.16 26.2666 36.2667 22.7199 38.1867 19.6266C39.04 18.2666 40.6667 17.6533 42.1867 18.0799C43.7067 18.5333 44.7733 19.9199 44.7467 21.5199V30.9066H45.3333C46.4267 30.9066 47.3333 31.8133 47.3333 32.9066C47.3333 33.9999 46.4267 34.8799 45.3333 34.8799Z" fill="#FF9700"/>
<path id="Vector_2" d="M40.7733 30.88V23.04C39.2 25.6 37.5733 28.3467 36.1067 30.8534H40.7733V30.88Z" fill="#FF9700"/>
</g>
</g>
</g>
</svg>
