<svg width="64" height="64" viewBox="0 0 64 64" fill="none" xmlns="http://www.w3.org/2000/svg">
<g id="box-time">
<g id="vuesax/bold/box-time">
<g id="box-time_2">
<g id="Group">
<path id="Vector" d="M46.9333 14.16L31.8667 6.05333C30.2667 5.2 28.3733 5.2 26.7733 6.05333L11.7333 14.16C10.64 14.7733 9.94666 15.9467 9.94666 17.2267C9.94666 18.5333 10.6133 19.7067 11.7333 20.2933L26.8 28.4C27.6 28.8267 28.48 29.04 29.3333 29.04C30.1867 29.04 31.0933 28.8267 31.8667 28.4L46.9333 20.2933C48.0267 19.7067 48.72 18.5333 48.72 17.2267C48.72 15.9467 48.0267 14.7733 46.9333 14.16Z" fill="#FF9700"/>
<path id="Vector_2" d="M24.32 31.2267L10.32 24.24C9.22665 23.68 7.99998 23.76 6.95998 24.3733C5.94665 25.0133 5.33331 26.1067 5.33331 27.3067V40.5333C5.33331 42.8267 6.61331 44.88 8.66665 45.92L22.6666 52.9067C23.1466 53.1467 23.68 53.28 24.2133 53.28C24.8266 53.28 25.4666 53.0933 26.0266 52.7733C27.04 52.1333 27.6533 51.04 27.6533 49.84V36.6133C27.6266 34.32 26.3466 32.2667 24.32 31.2267Z" fill="#FF9700"/>
<path id="Vector_3" d="M53.3333 27.3067V33.8667C52.0533 33.4933 50.6933 33.3333 49.3333 33.3333C45.7066 33.3333 42.16 34.5867 39.36 36.8267C35.52 39.84 33.3333 44.4 33.3333 49.3333C33.3333 50.64 33.4933 51.9467 33.84 53.2C33.44 53.1467 33.04 52.9867 32.6666 52.7467C31.6533 52.1333 31.04 51.04 31.04 49.84V36.6133C31.04 34.32 32.32 32.2667 34.3466 31.2267L48.3466 24.24C49.44 23.68 50.6666 23.76 51.7066 24.3733C52.72 25.0133 53.3333 26.1067 53.3333 27.3067Z" fill="#FF9700"/>
</g>
<path id="Vector_4" d="M58.6133 41.7333C56.4267 39.0399 53.0933 37.3333 49.3333 37.3333C46.5067 37.3333 43.8933 38.3199 41.84 39.9733C39.0667 42.1599 37.3333 45.5466 37.3333 49.3333C37.3333 53.0933 39.04 56.4266 41.7333 58.6133C43.7867 60.3199 46.4533 61.3333 49.3333 61.3333C52.3733 61.3333 55.12 60.1866 57.2533 58.3466C59.7333 56.1333 61.3333 52.9333 61.3333 49.3333C61.3333 46.4533 60.32 43.7866 58.6133 41.7333ZM52.08 50.0799C52.08 50.7733 51.7067 51.4399 51.12 51.7866L47.36 54.0266C47.04 54.2133 46.6933 54.3199 46.32 54.3199C45.6533 54.3199 44.9867 53.9733 44.6133 53.3599C44.0533 52.3999 44.3467 51.1733 45.3067 50.6133L48.08 48.9599V45.5999C48.08 44.5066 48.9867 43.5999 50.08 43.5999C51.1733 43.5999 52.08 44.5066 52.08 45.5999V50.0799Z" fill="#FF9700"/>
</g>
</g>
</g>
</svg>
