<svg width="49" height="48" viewBox="0 0 49 48" fill="none" xmlns="http://www.w3.org/2000/svg">
<g id="Frame" clip-path="url(#clip0_534_4537)">
<g id="Group">
<path id="Vector" d="M26.394 3.73996L4.41398 0.399961C3.39398 0.239961 2.35398 0.519961 1.57398 1.17996C0.793984 1.85996 0.333984 2.83996 0.333984 3.85996V46C0.333984 47.1 1.23398 48 2.33398 48H8.83398V37.5C8.83398 35.56 10.394 34 12.334 34H17.334C19.274 34 20.834 35.56 20.834 37.5V48H29.334V7.19996C29.334 5.47996 28.094 4.01996 26.394 3.73996ZM11.334 29.5H8.33398C7.93616 29.5 7.55463 29.3419 7.27332 29.0606C6.99202 28.7793 6.83398 28.3978 6.83398 28C6.83398 27.6021 6.99202 27.2206 7.27332 26.9393C7.55463 26.658 7.93616 26.5 8.33398 26.5H11.334C11.7318 26.5 12.1133 26.658 12.3946 26.9393C12.6759 27.2206 12.834 27.6021 12.834 28C12.834 28.3978 12.6759 28.7793 12.3946 29.0606C12.1133 29.3419 11.7318 29.5 11.334 29.5ZM11.334 23.5H8.33398C7.93616 23.5 7.55463 23.3419 7.27332 23.0606C6.99202 22.7793 6.83398 22.3978 6.83398 22C6.83398 21.6021 6.99202 21.2206 7.27332 20.9393C7.55463 20.658 7.93616 20.5 8.33398 20.5H11.334C11.7318 20.5 12.1133 20.658 12.3946 20.9393C12.6759 21.2206 12.834 21.6021 12.834 22C12.834 22.3978 12.6759 22.7793 12.3946 23.0606C12.1133 23.3419 11.7318 23.5 11.334 23.5ZM11.334 17.5H8.33398C7.93616 17.5 7.55463 17.3419 7.27332 17.0606C6.99202 16.7793 6.83398 16.3978 6.83398 16C6.83398 15.6021 6.99202 15.2206 7.27332 14.9393C7.55463 14.658 7.93616 14.5 8.33398 14.5H11.334C11.7318 14.5 12.1133 14.658 12.3946 14.9393C12.6759 15.2206 12.834 15.6021 12.834 16C12.834 16.3978 12.6759 16.7793 12.3946 17.0606C12.1133 17.3419 11.7318 17.5 11.334 17.5ZM11.334 11.5H8.33398C7.93616 11.5 7.55463 11.3419 7.27332 11.0606C6.99202 10.7793 6.83398 10.3978 6.83398 9.99996C6.83398 9.60214 6.99202 9.22061 7.27332 8.9393C7.55463 8.658 7.93616 8.49996 8.33398 8.49996H11.334C11.7318 8.49996 12.1133 8.658 12.3946 8.9393C12.6759 9.22061 12.834 9.60214 12.834 9.99996C12.834 10.3978 12.6759 10.7793 12.3946 11.0606C12.1133 11.3419 11.7318 11.5 11.334 11.5ZM21.334 29.5H18.334C17.9362 29.5 17.5546 29.3419 17.2733 29.0606C16.992 28.7793 16.834 28.3978 16.834 28C16.834 27.6021 16.992 27.2206 17.2733 26.9393C17.5546 26.658 17.9362 26.5 18.334 26.5H21.334C21.7318 26.5 22.1133 26.658 22.3946 26.9393C22.6759 27.2206 22.834 27.6021 22.834 28C22.834 28.3978 22.6759 28.7793 22.3946 29.0606C22.1133 29.3419 21.7318 29.5 21.334 29.5ZM21.334 23.5H18.334C17.9362 23.5 17.5546 23.3419 17.2733 23.0606C16.992 22.7793 16.834 22.3978 16.834 22C16.834 21.6021 16.992 21.2206 17.2733 20.9393C17.5546 20.658 17.9362 20.5 18.334 20.5H21.334C21.7318 20.5 22.1133 20.658 22.3946 20.9393C22.6759 21.2206 22.834 21.6021 22.834 22C22.834 22.3978 22.6759 22.7793 22.3946 23.0606C22.1133 23.3419 21.7318 23.5 21.334 23.5ZM21.334 17.5H18.334C17.9362 17.5 17.5546 17.3419 17.2733 17.0606C16.992 16.7793 16.834 16.3978 16.834 16C16.834 15.6021 16.992 15.2206 17.2733 14.9393C17.5546 14.658 17.9362 14.5 18.334 14.5H21.334C21.7318 14.5 22.1133 14.658 22.3946 14.9393C22.6759 15.2206 22.834 15.6021 22.834 16C22.834 16.3978 22.6759 16.7793 22.3946 17.0606C22.1133 17.3419 21.7318 17.5 21.334 17.5ZM21.334 11.5H18.334C17.9362 11.5 17.5546 11.3419 17.2733 11.0606C16.992 10.7793 16.834 10.3978 16.834 9.99996C16.834 9.60214 16.992 9.22061 17.2733 8.9393C17.5546 8.658 17.9362 8.49996 18.334 8.49996H21.334C21.7318 8.49996 22.1133 8.658 22.3946 8.9393C22.6759 9.22061 22.834 9.60214 22.834 9.99996C22.834 10.3978 22.6759 10.7793 22.3946 11.0606C22.1133 11.3419 21.7318 11.5 21.334 11.5ZM45.574 21.684L31.334 18.702V48H44.834C46.764 48 48.334 46.43 48.334 44.5V25.104C48.334 23.452 47.208 22.046 45.574 21.684ZM40.834 42H37.834C37.4362 42 37.0546 41.8419 36.7733 41.5606C36.492 41.2793 36.334 40.8978 36.334 40.5C36.334 40.1021 36.492 39.7206 36.7733 39.4393C37.0546 39.158 37.4362 39 37.834 39H40.834C41.2318 39 41.6133 39.158 41.8946 39.4393C42.1759 39.7206 42.334 40.1021 42.334 40.5C42.334 40.8978 42.1759 41.2793 41.8946 41.5606C41.6133 41.8419 41.2318 42 40.834 42ZM40.834 36H37.834C37.4362 36 37.0546 35.8419 36.7733 35.5606C36.492 35.2793 36.334 34.8978 36.334 34.5C36.334 34.1021 36.492 33.7206 36.7733 33.4393C37.0546 33.158 37.4362 33 37.834 33H40.834C41.2318 33 41.6133 33.158 41.8946 33.4393C42.1759 33.7206 42.334 34.1021 42.334 34.5C42.334 34.8978 42.1759 35.2793 41.8946 35.5606C41.6133 35.8419 41.2318 36 40.834 36ZM40.834 30H37.834C37.4362 30 37.0546 29.8419 36.7733 29.5606C36.492 29.2793 36.334 28.8978 36.334 28.5C36.334 28.1021 36.492 27.7206 36.7733 27.4393C37.0546 27.158 37.4362 27 37.834 27H40.834C41.2318 27 41.6133 27.158 41.8946 27.4393C42.1759 27.7206 42.334 28.1021 42.334 28.5C42.334 28.8978 42.1759 29.2793 41.8946 29.5606C41.6133 29.8419 41.2318 30 40.834 30Z" fill="#FF9700"/>
</g>
</g>
<defs>
<clipPath id="clip0_534_4537">
<rect width="48" height="48" fill="white" transform="translate(0.333984)"/>
</clipPath>
</defs>
</svg>
