<svg width="25" height="24" viewBox="0 0 25 24" fill="none" xmlns="http://www.w3.org/2000/svg">
<path d="M1.5 22H23.5" stroke="#575E8D" stroke-width="1.5" stroke-miterlimit="10" stroke-linecap="round" stroke-linejoin="round"/>
<path d="M20.2793 22.0101V17.55" stroke="#575E8D" stroke-width="1.5" stroke-miterlimit="10" stroke-linecap="round" stroke-linejoin="round"/>
<path d="M20.2996 10.89C19.0796 10.89 18.0996 11.87 18.0996 13.09V15.36C18.0996 16.58 19.0796 17.56 20.2996 17.56C21.5196 17.56 22.4996 16.58 22.4996 15.36V13.09C22.4996 11.87 21.5196 10.89 20.2996 10.89Z" stroke="#575E8D" stroke-width="1.5" stroke-miterlimit="10" stroke-linecap="round" stroke-linejoin="round"/>
<path d="M2.59961 22V6.03003C2.59961 4.02003 3.59966 3.01001 5.58966 3.01001H11.8196C13.8096 3.01001 14.7996 4.02003 14.7996 6.03003V22" stroke="#575E8D" stroke-width="1.5" stroke-miterlimit="10" stroke-linecap="round" stroke-linejoin="round"/>
<path d="M6.30078 8.25H11.2508" stroke="#575E8D" stroke-width="1.5" stroke-miterlimit="10" stroke-linecap="round" stroke-linejoin="round"/>
<path d="M6.30078 12H11.2508" stroke="#575E8D" stroke-width="1.5" stroke-miterlimit="10" stroke-linecap="round" stroke-linejoin="round"/>
<path d="M8.75 22V18.25" stroke="#575E8D" stroke-width="1.5" stroke-miterlimit="10" stroke-linecap="round" stroke-linejoin="round"/>
</svg>
