<svg width="24" height="24" viewBox="0 0 24 24" fill="none" xmlns="http://www.w3.org/2000/svg">
<path d="M19.0312 8.4375H20.4375C21.6006 8.4375 22.5469 7.49123 22.5469 6.32812V2.10938C22.5469 0.946266 21.6006 0 20.4375 0H19.0312C17.8681 0 16.9219 0.946266 16.9219 2.10938V3.51562H13.9884C13.6982 2.69723 12.9166 2.10938 12 2.10938C11.0834 2.10938 10.3018 2.69723 10.0116 3.51562H7.07812V2.10938C7.07812 0.946266 6.13186 0 4.96875 0H3.5625C2.39939 0 1.45312 0.946266 1.45312 2.10938V6.32812C1.45312 7.49123 2.39939 8.4375 3.5625 8.4375H4.96875C6.13186 8.4375 7.07812 7.49123 7.07812 6.32812V4.92188H10.0116C10.2238 5.52019 10.6986 5.99498 11.2969 6.20719V11.3438C10.1338 11.3438 9.1875 12.29 9.1875 13.4531V14.8594C9.1875 16.0225 10.1338 16.9688 11.2969 16.9688V19.0781H7.07812V17.6719C7.07812 16.5088 6.13186 15.5625 4.96875 15.5625H3.5625C2.39939 15.5625 1.45312 16.5088 1.45312 17.6719V21.8906C1.45312 23.0537 2.39939 24 3.5625 24H4.96875C6.13186 24 7.07812 23.0537 7.07812 21.8906V20.4844H16.9219V21.8906C16.9219 23.0537 17.8681 24 19.0312 24H20.4375C21.6006 24 22.5469 23.0537 22.5469 21.8906V17.6719C22.5469 16.5088 21.6006 15.5625 20.4375 15.5625H19.0312C17.8681 15.5625 16.9219 16.5088 16.9219 17.6719V19.0781H12.7031V16.9688C13.8662 16.9688 14.8125 16.0225 14.8125 14.8594V13.4531C14.8125 12.29 13.8662 11.3438 12.7031 11.3438V6.20719C13.3014 5.99498 13.7762 5.52019 13.9884 4.92188H16.9219V6.32812C16.9219 7.49123 17.8681 8.4375 19.0312 8.4375ZM18.3281 2.10938C18.3281 1.72167 18.6435 1.40625 19.0312 1.40625H20.4375C20.8252 1.40625 21.1406 1.72167 21.1406 2.10938V6.32812C21.1406 6.71583 20.8252 7.03125 20.4375 7.03125H19.0312C18.6435 7.03125 18.3281 6.71583 18.3281 6.32812V2.10938ZM5.67188 6.32812C5.67188 6.71583 5.35645 7.03125 4.96875 7.03125H3.5625C3.1748 7.03125 2.85938 6.71583 2.85938 6.32812V2.10938C2.85938 1.72167 3.1748 1.40625 3.5625 1.40625H4.96875C5.35645 1.40625 5.67188 1.72167 5.67188 2.10938V6.32812ZM5.67188 21.8906C5.67188 22.2783 5.35645 22.5938 4.96875 22.5938H3.5625C3.1748 22.5938 2.85938 22.2783 2.85938 21.8906V17.6719C2.85938 17.2842 3.1748 16.9688 3.5625 16.9688H4.96875C5.35645 16.9688 5.67188 17.2842 5.67188 17.6719V21.8906ZM18.3281 17.6719C18.3281 17.2842 18.6435 16.9688 19.0312 16.9688H20.4375C20.8252 16.9688 21.1406 17.2842 21.1406 17.6719V21.8906C21.1406 22.2783 20.8252 22.5938 20.4375 22.5938H19.0312C18.6435 22.5938 18.3281 22.2783 18.3281 21.8906V17.6719ZM13.4062 13.4531V14.8594C13.4062 15.2471 13.0908 15.5625 12.7031 15.5625H11.2969C10.9092 15.5625 10.5938 15.2471 10.5938 14.8594V13.4531C10.5938 13.0654 10.9092 12.75 11.2969 12.75H12.7031C13.0908 12.75 13.4062 13.0654 13.4062 13.4531ZM12 4.92188C11.6123 4.92188 11.2969 4.60645 11.2969 4.21875C11.2969 3.83105 11.6123 3.51562 12 3.51562C12.3877 3.51562 12.7031 3.83105 12.7031 4.21875C12.7031 4.60645 12.3877 4.92188 12 4.92188Z" fill="#575E8D"/>
</svg>
