<svg width="32" height="32" viewBox="0 0 32 32" fill="none" xmlns="http://www.w3.org/2000/svg">
<g id="north_east_FILL0_wght400_GRAD0_opsz48 1">
<path id="Vector" d="M6.03334 25.9667C5.83334 25.7667 5.73334 25.5334 5.73334 25.2667C5.73334 25.0001 5.83334 24.7667 6.03334 24.5667L21.9333 8.66675H13.1333C12.85 8.66675 12.6125 8.57036 12.4208 8.37758C12.2292 8.18478 12.1333 7.94589 12.1333 7.66092C12.1333 7.37592 12.2292 7.13897 12.4208 6.95008C12.6125 6.76119 12.85 6.66675 13.1333 6.66675H24.3333C24.6167 6.66675 24.8542 6.76258 25.0458 6.95425C25.2375 7.14591 25.3333 7.38341 25.3333 7.66675V18.8667C25.3333 19.1501 25.2369 19.3876 25.0442 19.5792C24.8514 19.7709 24.6125 19.8667 24.3275 19.8667C24.0425 19.8667 23.8056 19.7709 23.6167 19.5792C23.4278 19.3876 23.3333 19.1501 23.3333 18.8667V10.0667L7.43334 25.9667C7.23334 26.1667 7 26.2667 6.73334 26.2667C6.46667 26.2667 6.23334 26.1667 6.03334 25.9667Z" fill="#C0C4D7"/>
</g>
</svg>
