<svg width="49" height="48" viewBox="0 0 49 48" fill="none" xmlns="http://www.w3.org/2000/svg">
<g id="Frame">
<g id="Group">
<g id="Layer 2">
<path id="Vector" d="M38.6659 18.46L33.5259 19.74L27.1059 11.74C26.8149 11.4051 26.4554 11.1366 26.0517 10.9526C25.6481 10.7686 25.2096 10.6733 24.7659 10.6733C24.3223 10.6733 23.8838 10.7686 23.4801 10.9526C23.0764 11.1366 22.7169 11.4051 22.4259 11.74L16.0059 19.74L10.7659 18.46C10.2637 18.3398 9.73913 18.3504 9.2422 18.4907C8.74527 18.6311 8.29263 18.8965 7.92751 19.2616C7.56238 19.6267 7.29698 20.0794 7.15664 20.5763C7.01631 21.0732 7.00573 21.5978 7.12592 22.1L10.5459 35.72C10.7031 36.3705 11.0747 36.9491 11.6007 37.3627C12.1268 37.7763 12.7767 38.0008 13.4459 38H35.8859C36.5551 38.0008 37.2051 37.7763 37.7311 37.3627C38.2572 36.9491 38.6287 36.3705 38.7859 35.72L42.2059 22.1C42.3196 21.6078 42.308 21.0949 42.1722 20.6083C42.0363 20.1217 41.7806 19.677 41.4284 19.3148C41.0762 18.9526 40.6387 18.6846 40.1561 18.5353C39.6735 18.3859 39.1611 18.3601 38.6659 18.46Z" fill="#FF9700"/>
<path id="Vector_2" d="M6.16602 17C7.54673 17 8.66602 15.8807 8.66602 14.5C8.66602 13.1193 7.54673 12 6.16602 12C4.7853 12 3.66602 13.1193 3.66602 14.5C3.66602 15.8807 4.7853 17 6.16602 17Z" fill="#FF9700"/>
<path id="Vector_3" d="M43.166 17C44.5467 17 45.666 15.8807 45.666 14.5C45.666 13.1193 44.5467 12 43.166 12C41.7853 12 40.666 13.1193 40.666 14.5C40.666 15.8807 41.7853 17 43.166 17Z" fill="#FF9700"/>
<path id="Vector_4" d="M24.666 8.5C26.0467 8.5 27.166 7.38071 27.166 6C27.166 4.61929 26.0467 3.5 24.666 3.5C23.2853 3.5 22.166 4.61929 22.166 6C22.166 7.38071 23.2853 8.5 24.666 8.5Z" fill="#FF9700"/>
<path id="Vector_5" d="M36.666 44H12.666C12.1356 44 11.6269 43.7893 11.2518 43.4142C10.8767 43.0391 10.666 42.5304 10.666 42C10.666 41.4696 10.8767 40.9609 11.2518 40.5858C11.6269 40.2107 12.1356 40 12.666 40H36.666C37.1965 40 37.7052 40.2107 38.0802 40.5858C38.4553 40.9609 38.666 41.4696 38.666 42C38.666 42.5304 38.4553 43.0391 38.0802 43.4142C37.7052 43.7893 37.1965 44 36.666 44Z" fill="#FF9700"/>
</g>
</g>
</g>
</svg>
