<svg width="64" height="64" viewBox="0 0 64 64" fill="none" xmlns="http://www.w3.org/2000/svg">
<g id="document-text">
<g id="vuesax/bold/document-text">
<g id="document-text_2">
<path id="Vector" d="M42.6667 5.33325H21.3333C12 5.33325 8 10.6666 8 18.6666V45.3333C8 53.3333 12 58.6666 21.3333 58.6666H42.6667C52 58.6666 56 53.3333 56 45.3333V18.6666C56 10.6666 52 5.33325 42.6667 5.33325ZM21.3333 32.6666H32C33.0933 32.6666 34 33.5733 34 34.6666C34 35.7599 33.0933 36.6666 32 36.6666H21.3333C20.24 36.6666 19.3333 35.7599 19.3333 34.6666C19.3333 33.5733 20.24 32.6666 21.3333 32.6666ZM42.6667 47.3333H21.3333C20.24 47.3333 19.3333 46.4266 19.3333 45.3333C19.3333 44.2399 20.24 43.3333 21.3333 43.3333H42.6667C43.76 43.3333 44.6667 44.2399 44.6667 45.3333C44.6667 46.4266 43.76 47.3333 42.6667 47.3333ZM49.3333 24.6666H44C39.9467 24.6666 36.6667 21.3866 36.6667 17.3333V11.9999C36.6667 10.9066 37.5733 9.99992 38.6667 9.99992C39.76 9.99992 40.6667 10.9066 40.6667 11.9999V17.3333C40.6667 19.1733 42.16 20.6666 44 20.6666H49.3333C50.4267 20.6666 51.3333 21.5733 51.3333 22.6666C51.3333 23.7599 50.4267 24.6666 49.3333 24.6666Z" fill="#FF9700"/>
</g>
</g>
</g>
</svg>
