<svg width="21" height="20" viewBox="0 0 21 20" fill="none" xmlns="http://www.w3.org/2000/svg">
<path d="M2.08203 9.11534C2.08203 8.09519 2.54918 7.1312 3.34988 6.49906L7.93322 2.88064C9.14425 1.92457 10.8531 1.92457 12.0642 2.88064L16.6475 6.49906C17.4482 7.1312 17.9154 8.09519 17.9154 9.11534L17.9154 14.5833C17.9154 16.4243 16.423 17.9167 14.582 17.9167L13.332 17.9167C12.8718 17.9167 12.4987 17.5436 12.4987 17.0833L12.4987 14.5833C12.4987 13.6629 11.7525 12.9167 10.832 12.9167L9.16536 12.9167C8.24489 12.9167 7.4987 13.6629 7.4987 14.5833L7.4987 17.0833C7.4987 17.5436 7.1256 17.9167 6.66536 17.9167L5.41536 17.9167C3.57441 17.9167 2.08203 16.4243 2.08203 14.5833L2.08203 9.11534Z" fill="#1C1C45" stroke="#1C1C45" stroke-width="1.25"/>
</svg>
