<svg width="24" height="24" viewBox="0 0 24 24" fill="none" xmlns="http://www.w3.org/2000/svg">
<g id="car">
<g id="vuesax/bold/car">
<g id="car_2">
<path id="Vector" d="M21.75 8.00008C21.75 8.41008 21.41 8.75008 21 8.75008L3 8.75008C2.59 8.75008 2.25 8.41008 2.25 8.00008C2.25 7.59008 2.59 7.25008 3 7.25008L4.02 7.25008L4.4 5.44008C4.76 3.69008 5.51 2.08008 8.49 2.08008L15.51 2.08008C18.49 2.08008 19.24 3.69008 19.6 5.44008L19.98 7.25008L21 7.25008C21.41 7.25008 21.75 7.59008 21.75 8.00008Z" fill="#575E8D"/>
<path id="Vector_2" d="M22.1796 13.6601C22.0296 12.0101 21.5896 10.2501 18.3796 10.2501L5.6196 10.2501C2.4096 10.2501 1.9796 12.0101 1.8196 13.6601L1.2596 19.7501C1.1896 20.5101 1.4396 21.2701 1.9596 21.8401C2.4896 22.4201 3.2396 22.7501 4.0396 22.7501L5.9196 22.7501C7.5396 22.7501 7.8496 21.8201 8.0496 21.2101L8.2496 20.6101C8.4796 19.9201 8.5396 19.7501 9.4396 19.7501L14.5596 19.7501C15.4596 19.7501 15.4896 19.8501 15.7496 20.6101L15.9496 21.2101C16.1496 21.8201 16.4596 22.7501 18.0796 22.7501L19.9596 22.7501C20.7496 22.7501 21.5096 22.4201 22.0396 21.8401C22.5596 21.2701 22.8096 20.5101 22.7396 19.7501L22.1796 13.6601ZM8.9996 15.7501L5.9996 15.7501C5.5896 15.7501 5.2496 15.4101 5.2496 15.0001C5.2496 14.5901 5.5896 14.2501 5.9996 14.2501L8.9996 14.2501C9.4096 14.2501 9.7496 14.5901 9.7496 15.0001C9.7496 15.4101 9.4096 15.7501 8.9996 15.7501ZM17.9996 15.7501L14.9996 15.7501C14.5896 15.7501 14.2496 15.4101 14.2496 15.0001C14.2496 14.5901 14.5896 14.2501 14.9996 14.2501L17.9996 14.2501C18.4096 14.2501 18.7496 14.5901 18.7496 15.0001C18.7496 15.4101 18.4096 15.7501 17.9996 15.7501Z" fill="#575E8D"/>
</g>
</g>
</g>
</svg>
