<svg width="24" height="24" viewBox="0 0 24 24" fill="none" xmlns="http://www.w3.org/2000/svg">
<path d="M23.4428 3.34747V16.5146C23.4428 17.0966 23.2116 17.6548 22.8001 18.0663C22.3885 18.4779 21.8303 18.7091 21.2483 18.7091H10.7097L5.98214 21.861C5.85684 21.9415 5.71303 21.9888 5.56436 21.9982C5.41568 22.0077 5.26705 21.979 5.13255 21.915C4.99805 21.8509 4.88213 21.7536 4.79578 21.6322C4.70943 21.5108 4.6555 21.3693 4.6391 21.2213L4.37301 18.7091H2.59491C2.01288 18.7091 1.4547 18.4779 1.04315 18.0663C0.631598 17.6548 0.400391 17.0966 0.400391 16.5146V3.34747C0.400391 2.76545 0.631598 2.20727 1.04315 1.79571C1.4547 1.38416 2.01288 1.15295 2.59491 1.15295H21.2483C21.8303 1.15295 22.3885 1.38416 22.8001 1.79571C23.2116 2.20727 23.4428 2.76545 23.4428 3.34747Z" fill="#575E8D"/>
<path d="M10.2757 7.73646C10.4212 7.73646 10.5608 7.67866 10.6637 7.57577C10.7666 7.47289 10.8244 7.33334 10.8244 7.18783C10.8244 7.04233 10.7666 6.90278 10.6637 6.79989C10.5608 6.69701 10.4212 6.63921 10.2757 6.63921H8.08122C7.93571 6.63921 7.79617 6.69701 7.69328 6.79989C7.59039 6.90278 7.53259 7.04233 7.53259 7.18783C7.53259 7.33334 7.59039 7.47289 7.69328 7.57577C7.79617 7.67866 7.93571 7.73646 8.08122 7.73646H8.62985V12.1255H8.08122C7.93571 12.1255 7.79617 12.1833 7.69328 12.2862C7.59039 12.3891 7.53259 12.5286 7.53259 12.6741C7.53259 12.8196 7.59039 12.9592 7.69328 13.0621C7.79617 13.165 7.93571 13.2228 8.08122 13.2228H10.2757C10.4212 13.2228 10.5608 13.165 10.6637 13.0621C10.7666 12.9592 10.8244 12.8196 10.8244 12.6741C10.8244 12.5286 10.7666 12.3891 10.6637 12.2862C10.5608 12.1833 10.4212 12.1255 10.2757 12.1255H9.7271V7.73646H10.2757ZM5.8867 12.1255H4.24081V7.18783C4.24081 7.04233 4.18301 6.90278 4.08012 6.79989C3.97724 6.69701 3.83769 6.63921 3.69218 6.63921C3.54668 6.63921 3.40713 6.69701 3.30424 6.79989C3.20136 6.90278 3.14355 7.04233 3.14355 7.18783V12.6741C3.14355 12.8196 3.20136 12.9592 3.30424 13.0621C3.40713 13.165 3.54668 13.2228 3.69218 13.2228H5.8867C6.03221 13.2228 6.17175 13.165 6.27464 13.0621C6.37753 12.9592 6.43533 12.8196 6.43533 12.6741C6.43533 12.5286 6.37753 12.3891 6.27464 12.2862C6.17175 12.1833 6.03221 12.1255 5.8867 12.1255ZM20.1511 12.1255H18.5052V10.4796H19.0538C19.1993 10.4796 19.3389 10.4218 19.4417 10.3189C19.5446 10.216 19.6024 10.0765 19.6024 9.93098C19.6024 9.78547 19.5446 9.64593 19.4417 9.54304C19.3389 9.44015 19.1993 9.38235 19.0538 9.38235H18.5052V7.73646H20.1511C20.2966 7.73646 20.4361 7.67866 20.539 7.57577C20.6419 7.47289 20.6997 7.33334 20.6997 7.18783C20.6997 7.04233 20.6419 6.90278 20.539 6.79989C20.4361 6.69701 20.2966 6.63921 20.1511 6.63921H17.9565C17.811 6.63921 17.6715 6.69701 17.5686 6.79989C17.4657 6.90278 17.4079 7.04233 17.4079 7.18783V12.6741C17.4079 12.8196 17.4657 12.9592 17.5686 13.0621C17.6715 13.165 17.811 13.2228 17.9565 13.2228H20.1511C20.2966 13.2228 20.4361 13.165 20.539 13.0621C20.6419 12.9592 20.6997 12.8196 20.6997 12.6741C20.6997 12.5286 20.6419 12.3891 20.539 12.2862C20.4361 12.1833 20.2966 12.1255 20.1511 12.1255ZM15.9195 6.66225C15.8505 6.64157 15.778 6.63468 15.7064 6.64199C15.6347 6.6493 15.5651 6.67065 15.5017 6.70484C15.4383 6.73902 15.3822 6.78537 15.3367 6.84122C15.2912 6.89708 15.2571 6.96135 15.2364 7.03038L14.1161 10.7649L12.9958 7.03038C12.9752 6.96136 12.9411 6.89708 12.8956 6.84123C12.8501 6.78538 12.794 6.73903 12.7306 6.70485C12.6671 6.67067 12.5976 6.64931 12.5259 6.642C12.4542 6.63469 12.3818 6.64157 12.3128 6.66225C12.2438 6.68293 12.1795 6.717 12.1236 6.76251C12.0678 6.80803 12.0214 6.8641 11.9873 6.92753C11.9531 6.99095 11.9317 7.06049 11.9244 7.13217C11.9171 7.20385 11.924 7.27627 11.9447 7.34529L13.5906 12.8316C13.6247 12.9444 13.6943 13.0432 13.7889 13.1134C13.8836 13.1836 13.9983 13.2215 14.1161 13.2215C14.234 13.2215 14.3487 13.1836 14.4434 13.1134C14.538 13.0432 14.6076 12.9444 14.6417 12.8316L16.2876 7.34529C16.3292 7.2059 16.3138 7.05569 16.2448 6.92763C16.1758 6.79957 16.0588 6.70413 15.9195 6.66225Z" fill="white"/>
</svg>
