<svg width="128" height="48" viewBox="0 0 128 48" fill="none" xmlns="http://www.w3.org/2000/svg">
<path d="M75.9967 40.4211H122.729C123.565 40.4211 124.244 41.1001 124.244 41.9376V48H77.6625C76.7425 48 75.9967 47.2531 75.9967 46.3318V40.4211Z" fill="#1C1C45"/>
<path d="M3.03606 9.88131C3.03606 9.88131 18.9607 11.4287 23.7538 12.6918C28.547 13.9234 54.7516 18.7234 65.1893 14.2076C65.1893 14.2076 45.2284 14.555 32.2364 11.8392C20.0644 9.24973 3.03606 9.88131 3.03606 9.88131Z" fill="#FFA520"/>
<path d="M2.40538 11.4602C2.40538 11.4602 6.37865 12.4392 8.27068 12.6918C8.83829 12.755 9.3113 13.2287 9.34283 13.7971C9.43744 14.8708 9.34283 16.5129 8.01841 17.5866C7.4508 18.0602 6.72552 18.2813 5.9687 18.3129C4.83348 18.3445 2.59458 18.6602 2.37384 20.3971C2.34231 20.7445 2.37384 21.0602 2.49998 21.376C3.00452 22.7339 4.99116 27.4076 10.005 29.3339C10.005 29.3339 3.13066 29.9655 0.229544 21.2813C0.229544 21.2813 -0.621875 18.4076 0.954819 16.9234C0.954819 16.9234 2.46844 15.755 5.30649 15.5339C5.65336 15.5023 5.93717 15.2497 5.9687 14.9023V14.8708C6.00024 14.4918 5.74797 14.1445 5.4011 13.9866C4.58122 13.6392 2.75225 12.8497 2.21617 12.1234L2.40538 11.4602Z" fill="#FFA520"/>
<path d="M32.4256 10.7971L16.0911 8.17603C16.0911 8.17603 28.3893 2.93393 34.8537 1.86024C34.8537 1.86024 61.2476 -4.77134 78.4651 7.00761C78.4651 7.00761 57.1482 -1.51871 31.4165 5.77603C30.2182 6.1234 29.6191 7.48129 30.1867 8.58656C30.502 9.18656 31.1958 9.94445 32.4256 10.7971Z" fill="#FFA520"/>
<path d="M71.7484 9.09182C71.7484 9.09182 72.4736 9.37604 73.735 9.78657C78.3074 11.2708 83.069 12.0602 87.8622 12.155L109.873 12.6287C109.873 12.6287 121.32 13.2602 126.523 15.755C126.523 15.755 123.432 13.955 116.621 12.3129C111.197 10.9866 105.647 10.355 100.066 10.3234C91.8039 10.2602 75.6901 10.0392 71.7484 9.09182Z" fill="#FFA520"/>
<path d="M107.003 13.7023C107.003 13.7023 124.063 14.9971 125.198 22.1339L125.829 29.4918H127.059V17.9655C127.059 17.6497 126.901 17.3655 126.649 17.2076C125.198 16.3234 119.711 13.6076 107.003 13.7023Z" fill="#FFA520"/>
<path d="M18.9933 36.2846C17.3039 36.2846 15.8375 35.9331 14.5942 35.23C13.3583 34.5195 12.4039 33.5454 11.731 32.3077C11.0582 31.0626 10.7217 29.6418 10.7217 28.0452C10.7217 26.866 10.9156 25.7747 11.3032 24.7713C11.6981 23.7606 12.2612 22.8818 12.9926 22.1347C13.7239 21.3877 14.5942 20.8054 15.6035 20.388C16.6201 19.9705 17.75 19.7618 18.9933 19.7618C19.6077 19.7618 20.2366 19.8204 20.8802 19.9375C21.5238 20.0547 22.1857 20.2451 22.8658 20.5088L22.1637 22.2995C21.5201 22.1018 20.957 21.9663 20.4743 21.893C19.9916 21.8125 19.498 21.7722 18.9933 21.7722C18.1669 21.7722 17.4209 21.9296 16.7554 22.2446C16.0972 22.5595 15.534 22.9989 15.066 23.5629C14.6052 24.1195 14.2505 24.7823 14.0019 25.5513C13.7532 26.313 13.6289 27.1443 13.6289 28.0452C13.6289 28.8874 13.7532 29.6857 14.0019 30.4401C14.2505 31.1945 14.6052 31.8609 15.066 32.4395C15.534 33.0108 16.0972 33.4612 16.7554 33.7908C17.4209 34.1204 18.1669 34.2852 18.9933 34.2852C19.498 34.2852 20.0099 34.2229 20.5292 34.0984C21.0484 33.9666 21.5896 33.7652 22.1528 33.4942L22.8658 35.2739C22.2076 35.6181 21.5494 35.8708 20.8912 36.0319C20.2403 36.2004 19.6077 36.2846 18.9933 36.2846Z" fill="#1C1C45"/>
<path d="M27.2288 36.2846C26.5048 36.2846 25.8794 36.1381 25.3529 35.8452C24.8263 35.5449 24.4204 35.1494 24.1352 34.6587C23.8573 34.1607 23.7183 33.6224 23.7183 33.0438C23.7183 32.3846 23.9011 31.795 24.2668 31.275C24.6398 30.7477 25.2651 30.3119 26.1427 29.9677C27.0204 29.6235 28.2234 29.3818 29.7519 29.2426C29.7081 29.5209 29.6313 29.7956 29.5216 30.0666C29.4119 30.3376 29.251 30.5719 29.0389 30.7697C28.8341 30.9601 28.5635 31.0846 28.2271 31.1432C27.7517 31.2164 27.3787 31.3373 27.1081 31.5057C26.8375 31.6742 26.6437 31.8719 26.5267 32.099C26.417 32.326 26.3621 32.564 26.3621 32.8131C26.3621 33.2232 26.5048 33.5711 26.79 33.8567C27.0825 34.1423 27.4518 34.2852 27.898 34.2852C28.3514 34.2852 28.8048 34.1497 29.2583 33.8787C29.719 33.6004 30.1469 33.2159 30.5418 32.7252V29.0998C30.5418 28.2942 30.3297 27.6497 29.9055 27.1663C29.4887 26.6756 28.8524 26.4302 27.9967 26.4302C27.6237 26.4302 27.2324 26.4705 26.8229 26.5511C26.4206 26.6243 25.9562 26.7561 25.4297 26.9466L24.7824 25.2328C25.4553 24.9251 26.1098 24.7164 26.7461 24.6066C27.3824 24.4894 27.9528 24.4308 28.4575 24.4308C29.9567 24.4308 31.1123 24.8409 31.9241 25.6612C32.7432 26.4742 33.1527 27.6423 33.1527 29.1657V32.868C33.1527 33.4539 33.182 34.0105 33.2405 34.5378C33.299 35.0578 33.3868 35.5522 33.5038 36.0209H31.5401C31.3426 35.9038 31.1817 35.7463 31.0574 35.5486C30.9331 35.3508 30.827 35.1384 30.7393 34.9114L30.6954 34.4939L30.4321 34.8784C29.8178 35.457 29.2656 35.8378 28.7756 36.0209C28.2929 36.1967 27.7773 36.2846 27.2288 36.2846Z" fill="#1C1C45"/>
<path d="M35.871 36.0209V27.8474C35.871 27.3347 35.8454 26.8037 35.7942 26.2544C35.743 25.7051 35.6516 25.1742 35.52 24.6615H37.5385C37.6994 24.8153 37.842 25.0423 37.9663 25.3426C38.0907 25.6429 38.1821 25.9761 38.2406 26.3423L38.2625 26.8147L38.471 26.3423C38.7635 25.7637 39.1584 25.306 39.6558 24.9691C40.1531 24.6322 40.6577 24.4637 41.1696 24.4637C41.3817 24.4637 41.5902 24.4857 41.7949 24.5297C41.9997 24.5663 42.2228 24.6212 42.4641 24.6944L42.146 26.8806C41.8754 26.8074 41.645 26.7598 41.4549 26.7378C41.272 26.7085 41.1002 26.6939 40.9393 26.6939C40.4639 26.6939 40.0324 26.844 39.6448 27.1443C39.2572 27.4373 38.95 27.8621 38.7233 28.4187C38.5039 28.9753 38.3942 29.6454 38.3942 30.4291V36.0209H35.871Z" fill="#1C1C45"/>
<path d="M48.5522 36.0209L54.2897 20.0474H56.9555L62.6929 36.0209H59.8406L55.6939 23.7497L55.5293 23.0026L55.3428 23.7826L53.2475 30.0007L52.9952 30.4401L53.3024 30.3961H55.4635C55.8657 30.3961 56.1985 30.4987 56.4618 30.7038C56.7324 30.9088 56.9518 31.1688 57.12 31.4838C57.2955 31.7914 57.4345 32.0953 57.5369 32.3956H52.4796L51.2509 36.0209H48.5522Z" fill="#1C1C45"/>
<path d="M67.6793 36.2846C67.1454 36.2846 66.6408 36.1638 66.1654 35.9221C65.69 35.6804 65.3061 35.2995 65.0135 34.7795C64.721 34.2595 64.5747 33.5821 64.5747 32.7471V24.6615H67.2405V32.8021C67.2405 33.2195 67.3282 33.5638 67.5038 33.8347C67.6793 34.1057 67.9718 34.2412 68.3814 34.2412C68.535 34.2412 68.6776 34.2229 68.8092 34.1863C68.9409 34.1423 69.1054 34.1094 69.3029 34.0874C69.6832 34.0362 70.016 34.1277 70.3012 34.3621C70.5937 34.5891 70.8643 34.8711 71.113 35.208C70.367 35.6255 69.7234 35.9074 69.1822 36.0539C68.641 36.2077 68.14 36.2846 67.6793 36.2846ZM72.5172 36.0209C72.1734 35.6255 71.9431 35.2336 71.826 34.8455C71.7163 34.4573 71.6615 34.0435 71.6615 33.604V24.6615H74.3382V33.2525C74.3382 33.6553 74.3638 34.0874 74.415 34.5488C74.4735 35.0102 74.565 35.5009 74.6893 36.0209H72.5172Z" fill="#1C1C45"/>
<path d="M82.386 36.2846C81.384 36.2846 80.4516 36.0722 79.5886 35.6474C78.7329 35.2153 78.0418 34.5598 77.5152 33.6809C76.9959 32.8021 76.7363 31.6852 76.7363 30.3302C76.7363 29.0266 76.9996 27.9353 77.5262 27.0564C78.0527 26.1775 78.7475 25.5147 79.6105 25.068C80.4735 24.6212 81.3987 24.3978 82.386 24.3978C82.7809 24.3978 83.2124 24.4381 83.6805 24.5187C84.1559 24.5919 84.613 24.7128 85.0518 24.8812L84.3936 26.6829C84.0206 26.5877 83.6622 26.5181 83.3185 26.4742C82.9747 26.4229 82.6639 26.3973 82.386 26.3973C81.8448 26.3973 81.3621 26.5511 80.9379 26.8587C80.5137 27.159 80.1773 27.6021 79.9287 28.188C79.6873 28.7666 79.5666 29.4807 79.5666 30.3302C79.5666 31.1871 79.6873 31.9085 79.9287 32.4945C80.1773 33.0731 80.5137 33.5162 80.9379 33.8238C81.3621 34.1314 81.8448 34.2852 82.386 34.2852C82.7005 34.2852 83.0406 34.2412 83.4062 34.1533C83.7719 34.0581 84.1961 33.9116 84.6788 33.7139L85.348 35.5156C84.7702 35.7866 84.2253 35.9807 83.7134 36.0979C83.2015 36.2224 82.759 36.2846 82.386 36.2846Z" fill="#1C1C45"/>
<path d="M91.4468 36.2846C90.1304 36.2846 89.1211 35.8891 88.419 35.0981C87.7169 34.3071 87.3659 33.1829 87.3659 31.7254V26.584H85.468V25.1339L87.3659 24.6615V21.882L89.889 21.0691V31.8243C89.889 32.5714 90.0499 33.1719 90.3717 33.626C90.6935 34.0801 91.1141 34.3071 91.6333 34.3071C91.8747 34.3071 92.127 34.2852 92.3903 34.2412C92.6609 34.19 92.9863 34.1021 93.3666 33.9776L93.9371 35.7353C93.3885 35.9184 92.9241 36.0539 92.5438 36.1418C92.1709 36.237 91.8052 36.2846 91.4468 36.2846ZM92.7194 26.584C92.3244 26.584 91.9917 26.4888 91.7211 26.2984C91.4505 26.1006 91.2274 25.8553 91.0519 25.5623C90.8837 25.2694 90.752 24.9691 90.657 24.6615H93.8054V26.584H92.7194Z" fill="#1C1C45"/>
<path d="M96.1771 36.0209V24.6615H98.8758V36.0209H96.1771ZM97.5265 22.9806C97.073 22.9806 96.6891 22.8268 96.3746 22.5192C96.0674 22.2043 95.9138 21.8198 95.9138 21.3657C95.9138 20.897 96.0674 20.5051 96.3746 20.1902C96.6891 19.8753 97.073 19.7178 97.5265 19.7178C97.9872 19.7178 98.3712 19.8753 98.6783 20.1902C98.9855 20.5051 99.1391 20.897 99.1391 21.3657C99.1391 21.8198 98.9855 22.2043 98.6783 22.5192C98.3712 22.8268 97.9872 22.9806 97.5265 22.9806Z" fill="#1C1C45"/>
<path d="M106.638 36.2846C105.621 36.2846 104.685 36.0539 103.829 35.5925C102.974 35.1311 102.286 34.4573 101.767 33.5711C101.248 32.6849 100.988 31.6046 100.988 30.3302C100.988 29.3122 101.16 28.4297 101.504 27.6826C101.847 26.9356 102.297 26.3204 102.853 25.837C103.416 25.3536 104.027 24.9947 104.685 24.7604C105.35 24.5187 106.001 24.3978 106.638 24.3978C107.779 24.3978 108.773 24.6542 109.622 25.1668C110.47 25.6795 111.124 26.3826 111.585 27.2761C112.053 28.1697 112.287 29.1877 112.287 30.3302C112.287 31.2677 112.13 32.1063 111.816 32.846C111.501 33.5857 111.073 34.2119 110.532 34.7246C109.998 35.23 109.395 35.6181 108.722 35.8891C108.049 36.1528 107.354 36.2846 106.638 36.2846ZM106.638 34.2962C107.259 34.2962 107.779 34.1167 108.195 33.7578C108.612 33.399 108.923 32.9193 109.128 32.3187C109.34 31.7181 109.446 31.0553 109.446 30.3302C109.446 29.5319 109.329 28.8361 109.095 28.2429C108.861 27.6497 108.532 27.1919 108.108 26.8697C107.691 26.5474 107.201 26.3863 106.638 26.3863C106.075 26.3863 105.581 26.5474 105.157 26.8697C104.732 27.1919 104.403 27.6497 104.169 28.2429C103.935 28.8361 103.818 29.5319 103.818 30.3302C103.818 31.4947 104.067 32.4469 104.564 33.1866C105.069 33.9263 105.76 34.2962 106.638 34.2962Z" fill="#1C1C45"/>
<path d="M121.459 36.0209V27.8804C121.459 27.4629 121.368 27.1187 121.185 26.8477C121.002 26.5767 120.71 26.4412 120.307 26.4412C120.154 26.4412 120.011 26.4595 119.88 26.4961C119.748 26.5328 119.58 26.5657 119.375 26.595C119.002 26.639 118.669 26.5474 118.377 26.3204C118.091 26.0933 117.824 25.8113 117.576 25.4744C118.322 25.057 118.962 24.775 119.496 24.6285C120.037 24.4747 120.541 24.3978 121.009 24.3978C121.543 24.3978 122.048 24.5187 122.523 24.7604C123.006 25.0021 123.394 25.3829 123.686 25.9029C123.986 26.4229 124.136 27.1004 124.136 27.9353V36.0209H121.459ZM114.329 36.0209V27.4299C114.329 27.0198 114.303 26.584 114.252 26.1226C114.201 25.6612 114.113 25.1742 113.988 24.6615H116.15C116.501 25.057 116.735 25.4488 116.852 25.837C116.969 26.2252 117.027 26.639 117.027 27.0784V36.0209H114.329Z" fill="#1C1C45"/>
<path d="M79.7887 45.0568C79.8427 45.115 79.9051 45.1754 79.9757 45.2378C80.0505 45.2961 80.1316 45.3502 80.2188 45.4001C80.3103 45.4501 80.4079 45.4917 80.5118 45.525C80.6199 45.5541 80.7342 45.5687 80.8547 45.5687C80.9253 45.5687 80.996 45.5583 81.0666 45.5374C81.1373 45.5166 81.2017 45.4875 81.2599 45.45C81.3181 45.4084 81.3638 45.3606 81.397 45.3065C81.4344 45.2482 81.4531 45.1837 81.4531 45.1129C81.4531 44.959 81.3783 44.8403 81.2287 44.7571C81.0791 44.6697 80.8422 44.5844 80.5181 44.5012C80.3601 44.4637 80.2126 44.4096 80.0755 44.3388C79.9425 44.2681 79.8261 44.1828 79.7264 44.0829C79.6308 43.983 79.556 43.8686 79.502 43.7395C79.4479 43.6105 79.4209 43.467 79.4209 43.3088C79.4209 43.134 79.4521 42.9696 79.5144 42.8156C79.5768 42.6616 79.6703 42.5264 79.7949 42.4099C79.9238 42.2892 80.0817 42.1955 80.2687 42.1289C80.4599 42.0582 80.6843 42.0228 80.942 42.0228C81.1539 42.0228 81.3409 42.0457 81.503 42.0915C81.6651 42.1331 81.8022 42.1851 81.9144 42.2475C82.0308 42.3058 82.1243 42.3682 82.195 42.4348C82.2698 42.4973 82.3259 42.5472 82.3633 42.5847L81.8209 43.1839C81.7752 43.1465 81.7212 43.107 81.6589 43.0653C81.6007 43.0196 81.5342 42.9779 81.4594 42.9405C81.3846 42.903 81.3014 42.8718 81.21 42.8468C81.1227 42.8219 81.0292 42.8094 80.9295 42.8094C80.863 42.8094 80.7965 42.8198 80.73 42.8406C80.6677 42.8614 80.6095 42.8905 80.5555 42.928C80.5056 42.9613 80.464 43.0029 80.4308 43.0529C80.4017 43.0986 80.3872 43.1486 80.3872 43.2027C80.3872 43.3442 80.462 43.4586 80.6116 43.546C80.7612 43.6334 80.9669 43.7063 81.2287 43.7645C81.3825 43.802 81.5321 43.854 81.6776 43.9206C81.8272 43.983 81.9602 44.0662 82.0765 44.1703C82.1929 44.2743 82.2864 44.4034 82.357 44.5573C82.4277 44.7072 82.463 44.8903 82.463 45.1067C82.463 45.294 82.4214 45.4667 82.3383 45.6248C82.2552 45.783 82.1409 45.9203 81.9955 46.0369C81.8542 46.1534 81.6859 46.2429 81.4905 46.3053C81.2994 46.3719 81.0916 46.4052 80.8672 46.4052C80.6594 46.4052 80.4703 46.3844 80.2999 46.3428C80.1295 46.3053 79.9757 46.2554 79.8386 46.1929C79.7014 46.1263 79.5768 46.0514 79.4646 45.9682C79.3565 45.885 79.263 45.7996 79.184 45.7122L79.7887 45.0568Z" fill="white"/>
<path d="M89.5 42.1352H90.3914V43.6521C90.487 43.5398 90.6138 43.4545 90.7717 43.3962C90.9296 43.3338 91.0896 43.3026 91.2517 43.3026C91.5883 43.3026 91.8564 43.4024 92.0558 43.6022C92.2595 43.802 92.3613 44.0975 92.3613 44.4887V46.2991H91.4699V44.626C91.4699 44.4554 91.4262 44.3222 91.339 44.2265C91.2517 44.1308 91.1353 44.0829 90.9899 44.0829C90.8943 44.0829 90.8091 44.1016 90.7343 44.1391C90.6595 44.1724 90.5971 44.2182 90.5473 44.2764C90.4974 44.3347 90.46 44.4034 90.4351 44.4824C90.4101 44.5573 90.3977 44.6385 90.3977 44.7259V46.2991H89.5V42.1352Z" fill="white"/>
<path d="M102.195 45.9807C102.162 46.0015 102.112 46.0369 102.045 46.0868C101.979 46.1326 101.892 46.1784 101.784 46.2241C101.68 46.2699 101.555 46.3095 101.409 46.3428C101.264 46.3802 101.098 46.3989 100.911 46.3989C100.661 46.3989 100.437 46.3615 100.238 46.2866C100.038 46.2075 99.8677 46.0993 99.7264 45.962C99.5892 45.8246 99.4833 45.6602 99.4084 45.4688C99.3378 45.2732 99.3025 45.0588 99.3025 44.8258C99.3025 44.6218 99.3357 44.4262 99.4022 44.239C99.4729 44.0475 99.5726 43.8811 99.7014 43.7395C99.8303 43.598 99.9882 43.4857 100.175 43.4024C100.362 43.315 100.574 43.2713 100.811 43.2713C101.048 43.2713 101.256 43.313 101.434 43.3962C101.613 43.4794 101.763 43.596 101.883 43.7458C102.008 43.8915 102.101 44.0683 102.164 44.2764C102.226 44.4804 102.257 44.7051 102.257 44.9506V45.1005H100.175C100.179 45.2586 100.248 45.398 100.381 45.5187C100.518 45.6353 100.705 45.6935 100.942 45.6935C101.175 45.6935 101.364 45.6602 101.509 45.5936C101.655 45.5229 101.761 45.4625 101.827 45.4126L102.195 45.9807ZM101.409 44.5261C101.409 44.4637 101.397 44.4013 101.372 44.3388C101.347 44.2723 101.31 44.2119 101.26 44.1578C101.21 44.1037 101.148 44.06 101.073 44.0267C100.998 43.9893 100.909 43.9705 100.805 43.9705C100.701 43.9705 100.609 43.9893 100.531 44.0267C100.452 44.06 100.385 44.1037 100.331 44.1578C100.281 44.2119 100.242 44.2723 100.213 44.3388C100.188 44.4013 100.175 44.4637 100.175 44.5261H101.409Z" fill="white"/>
<path d="M111.946 45.9807C111.912 46.0015 111.863 46.0369 111.796 46.0868C111.73 46.1326 111.642 46.1784 111.534 46.2241C111.43 46.2699 111.306 46.3095 111.16 46.3428C111.015 46.3802 110.849 46.3989 110.662 46.3989C110.412 46.3989 110.188 46.3615 109.988 46.2866C109.789 46.2075 109.618 46.0993 109.477 45.962C109.34 45.8246 109.234 45.6602 109.159 45.4688C109.089 45.2732 109.053 45.0588 109.053 44.8258C109.053 44.6218 109.086 44.4262 109.153 44.239C109.224 44.0475 109.323 43.8811 109.452 43.7395C109.581 43.598 109.739 43.4857 109.926 43.4024C110.113 43.315 110.325 43.2713 110.562 43.2713C110.799 43.2713 111.007 43.313 111.185 43.3962C111.364 43.4794 111.514 43.596 111.634 43.7458C111.759 43.8915 111.852 44.0683 111.915 44.2764C111.977 44.4804 112.008 44.7051 112.008 44.9506V45.1005H109.926C109.93 45.2586 109.999 45.398 110.132 45.5187C110.269 45.6353 110.456 45.6935 110.693 45.6935C110.925 45.6935 111.115 45.6602 111.26 45.5936C111.405 45.5229 111.511 45.4625 111.578 45.4126L111.946 45.9807ZM111.16 44.5261C111.16 44.4637 111.148 44.4013 111.123 44.3388C111.098 44.2723 111.061 44.2119 111.011 44.1578C110.961 44.1037 110.898 44.06 110.824 44.0267C110.749 43.9893 110.659 43.9705 110.556 43.9705C110.452 43.9705 110.36 43.9893 110.281 44.0267C110.202 44.06 110.136 44.1037 110.082 44.1578C110.032 44.2119 109.992 44.2723 109.963 44.3388C109.938 44.4013 109.926 44.4637 109.926 44.5261H111.16Z" fill="white"/>
<path d="M119.153 44.0767H118.692V43.3712H119.153V42.4848H120.051V43.3712H120.805V44.0767H120.051V45.2316C120.051 45.3731 120.078 45.4833 120.132 45.5624C120.19 45.6373 120.279 45.6748 120.4 45.6748C120.491 45.6748 120.57 45.6602 120.637 45.6311C120.703 45.5978 120.766 45.5603 120.824 45.5187L121.185 46.0681C120.903 46.2928 120.595 46.4052 120.263 46.4052C120.055 46.4052 119.88 46.374 119.739 46.3115C119.598 46.2533 119.483 46.1721 119.396 46.0681C119.309 45.9599 119.247 45.8309 119.209 45.681C119.172 45.5312 119.153 45.3647 119.153 45.1816V44.0767Z" fill="white"/>
<path d="M13.5596 43.579H74.42V44.8421H13.5596V43.579Z" fill="#1C1C45"/>
</svg>
