<svg width="103" height="26" viewBox="0 0 103 26" fill="none" xmlns="http://www.w3.org/2000/svg">
<path d="M38.5215 6.40625H32.8238C32.6352 6.40614 32.4528 6.46996 32.3093 6.58621C32.1659 6.70246 32.0709 6.8635 32.0415 7.04032L29.7371 20.9052C29.7265 20.9696 29.7308 21.0353 29.7495 21.0979C29.7683 21.1606 29.8011 21.2186 29.8458 21.2681C29.8904 21.3175 29.9458 21.3572 30.0082 21.3843C30.0706 21.4115 30.1384 21.4255 30.207 21.4254H32.9271C33.1159 21.4255 33.2985 21.3616 33.4419 21.2452C33.5854 21.1288 33.6802 20.9675 33.7095 20.7906L34.331 17.051C34.3601 16.8742 34.4549 16.7131 34.5982 16.5967C34.7415 16.4803 34.9238 16.4162 35.1124 16.4161H36.9161C40.6693 16.4161 42.8354 14.6926 43.4011 11.2772C43.6561 9.78294 43.412 8.60888 42.6746 7.78665C41.8648 6.88378 40.4286 6.40625 38.5215 6.40625ZM39.1789 11.4701C38.8673 13.4102 37.3052 13.4102 35.7947 13.4102H34.935L35.5381 9.78689C35.5558 9.68088 35.6127 9.58434 35.6987 9.51463C35.7847 9.44491 35.8941 9.40661 36.0072 9.40661H36.4013C37.4302 9.40661 38.4007 9.40661 38.9023 9.9632C39.2014 10.2953 39.293 10.7886 39.1789 11.4701ZM55.553 11.4076H52.8245C52.7114 11.4076 52.6021 11.4459 52.5161 11.5157C52.4301 11.5854 52.3731 11.6819 52.3555 11.7879L52.2347 12.5121L52.0439 12.2496C51.4532 11.4361 50.1361 11.1641 48.8214 11.1641C45.8063 11.1641 43.2312 13.3312 42.7296 16.3711C42.4689 17.8875 42.8396 19.3374 43.746 20.3486C44.5775 21.2784 45.7672 21.6658 47.1826 21.6658C49.612 21.6658 50.9592 20.1834 50.9592 20.1834L50.8375 20.9028C50.8267 20.9672 50.8307 21.033 50.8492 21.0957C50.8678 21.1584 50.9004 21.2166 50.9449 21.2662C50.9894 21.3158 51.0447 21.3556 51.107 21.383C51.1693 21.4103 51.2371 21.4245 51.3058 21.4246H53.7634C53.9522 21.4247 54.1348 21.3608 54.2782 21.2444C54.4217 21.128 54.5165 20.9667 54.5457 20.7898L56.0204 11.9279C56.0312 11.8637 56.0273 11.798 56.0088 11.7354C55.9903 11.6728 55.9577 11.6148 55.9132 11.5654C55.8688 11.5159 55.8136 11.4762 55.7514 11.4489C55.6892 11.4217 55.6215 11.4076 55.553 11.4076ZM51.7498 16.447C51.4865 17.9262 50.2494 18.9192 48.6714 18.9192C47.8791 18.9192 47.246 18.6781 46.8394 18.2211C46.4362 17.7673 46.2829 17.1214 46.4112 16.4019C46.6569 14.9353 47.915 13.9099 49.4687 13.9099C50.2435 13.9099 50.8734 14.1542 51.2883 14.6151C51.704 15.0808 51.8689 15.7307 51.7498 16.447ZM70.0842 11.4076H67.3425C67.2132 11.4078 67.0858 11.438 66.9716 11.4954C66.8573 11.5529 66.7596 11.6359 66.6868 11.7373L62.9053 17.0233L61.3023 11.9437C61.2531 11.7887 61.1527 11.653 61.0158 11.5564C60.879 11.4599 60.713 11.4077 60.5425 11.4076H57.8482C57.7726 11.4074 57.698 11.4244 57.6307 11.4571C57.5634 11.4898 57.5052 11.5373 57.4611 11.5956C57.417 11.6539 57.3883 11.7213 57.3772 11.7923C57.3661 11.8633 57.3731 11.9358 57.3975 12.0038L60.4176 20.4142L57.5783 24.2179C57.5278 24.2853 57.4979 24.3646 57.4918 24.4471C57.4857 24.5296 57.5036 24.6121 57.5436 24.6856C57.5836 24.7591 57.6442 24.8207 57.7186 24.8637C57.7931 24.9067 57.8785 24.9294 57.9657 24.9294H60.7042C60.832 24.9296 60.958 24.9003 61.0713 24.8441C61.1847 24.788 61.2819 24.7065 61.3548 24.6068L70.4742 12.1152C70.5236 12.0477 70.5526 11.9685 70.558 11.8864C70.5634 11.8043 70.545 11.7224 70.5048 11.6495C70.4647 11.5766 70.4042 11.5155 70.3301 11.4729C70.256 11.4302 70.1709 11.4077 70.0842 11.4076Z" fill="#253B80"/>
<path d="M79.1618 6.40606H73.4633C73.2748 6.40614 73.0925 6.47004 72.9493 6.58628C72.806 6.70252 72.7112 6.86345 72.6818 7.04013L70.3774 20.905C70.3667 20.9693 70.3708 21.0349 70.3894 21.0975C70.408 21.1601 70.4407 21.2181 70.4852 21.2676C70.5297 21.317 70.5849 21.3567 70.6472 21.3839C70.7094 21.4112 70.7771 21.4253 70.8456 21.4253H73.7699C73.9018 21.4251 74.0293 21.3802 74.1295 21.2988C74.2297 21.2173 74.296 21.1046 74.3164 20.9809L74.9704 17.0508C74.9996 16.874 75.0944 16.7129 75.2376 16.5965C75.3809 16.4801 75.5633 16.4161 75.7519 16.416H77.5547C81.3088 16.416 83.474 14.6924 84.0406 11.277C84.2963 9.78275 84.0506 8.6087 83.3133 7.78647C82.5043 6.88359 81.0688 6.40606 79.1618 6.40606ZM79.8191 11.4699C79.5084 13.4101 77.9463 13.4101 76.435 13.4101H75.5761L76.1801 9.7867C76.1974 9.6807 76.2541 9.58407 76.34 9.51432C76.4259 9.44456 76.5353 9.40629 76.6483 9.40642H77.0424C78.0704 9.40642 79.0418 9.40642 79.5434 9.96301C79.8425 10.2951 79.9333 10.7884 79.8191 11.4699ZM96.1924 11.4075H93.4656C93.3526 11.4072 93.2431 11.4454 93.1572 11.5152C93.0713 11.5849 93.0146 11.6817 92.9974 11.7877L92.8766 12.5119L92.685 12.2495C92.0943 11.4359 90.778 11.1639 89.4633 11.1639C86.4483 11.1639 83.8739 13.331 83.3724 16.3709C83.1125 17.8873 83.4815 19.3373 84.388 20.3484C85.2211 21.2782 86.4091 21.6656 87.8246 21.6656C90.254 21.6656 91.6011 20.1832 91.6011 20.1832L91.4795 20.9027C91.4686 20.9671 91.4726 21.033 91.4913 21.0959C91.5099 21.1587 91.5427 21.217 91.5874 21.2666C91.6321 21.3162 91.6876 21.356 91.7501 21.3833C91.8126 21.4105 91.8806 21.4246 91.9494 21.4245H94.4062C94.5948 21.4244 94.7772 21.3603 94.9205 21.2439C95.0637 21.1275 95.1585 20.9664 95.1877 20.7896L96.6631 11.9277C96.6736 11.8633 96.6693 11.7975 96.6504 11.7349C96.6315 11.6722 96.5986 11.6142 96.5539 11.5648C96.5092 11.5154 96.4537 11.4757 96.3913 11.4486C96.3289 11.4214 96.2611 11.4074 96.1924 11.4075ZM92.3892 16.4468C92.1277 17.926 90.8888 18.919 89.3109 18.919C88.5202 18.919 87.8854 18.6779 87.4788 18.2209C87.0756 17.7671 86.924 17.1212 87.0506 16.4017C87.2981 14.9351 88.5544 13.9097 90.1082 13.9097C90.883 13.9097 91.5128 14.154 91.9277 14.615C92.3451 15.0806 92.5101 15.7305 92.3892 16.4468ZM99.4091 6.78635L97.0705 20.905C97.0598 20.9693 97.0639 21.0349 97.0825 21.0975C97.1011 21.1601 97.1338 21.2181 97.1783 21.2676C97.2228 21.317 97.2781 21.3567 97.3403 21.3839C97.4025 21.4112 97.4702 21.4253 97.5388 21.4253H99.8898C100.281 21.4253 100.612 21.1564 100.672 20.7904L102.978 6.92628C102.989 6.86202 102.985 6.79632 102.966 6.73369C102.948 6.67107 102.915 6.61301 102.87 6.5635C102.826 6.51399 102.771 6.47422 102.708 6.4469C102.646 6.41959 102.579 6.40539 102.51 6.40527H99.8773C99.7643 6.40565 99.6551 6.44421 99.5693 6.51404C99.4835 6.58386 99.4267 6.6804 99.4091 6.78635Z" fill="#179BD7"/>
<path d="M6.07575 24.1197L6.51147 21.4933L5.54089 21.472H0.90625L4.12709 2.09177C4.13668 2.03255 4.16837 1.97858 4.21639 1.93969C4.26441 1.90079 4.32556 1.87957 4.38869 1.87989H12.2033C14.7977 1.87989 16.588 2.3922 17.5228 3.40339C17.961 3.87775 18.2401 4.37346 18.3751 4.91898C18.5167 5.49138 18.5192 6.17526 18.3809 7.00935L18.3709 7.07023V7.60468L18.8091 7.84028C19.1437 8.00112 19.4444 8.2187 19.6964 8.48226C20.0713 8.88784 20.3138 9.40331 20.4162 10.0145C20.522 10.643 20.487 11.3909 20.3138 12.2376C20.1138 13.2117 19.7906 14.06 19.354 14.7542C18.9688 15.376 18.4509 15.9146 17.8336 16.3354C17.2537 16.7259 16.5647 17.0224 15.7858 17.2122C15.0309 17.3987 14.1703 17.4928 13.2264 17.4928H12.6182C12.1833 17.4928 11.761 17.6415 11.4294 17.9079C11.0983 18.1772 10.8786 18.5492 10.8095 18.9578L10.7637 19.1942L9.99391 23.8232L9.95892 23.9932C9.94975 24.047 9.93393 24.0738 9.9106 24.092C9.888 24.1096 9.85981 24.1193 9.83062 24.1197H6.07575Z" fill="#253B80"/>
<path d="M19.2243 7.13184C19.201 7.27335 19.1743 7.41804 19.1443 7.56667C18.1138 12.5878 14.588 14.3224 10.085 14.3224H7.79226C7.24156 14.3224 6.77752 14.7019 6.69171 15.2174L5.51784 22.2823L5.18543 24.2849C5.17218 24.3643 5.17724 24.4455 5.20025 24.5229C5.22325 24.6003 5.26366 24.6721 5.31869 24.7333C5.37372 24.7944 5.44206 24.8435 5.51901 24.8772C5.59596 24.9109 5.6797 24.9284 5.76444 24.9284H9.8309C10.3124 24.9284 10.7215 24.5964 10.7973 24.1457L10.8373 23.9497L11.6029 19.3388L11.6521 19.0858C11.7271 18.6336 12.137 18.3016 12.6185 18.3016H13.2267C17.1665 18.3016 20.2507 16.7836 21.1521 12.391C21.5287 10.556 21.3338 9.02376 20.3374 7.94616C20.0215 7.61281 19.6444 7.33686 19.2243 7.13184Z" fill="#179BD7"/>
<path d="M18.146 6.72387C17.8169 6.63354 17.4821 6.56303 17.1437 6.51278C16.475 6.41525 15.7991 6.36846 15.1226 6.37284H8.99748C8.76438 6.37267 8.5389 6.45164 8.36181 6.59548C8.18472 6.73932 8.0677 6.93854 8.03189 7.15712L6.7289 14.9889L6.69141 15.2174C6.732 14.9681 6.86528 14.7408 7.06714 14.5766C7.26901 14.4125 7.52612 14.3223 7.79196 14.3224H10.0847C14.5877 14.3224 18.1135 12.587 19.144 7.56666C19.1749 7.41802 19.2007 7.27334 19.224 7.13182C18.9521 6.99649 18.6686 6.88304 18.3767 6.79265C18.3002 6.76856 18.2233 6.74563 18.146 6.72387Z" fill="#222D65"/>
<path d="M8.03199 7.15721C8.06749 6.93856 8.18445 6.73925 8.36163 6.59548C8.53881 6.45171 8.76446 6.37303 8.99757 6.37371H15.1227C15.8483 6.37371 16.5256 6.41878 17.1438 6.51365C17.5621 6.57604 17.9747 6.66935 18.3777 6.79274C18.6817 6.8884 18.9642 7.00146 19.2249 7.13191C19.5315 5.27635 19.2224 4.01296 18.1652 2.86895C16.9997 1.60951 14.8961 1.07031 12.2042 1.07031H4.3896C3.83974 1.07031 3.37069 1.4498 3.28571 1.96607L0.0307169 21.5455C0.0155557 21.6364 0.021324 21.7293 0.0476251 21.8179C0.0739262 21.9065 0.120136 21.9886 0.183075 22.0586C0.246015 22.1287 0.324191 22.1849 0.412225 22.2235C0.50026 22.2621 0.596063 22.2822 0.693046 22.2823H5.51764L6.72899 14.989L8.03199 7.15721Z" fill="#253B80"/>
</svg>
