<svg width="48" height="48" viewBox="0 0 48 48" fill="none" xmlns="http://www.w3.org/2000/svg">
<g clip-path="url(#clip0_534_4521)">
<path d="M12.2098 12.9625L8.0513 13.2838C6.89416 13.3732 5.86357 13.9797 5.22364 14.9477L0.427708 22.2012C-0.0576324 22.9353 -0.134788 23.8539 0.221178 24.6587C0.577238 25.4634 1.30895 26.0242 2.17847 26.159L5.9861 26.7486C6.87681 22.0218 9.00905 17.3066 12.2098 12.9625ZM21.2513 42.0138L21.8411 45.8215C21.9758 46.691 22.5366 47.4227 23.3412 47.7787C23.6693 47.9243 24.0241 47.9997 24.383 47.9999C24.8867 47.9995 25.3791 47.8507 25.7988 47.5721L33.0525 42.7763C34.0205 42.1363 34.627 41.1056 34.7162 39.9486L35.0375 35.7901C30.6933 38.991 25.9782 41.1232 21.2513 42.0138ZM19.8193 39.3747C19.9515 39.3747 20.0844 39.3638 20.2171 39.3417C22.1974 39.0106 24.1061 38.4528 25.9269 37.7226L10.2774 22.0731C9.54726 23.8938 8.98945 25.8025 8.65833 27.783C8.52783 28.5636 8.78967 29.3589 9.34926 29.9186L18.0814 38.6508C18.5461 39.1153 19.1732 39.3747 19.8193 39.3747ZM44.1726 21.2814C48.0022 13.8776 48.144 6.05368 47.9439 2.38433C47.8753 1.12706 46.873 0.124692 45.6156 0.0561609C44.915 0.0183725 44.2136 -0.000353046 43.512 5.03935e-06C39.4089 5.03935e-06 32.9167 0.621469 26.7186 3.82741C21.7928 6.37524 15.3337 11.9853 11.523 19.3579C11.568 19.3931 11.612 19.4304 11.6534 19.4718L28.5283 36.3467C28.5697 36.3881 28.607 36.432 28.6421 36.477C36.0147 32.6662 41.6248 26.2071 44.1726 21.2814ZM27.909 10.1474C30.6503 7.4061 35.111 7.40582 37.8525 10.1474C39.1806 11.4754 39.9119 13.2412 39.9119 15.1192C39.9119 16.9973 39.1806 18.7631 37.8525 20.091C36.482 21.4616 34.6811 22.147 32.8808 22.1471C31.08 22.1472 29.2799 21.4619 27.909 20.091C26.5809 18.7631 25.8495 16.9973 25.8495 15.1192C25.8495 13.2412 26.5809 11.4754 27.909 10.1474Z" fill="#FF9700"/>
<path d="M29.8973 18.1023C31.5422 19.7472 34.2187 19.7473 35.8635 18.1023C36.6603 17.3055 37.0992 16.2461 37.0992 15.1192C37.0992 13.9924 36.6603 12.933 35.8635 12.1362C35.0412 11.3138 33.9608 10.9026 32.8804 10.9026C31.8002 10.9026 30.7198 11.3138 29.8974 12.1362C29.1007 12.933 28.6617 13.9924 28.6617 15.1192C28.6617 16.2461 29.1006 17.3056 29.8973 18.1023ZM1.4345 39.5565C1.79441 39.5565 2.15431 39.4192 2.42881 39.1446L7.01999 34.5534C7.56918 34.0042 7.56918 33.1139 7.01999 32.5647C6.4709 32.0155 5.58047 32.0155 5.03129 32.5647L0.440106 37.1559C-0.109077 37.705 -0.109077 38.5954 0.440106 39.1446C0.570545 39.2753 0.725545 39.3791 0.896197 39.4498C1.06685 39.5204 1.24979 39.5567 1.4345 39.5565ZM11.2276 36.7722C10.6785 36.223 9.78803 36.223 9.23885 36.7722L0.411887 45.5992C-0.137296 46.1484 -0.137296 47.0387 0.411887 47.5879C0.686479 47.8625 1.04638 47.9997 1.40629 47.9997C1.76619 47.9997 2.12609 47.8625 2.40059 47.5878L11.2275 38.7609C11.7767 38.2118 11.7767 37.3214 11.2276 36.7722ZM13.4463 40.9798L8.85523 45.571C8.30604 46.1202 8.30604 47.0105 8.85523 47.5597C9.12982 47.8343 9.48972 47.9716 9.84953 47.9716C10.2093 47.9716 10.5693 47.8344 10.8438 47.5597L15.435 42.9685C15.9842 42.4193 15.9842 41.529 15.435 40.9798C14.8859 40.4306 13.9955 40.4306 13.4463 40.9798Z" fill="#FF9700"/>
</g>
<defs>
<clipPath id="clip0_534_4521">
<rect width="48" height="48" fill="white"/>
</clipPath>
</defs>
</svg>
