<svg width="64" height="64" viewBox="0 0 64 64" fill="none" xmlns="http://www.w3.org/2000/svg">
<path d="M48.88 15.12L17.5733 46.4267C16.4 47.6 14.4267 47.44 13.4667 46.0534C10.16 41.2267 8.21332 35.52 8.21332 29.6534V17.9467C8.21332 15.76 9.86665 13.28 11.8933 12.4534L26.7467 6.37337C30.1067 4.98671 33.84 4.98671 37.2 6.37337L48 10.7734C49.76 11.4934 50.2133 13.7867 48.88 15.12Z" fill="white"/>
<path d="M51.3867 18.7733C53.12 17.3067 55.76 18.56 55.76 20.8267V29.6533C55.76 42.6933 46.2933 54.9067 33.36 58.48C32.48 58.72 31.52 58.72 30.6133 58.48C26.8267 57.4133 23.3067 55.6267 20.2933 53.28C19.0133 52.2933 18.88 50.4267 20 49.28C25.8133 43.3333 42.8267 26 51.3867 18.7733Z" fill="white"/>
</svg>
