<svg width="24" height="28" viewBox="0 0 24 28" fill="none" xmlns="http://www.w3.org/2000/svg">
<path d="M23.0301 7.0524C22.9974 6.3316 22.9974 5.64356 22.9974 4.95552C22.9974 4.39853 22.5714 3.97261 22.0145 3.97261C17.919 3.97261 14.8064 2.79311 12.2181 0.270301C11.8249 -0.0901003 11.2352 -0.0901003 10.842 0.270301C8.25368 2.79311 5.14112 3.97261 1.04565 3.97261C0.48867 3.97261 0.0627412 4.39853 0.0627412 4.95552C0.0627412 5.64356 0.0627411 6.3316 0.0299774 7.0524C-0.101078 13.9328 -0.297661 23.3687 11.2024 27.3332C11.4187 27.3764 11.6414 27.3764 11.8577 27.3332C23.325 23.3687 23.1612 13.9656 23.0301 7.0524ZM10.7437 16.5867C10.5471 16.7505 10.3178 16.8488 10.0557 16.8488H10.0229C9.76081 16.8488 9.4987 16.7177 9.33488 16.5211L6.95368 13.8839C6.5868 13.4775 6.62126 12.8501 7.03043 12.4864C7.4354 12.1264 8.05497 12.1607 8.41771 12.5632L8.9381 13.1406C9.60432 13.8799 10.749 13.9241 11.4703 13.2385L14.7424 10.1279C15.1385 9.75139 15.7657 9.7704 16.1383 10.1702C16.507 10.5659 16.4866 11.1853 16.0926 11.5558L10.7437 16.5867Z" fill="#FFA520"/>
</svg>
