<svg width="64" height="64" viewBox="0 0 64 64" fill="none" xmlns="http://www.w3.org/2000/svg">
<path d="M49.44 11.12L34.7733 5.62667C33.2533 5.06667 30.7733 5.06667 29.2533 5.62667L14.5867 11.12C11.76 12.1867 9.46667 15.4933 9.46667 18.5067V40.1067C9.46667 42.2667 10.88 45.12 12.6133 46.4L27.28 57.36C29.8667 59.3067 34.1067 59.3067 36.6933 57.36L51.36 46.4C53.0933 45.0933 54.5067 42.2667 54.5067 40.1067V18.5067C54.5333 15.4933 52.24 12.1867 49.44 11.12ZM34 34.32V41.3333C34 42.4267 33.0933 43.3333 32 43.3333C30.9067 43.3333 30 42.4267 30 41.3333V34.32C27.3067 33.4667 25.3333 30.96 25.3333 28C25.3333 24.32 28.32 21.3333 32 21.3333C35.68 21.3333 38.6667 24.32 38.6667 28C38.6667 30.9867 36.6933 33.4667 34 34.32Z" fill="white"/>
</svg>
