<svg width="64" height="64" viewBox="0 0 64 64" fill="none" xmlns="http://www.w3.org/2000/svg">
<path d="M51.8667 18.5067V25.2C51.8667 27.0933 49.9467 28.32 48.16 27.6533C45.92 26.8267 43.44 26.5067 40.8267 26.7733C34.48 27.4667 27.9733 33.5733 26.9067 39.8933C26.0267 45.1467 27.7067 50.0533 30.9333 53.52C32.4 55.12 31.4133 57.7067 29.2533 57.9467C27.4133 58.16 25.6 58.1067 24.5867 57.36L9.92001 46.4C8.18668 45.0933 6.77335 42.2667 6.77335 40.08V18.5067C6.77335 15.4933 9.06668 12.1867 11.8667 11.12L26.5333 5.62667C28.0533 5.06667 30.56 5.06667 32.08 5.62667L46.7467 11.12C49.5733 12.1867 51.8667 15.4933 51.8667 18.5067Z" fill="white"/>
<path d="M42.6667 30.6934C36.0533 30.6934 30.6667 36.08 30.6667 42.6934C30.6667 49.3067 36.0533 54.6934 42.6667 54.6934C49.28 54.6934 54.6667 49.3067 54.6667 42.6934C54.6667 36.0534 49.28 30.6934 42.6667 30.6934Z" fill="white"/>
<path d="M56 58.6666C55.28 58.6666 54.6133 58.3733 54.1067 57.8933C54 57.7599 53.8667 57.6266 53.7867 57.4666C53.68 57.3333 53.6 57.1733 53.5467 57.0133C53.4667 56.8533 53.4133 56.6933 53.3867 56.5333C53.36 56.3466 53.3333 56.1866 53.3333 55.9999C53.3333 55.6533 53.4133 55.3066 53.5467 54.9866C53.68 54.6399 53.8667 54.3733 54.1067 54.1066C54.72 53.4933 55.6533 53.1999 56.5067 53.3866C56.6933 53.4133 56.8533 53.4666 57.0133 53.5466C57.1733 53.5999 57.3333 53.6799 57.4667 53.7866C57.6267 53.8666 57.76 53.9999 57.8933 54.1066C58.1333 54.3733 58.32 54.6399 58.4533 54.9866C58.5867 55.3066 58.6667 55.6533 58.6667 55.9999C58.6667 56.6933 58.3733 57.3866 57.8933 57.8933C57.76 57.9999 57.6267 58.1066 57.4667 58.2133C57.3333 58.3199 57.1733 58.3999 57.0133 58.4533C56.8533 58.5333 56.6933 58.5866 56.5067 58.6133C56.3467 58.6399 56.16 58.6666 56 58.6666Z" fill="white"/>
</svg>
