<svg width="580" height="595" viewBox="0 0 580 595" fill="none" xmlns="http://www.w3.org/2000/svg">
<g filter="url(#filter0_d_849_4044)">
<rect x="17" y="9" width="546" height="560" rx="12" fill="white"/>
<rect x="17.5289" y="9.52892" width="544.942" height="558.942" rx="11.4711" stroke="#E6E8EE" stroke-width="1.05783"/>
</g>
<g filter="url(#filter1_d_849_4044)">
<rect x="49" y="41.0879" width="482" height="119.947" rx="9.9956" fill="#1C1C45"/>
<path d="M104.531 78.8489H86.7615C78.9871 78.8489 75.6553 83.2914 75.6553 89.9551V112.168C75.6553 118.831 78.9871 123.274 86.7615 123.274H104.531C112.306 123.274 115.638 118.831 115.638 112.168V89.9551C115.638 83.2914 112.306 78.8489 104.531 78.8489ZM86.7615 101.617H95.6465C96.5572 101.617 97.3124 102.372 97.3124 103.283C97.3124 104.193 96.5572 104.949 95.6465 104.949H86.7615C85.8508 104.949 85.0956 104.193 85.0956 103.283C85.0956 102.372 85.8508 101.617 86.7615 101.617ZM104.531 113.833H86.7615C85.8508 113.833 85.0956 113.078 85.0956 112.168C85.0956 111.257 85.8508 110.502 86.7615 110.502H104.531C105.442 110.502 106.197 111.257 106.197 112.168C106.197 113.078 105.442 113.833 104.531 113.833ZM110.085 94.9529H105.642C102.266 94.9529 99.5337 92.2208 99.5337 88.8445V84.402C99.5337 83.4913 100.289 82.7361 101.2 82.7361C102.11 82.7361 102.866 83.4913 102.866 84.402V88.8445C102.866 90.3771 104.109 91.621 105.642 91.621H110.085C110.995 91.621 111.751 92.3763 111.751 93.287C111.751 94.1977 110.995 94.9529 110.085 94.9529Z" fill="white"/>
<path d="M142.955 96.7855V94.9456H152.621V96.7855H148.876V107.062H146.699V96.7855H142.955ZM153.447 107.062V97.9746H155.523V99.4891H155.618C155.783 98.9645 156.067 98.5603 156.47 98.2763C156.876 97.9884 157.339 97.8445 157.86 97.8445C157.978 97.8445 158.11 97.8504 158.256 97.8622C158.406 97.8701 158.53 97.8839 158.629 97.9036V99.8736C158.538 99.8421 158.394 99.8145 158.197 99.7908C158.004 99.7632 157.816 99.7494 157.635 99.7494C157.245 99.7494 156.894 99.8342 156.582 100.004C156.274 100.169 156.032 100.4 155.854 100.696C155.677 100.992 155.588 101.333 155.588 101.719V107.062H153.447ZM165.843 103.24V97.9746H167.985V107.062H165.908V105.446H165.814C165.609 105.955 165.272 106.371 164.802 106.695C164.337 107.018 163.763 107.18 163.081 107.18C162.485 107.18 161.959 107.048 161.501 106.783C161.048 106.515 160.693 106.127 160.436 105.618C160.18 105.105 160.052 104.486 160.052 103.76V97.9746H162.193V103.429C162.193 104.005 162.351 104.462 162.667 104.802C162.982 105.141 163.396 105.31 163.909 105.31C164.224 105.31 164.53 105.233 164.826 105.08C165.122 104.926 165.364 104.697 165.554 104.393C165.747 104.086 165.843 103.701 165.843 103.24ZM174.21 107.239C173.299 107.239 172.512 107.05 171.85 106.671C171.191 106.289 170.684 105.748 170.329 105.05C169.974 104.348 169.797 103.522 169.797 102.571C169.797 101.637 169.974 100.816 170.329 100.11C170.688 99.4004 171.189 98.8482 171.832 98.4538C172.475 98.0555 173.23 97.8563 174.098 97.8563C174.658 97.8563 175.186 97.947 175.683 98.1284C176.184 98.3059 176.626 98.582 177.008 98.9567C177.395 99.3313 177.699 99.8086 177.919 100.388C178.14 100.964 178.251 101.65 178.251 102.447V103.104H170.802V101.66H176.198C176.194 101.25 176.105 100.885 175.932 100.566C175.758 100.242 175.516 99.988 175.204 99.8026C174.896 99.6173 174.537 99.5246 174.127 99.5246C173.689 99.5246 173.305 99.6311 172.974 99.8441C172.642 100.053 172.384 100.329 172.199 100.672C172.017 101.011 171.925 101.384 171.921 101.79V103.051C171.921 103.579 172.017 104.033 172.21 104.411C172.404 104.786 172.674 105.074 173.021 105.275C173.368 105.472 173.774 105.571 174.24 105.571C174.551 105.571 174.833 105.527 175.086 105.441C175.338 105.35 175.557 105.218 175.742 105.044C175.928 104.871 176.068 104.656 176.162 104.399L178.162 104.624C178.036 105.153 177.795 105.614 177.44 106.008C177.089 106.399 176.64 106.703 176.091 106.92C175.543 107.133 174.916 107.239 174.21 107.239ZM184.289 107.062V94.9456H188.833C189.764 94.9456 190.545 95.1073 191.176 95.4307C191.811 95.7542 192.29 96.2077 192.613 96.7914C192.94 97.3712 193.104 98.0476 193.104 98.8206C193.104 99.5976 192.939 100.272 192.607 100.844C192.28 101.412 191.797 101.852 191.158 102.163C190.519 102.471 189.734 102.625 188.803 102.625H185.567V100.802H188.507C189.052 100.802 189.497 100.728 189.844 100.578C190.192 100.424 190.448 100.201 190.614 99.9091C190.783 99.6133 190.868 99.2505 190.868 98.8206C190.868 98.3907 190.783 98.0239 190.614 97.7202C190.444 97.4126 190.186 97.1799 189.839 97.0221C189.491 96.8604 189.044 96.7796 188.496 96.7796H186.484V107.062H184.289ZM190.548 101.572L193.548 107.062H191.099L188.153 101.572H190.548ZM198.923 107.239C198.011 107.239 197.225 107.05 196.562 106.671C195.903 106.289 195.397 105.748 195.042 105.05C194.687 104.348 194.509 103.522 194.509 102.571C194.509 101.637 194.687 100.816 195.042 100.11C195.401 99.4004 195.901 98.8482 196.544 98.4538C197.187 98.0555 197.942 97.8563 198.81 97.8563C199.37 97.8563 199.899 97.947 200.396 98.1284C200.896 98.3059 201.338 98.582 201.721 98.9567C202.107 99.3313 202.411 99.8086 202.632 100.388C202.853 100.964 202.963 101.65 202.963 102.447V103.104H195.515V101.66H200.91C200.906 101.25 200.818 100.885 200.644 100.566C200.471 100.242 200.228 99.988 199.916 99.8026C199.609 99.6173 199.25 99.5246 198.84 99.5246C198.402 99.5246 198.017 99.6311 197.686 99.8441C197.355 100.053 197.096 100.329 196.911 100.672C196.73 101.011 196.637 101.384 196.633 101.79V103.051C196.633 103.579 196.73 104.033 196.923 104.411C197.116 104.786 197.386 105.074 197.733 105.275C198.08 105.472 198.487 105.571 198.952 105.571C199.264 105.571 199.546 105.527 199.798 105.441C200.05 105.35 200.269 105.218 200.455 105.044C200.64 104.871 200.78 104.656 200.875 104.399L202.874 104.624C202.748 105.153 202.508 105.614 202.153 106.008C201.802 106.399 201.352 106.703 200.804 106.92C200.256 107.133 199.628 107.239 198.923 107.239ZM204.775 110.469V97.9746H206.881V99.4773H207.005C207.116 99.2564 207.271 99.0217 207.473 98.7733C207.674 98.5209 207.946 98.3059 208.289 98.1284C208.632 97.947 209.07 97.8563 209.602 97.8563C210.304 97.8563 210.937 98.0357 211.501 98.3946C212.069 98.7496 212.519 99.2761 212.85 99.9742C213.185 100.668 213.353 101.52 213.353 102.53C213.353 103.528 213.189 104.376 212.862 105.074C212.535 105.772 212.089 106.304 211.525 106.671C210.961 107.038 210.322 107.221 209.608 107.221C209.088 107.221 208.656 107.134 208.313 106.961C207.969 106.787 207.693 106.578 207.484 106.334C207.279 106.085 207.12 105.851 207.005 105.63H206.916V110.469H204.775ZM206.875 102.518C206.875 103.106 206.958 103.62 207.124 104.062C207.293 104.504 207.536 104.849 207.851 105.097C208.171 105.342 208.557 105.464 209.011 105.464C209.484 105.464 209.88 105.338 210.2 105.086C210.519 104.829 210.76 104.48 210.922 104.038C211.087 103.593 211.17 103.086 211.17 102.518C211.17 101.954 211.089 101.453 210.927 101.015C210.766 100.578 210.525 100.235 210.206 99.986C209.886 99.7376 209.488 99.6133 209.011 99.6133C208.553 99.6133 208.165 99.7336 207.845 99.9742C207.526 100.215 207.283 100.552 207.118 100.986C206.956 101.42 206.875 101.93 206.875 102.518ZM219.151 107.239C218.263 107.239 217.494 107.044 216.843 106.653C216.193 106.263 215.688 105.717 215.329 105.015C214.974 104.313 214.797 103.492 214.797 102.554C214.797 101.615 214.974 100.793 215.329 100.087C215.688 99.3806 216.193 98.8324 216.843 98.442C217.494 98.0515 218.263 97.8563 219.151 97.8563C220.038 97.8563 220.807 98.0515 221.458 98.442C222.109 98.8324 222.611 99.3806 222.966 100.087C223.325 100.793 223.505 101.615 223.505 102.554C223.505 103.492 223.325 104.313 222.966 105.015C222.611 105.717 222.109 106.263 221.458 106.653C220.807 107.044 220.038 107.239 219.151 107.239ZM219.162 105.523C219.644 105.523 220.046 105.391 220.369 105.127C220.693 104.859 220.933 104.5 221.091 104.05C221.253 103.601 221.334 103.1 221.334 102.548C221.334 101.992 221.253 101.489 221.091 101.039C220.933 100.586 220.693 100.225 220.369 99.9565C220.046 99.6883 219.644 99.5542 219.162 99.5542C218.669 99.5542 218.259 99.6883 217.932 99.9565C217.609 100.225 217.366 100.586 217.204 101.039C217.047 101.489 216.968 101.992 216.968 102.548C216.968 103.1 217.047 103.601 217.204 104.05C217.366 104.5 217.609 104.859 217.932 105.127C218.259 105.391 218.669 105.523 219.162 105.523ZM225.322 107.062V97.9746H227.399V99.4891H227.494C227.659 98.9645 227.943 98.5603 228.346 98.2763C228.752 97.9884 229.215 97.8445 229.736 97.8445C229.854 97.8445 229.986 97.8504 230.132 97.8622C230.282 97.8701 230.406 97.8839 230.505 97.9036V99.8736C230.414 99.8421 230.27 99.8145 230.073 99.7908C229.88 99.7632 229.692 99.7494 229.511 99.7494C229.121 99.7494 228.77 99.8342 228.458 100.004C228.15 100.169 227.908 100.4 227.73 100.696C227.553 100.992 227.464 101.333 227.464 101.719V107.062H225.322ZM236.953 97.9746V99.6311H231.729V97.9746H236.953ZM233.019 95.7975H235.161V104.328C235.161 104.616 235.204 104.837 235.291 104.991C235.382 105.141 235.5 105.243 235.646 105.299C235.792 105.354 235.953 105.381 236.131 105.381C236.265 105.381 236.387 105.372 236.498 105.352C236.612 105.332 236.699 105.314 236.758 105.299L237.119 106.973C237.005 107.012 236.841 107.056 236.628 107.103C236.419 107.15 236.162 107.178 235.859 107.186C235.322 107.202 234.839 107.121 234.409 106.943C233.979 106.762 233.638 106.482 233.386 106.103C233.137 105.725 233.015 105.251 233.019 104.683V95.7975ZM242.025 106.346V98.158H243.882V106.346H242.025ZM238.86 103.181V101.323H247.047V103.181H238.86Z" fill="white"/>
<rect x="49.4165" y="41.5044" width="481.167" height="119.114" rx="9.57912" stroke="white" stroke-opacity="0.13" stroke-width="0.832967"/>
</g>
<g filter="url(#filter2_d_849_4044)">
<path d="M88.8268 218.787H80.1418C75.6548 218.787 73.4336 221.009 73.4336 225.496V234.203C73.4336 238.779 75.6548 241 80.1418 240.889H88.849C93.4248 241 95.646 238.779 95.535 234.181V225.496C95.646 221.009 93.4248 218.787 88.8268 218.787ZM89.0045 236.024C87.4941 236.024 86.0281 235.447 84.8064 234.425C83.4292 235.424 81.7633 236.024 79.9641 236.024C79.0533 236.024 78.2981 235.269 78.2981 234.358C78.2981 233.448 79.0533 232.692 79.9641 232.692C82.2297 232.692 84.1178 231.137 84.8064 229.005H79.9641C79.0533 229.005 78.2981 228.25 78.2981 227.339C78.2981 226.428 79.0533 225.673 79.9641 225.673H82.8295C82.9183 224.829 83.6069 224.163 84.4732 224.163C85.3395 224.163 86.0281 224.829 86.1169 225.673H86.6944C86.7166 225.673 86.7389 225.673 86.7389 225.673H86.7833H88.9823C89.893 225.673 90.6482 226.428 90.6482 227.339C90.6482 228.25 89.9152 229.005 88.9823 229.005H88.2493C88.0494 230.071 87.6274 231.071 87.072 231.982C87.6718 232.426 88.3159 232.692 89.0045 232.692C89.9152 232.692 90.6705 233.448 90.6705 234.358C90.6705 235.269 89.9152 236.024 89.0045 236.024Z" fill="#FF9700"/>
<path d="M88.9822 264.878C79.4975 264.878 71.7676 257.148 71.7676 247.664C71.7676 246.753 72.5228 245.998 73.4335 245.998C74.3442 245.998 75.0994 246.753 75.0994 247.664C75.0994 254.239 79.6752 259.747 85.8281 261.191L85.2283 260.192C84.7619 259.392 85.0062 258.37 85.8059 257.904C86.5833 257.437 87.6273 257.682 88.0937 258.481L90.426 262.368C90.737 262.879 90.737 263.523 90.4483 264.034C90.1373 264.545 89.582 264.878 88.9822 264.878Z" fill="#FF9700"/>
<path d="M117.858 236.002C116.948 236.002 116.193 235.247 116.193 234.336C116.193 227.761 111.617 222.252 105.464 220.809L106.064 221.808C106.53 222.608 106.286 223.63 105.486 224.096C104.709 224.563 103.665 224.318 103.198 223.519L100.866 219.631C100.555 219.12 100.555 218.476 100.844 217.965C101.155 217.455 101.71 217.121 102.31 217.121C111.794 217.121 119.524 224.851 119.524 234.336C119.524 235.247 118.769 236.002 117.858 236.002Z" fill="#FF9700"/>
<path d="M106.575 240.667C100.355 240.667 95.291 245.709 95.291 251.951C95.291 258.17 100.333 263.235 106.575 263.235C112.794 263.235 117.859 258.192 117.859 251.951C117.859 245.709 112.817 240.667 106.575 240.667ZM112.084 257.304C111.262 257.704 110.262 257.393 109.84 256.549L109.463 255.793H103.71L103.332 256.549C103.043 257.126 102.443 257.459 101.844 257.459C101.599 257.459 101.333 257.393 101.111 257.282C100.289 256.86 99.9556 255.86 100.355 255.038L105.109 245.553C105.398 244.998 105.975 244.643 106.597 244.643C107.219 244.643 107.797 244.998 108.085 245.576L112.839 255.06C113.239 255.882 112.905 256.882 112.084 257.304Z" fill="#FF9700"/>
<path d="M105.375 252.461H107.796L106.574 250.04L105.375 252.461Z" fill="#FF9700"/>
<path d="M145.043 247H142.7L146.966 234.884H149.675L153.946 247H151.604L148.368 237.369H148.273L145.043 247ZM145.12 242.249H151.509V244.012H145.12V242.249ZM161.239 243.178V237.913H163.381V247H161.304V245.385H161.21C161.005 245.894 160.667 246.31 160.198 246.633C159.733 246.957 159.159 247.118 158.477 247.118C157.881 247.118 157.355 246.986 156.897 246.722C156.443 246.454 156.089 246.065 155.832 245.557C155.576 245.044 155.448 244.425 155.448 243.699V237.913H157.589V243.368C157.589 243.943 157.747 244.401 158.062 244.74C158.378 245.079 158.792 245.249 159.305 245.249C159.62 245.249 159.926 245.172 160.222 245.018C160.518 244.864 160.76 244.636 160.949 244.332C161.143 244.024 161.239 243.64 161.239 243.178ZM169.547 247.177C168.64 247.177 167.861 246.978 167.21 246.58C166.563 246.182 166.064 245.631 165.713 244.929C165.366 244.223 165.193 243.411 165.193 242.492C165.193 241.569 165.37 240.755 165.725 240.049C166.08 239.339 166.581 238.787 167.228 238.392C167.879 237.994 168.648 237.795 169.535 237.795C170.273 237.795 170.925 237.931 171.493 238.203C172.065 238.471 172.521 238.852 172.86 239.345C173.199 239.834 173.392 240.406 173.44 241.06H171.393C171.31 240.623 171.113 240.258 170.801 239.966C170.493 239.67 170.081 239.522 169.565 239.522C169.127 239.522 168.742 239.641 168.411 239.877C168.08 240.11 167.821 240.445 167.636 240.883C167.455 241.321 167.364 241.845 167.364 242.457C167.364 243.076 167.455 243.608 167.636 244.054C167.817 244.496 168.072 244.837 168.399 245.077C168.73 245.314 169.119 245.432 169.565 245.432C169.88 245.432 170.162 245.373 170.411 245.255C170.663 245.133 170.874 244.957 171.044 244.728C171.213 244.5 171.329 244.221 171.393 243.894H173.44C173.388 244.537 173.199 245.107 172.872 245.604C172.544 246.097 172.099 246.483 171.535 246.763C170.971 247.039 170.308 247.177 169.547 247.177ZM179.736 237.913V239.57H174.512V237.913H179.736ZM175.801 235.736H177.943V244.267C177.943 244.555 177.986 244.776 178.073 244.929C178.164 245.079 178.282 245.182 178.428 245.237C178.574 245.292 178.736 245.32 178.913 245.32C179.047 245.32 179.17 245.31 179.28 245.29C179.394 245.271 179.481 245.253 179.54 245.237L179.901 246.911C179.787 246.951 179.623 246.994 179.41 247.041C179.201 247.089 178.945 247.116 178.641 247.124C178.105 247.14 177.622 247.059 177.192 246.882C176.762 246.7 176.421 246.42 176.168 246.042C175.92 245.663 175.798 245.19 175.801 244.622V235.736ZM181.527 247V237.913H183.668V247H181.527ZM182.603 236.623C182.264 236.623 181.972 236.511 181.728 236.286C181.483 236.057 181.361 235.783 181.361 235.464C181.361 235.14 181.483 234.866 181.728 234.642C181.972 234.413 182.264 234.298 182.603 234.298C182.946 234.298 183.238 234.413 183.479 234.642C183.723 234.866 183.846 235.14 183.846 235.464C183.846 235.783 183.723 236.057 183.479 236.286C183.238 236.511 182.946 236.623 182.603 236.623ZM189.834 247.177C188.947 247.177 188.178 246.982 187.527 246.592C186.876 246.201 186.371 245.655 186.012 244.953C185.657 244.251 185.48 243.431 185.48 242.492C185.48 241.553 185.657 240.731 186.012 240.025C186.371 239.319 186.876 238.771 187.527 238.38C188.178 237.99 188.947 237.795 189.834 237.795C190.722 237.795 191.491 237.99 192.141 238.38C192.792 238.771 193.295 239.319 193.65 240.025C194.009 240.731 194.188 241.553 194.188 242.492C194.188 243.431 194.009 244.251 193.65 244.953C193.295 245.655 192.792 246.201 192.141 246.592C191.491 246.982 190.722 247.177 189.834 247.177ZM189.846 245.462C190.327 245.462 190.729 245.33 191.053 245.065C191.376 244.797 191.617 244.438 191.775 243.989C191.936 243.539 192.017 243.038 192.017 242.486C192.017 241.93 191.936 241.427 191.775 240.978C191.617 240.524 191.376 240.163 191.053 239.895C190.729 239.627 190.327 239.493 189.846 239.493C189.353 239.493 188.943 239.627 188.615 239.895C188.292 240.163 188.049 240.524 187.888 240.978C187.73 241.427 187.651 241.93 187.651 242.486C187.651 243.038 187.73 243.539 187.888 243.989C188.049 244.438 188.292 244.797 188.615 245.065C188.943 245.33 189.353 245.462 189.846 245.462ZM198.148 241.676V247H196.006V237.913H198.053V239.457H198.159C198.368 238.948 198.702 238.544 199.159 238.244C199.621 237.945 200.19 237.795 200.869 237.795C201.496 237.795 202.042 237.929 202.508 238.197C202.977 238.465 203.34 238.854 203.596 239.362C203.856 239.871 203.985 240.489 203.981 241.214V247H201.839V241.545C201.839 240.938 201.681 240.463 201.366 240.12C201.054 239.777 200.622 239.605 200.07 239.605C199.696 239.605 199.362 239.688 199.07 239.854C198.782 240.015 198.556 240.25 198.39 240.558C198.228 240.865 198.148 241.238 198.148 241.676ZM216.969 238.215C216.914 237.698 216.681 237.296 216.271 237.008C215.865 236.72 215.336 236.576 214.686 236.576C214.228 236.576 213.836 236.645 213.508 236.783C213.181 236.921 212.931 237.109 212.757 237.345C212.583 237.582 212.495 237.852 212.491 238.156C212.491 238.408 212.548 238.627 212.662 238.812C212.781 238.998 212.94 239.155 213.142 239.286C213.343 239.412 213.565 239.518 213.81 239.605C214.055 239.692 214.301 239.765 214.55 239.824L215.685 240.108C216.143 240.214 216.583 240.358 217.005 240.54C217.431 240.721 217.811 240.95 218.146 241.226C218.486 241.502 218.754 241.835 218.951 242.226C219.148 242.616 219.247 243.074 219.247 243.598C219.247 244.308 219.065 244.933 218.703 245.474C218.34 246.01 217.815 246.43 217.129 246.734C216.447 247.034 215.62 247.183 214.65 247.183C213.707 247.183 212.889 247.037 212.195 246.746C211.505 246.454 210.964 246.028 210.574 245.468C210.187 244.908 209.978 244.225 209.947 243.421H212.106C212.138 243.843 212.268 244.194 212.497 244.474C212.725 244.754 213.023 244.963 213.39 245.101C213.761 245.239 214.175 245.308 214.632 245.308C215.11 245.308 215.528 245.237 215.887 245.095C216.249 244.949 216.533 244.748 216.738 244.492C216.944 244.231 217.048 243.928 217.052 243.581C217.048 243.265 216.955 243.005 216.774 242.8C216.592 242.591 216.338 242.417 216.011 242.279C215.687 242.137 215.309 242.011 214.875 241.9L213.496 241.545C212.499 241.289 211.71 240.901 211.13 240.38C210.554 239.855 210.266 239.159 210.266 238.292C210.266 237.578 210.46 236.953 210.846 236.416C211.237 235.88 211.767 235.464 212.438 235.168C213.108 234.868 213.867 234.718 214.715 234.718C215.575 234.718 216.328 234.868 216.975 235.168C217.626 235.464 218.137 235.876 218.507 236.405C218.878 236.929 219.069 237.532 219.081 238.215H216.969ZM223.25 241.676V247H221.109V234.884H223.203V239.457H223.31C223.523 238.944 223.852 238.54 224.298 238.244C224.747 237.945 225.319 237.795 226.013 237.795C226.644 237.795 227.194 237.927 227.664 238.191C228.133 238.455 228.496 238.842 228.752 239.351C229.013 239.859 229.143 240.481 229.143 241.214V247H227.001V241.545C227.001 240.934 226.843 240.459 226.528 240.12C226.216 239.777 225.778 239.605 225.215 239.605C224.836 239.605 224.497 239.688 224.197 239.854C223.901 240.015 223.668 240.25 223.499 240.558C223.333 240.865 223.25 241.238 223.25 241.676ZM235.349 247.177C234.437 247.177 233.651 246.988 232.988 246.61C232.329 246.227 231.823 245.687 231.468 244.989C231.113 244.287 230.935 243.46 230.935 242.51C230.935 241.575 231.113 240.755 231.468 240.049C231.827 239.339 232.327 238.787 232.97 238.392C233.613 237.994 234.368 237.795 235.236 237.795C235.796 237.795 236.325 237.885 236.822 238.067C237.323 238.244 237.764 238.52 238.147 238.895C238.533 239.27 238.837 239.747 239.058 240.327C239.279 240.903 239.389 241.589 239.389 242.386V243.042H231.941V241.599H237.336C237.332 241.189 237.244 240.824 237.07 240.504C236.897 240.181 236.654 239.926 236.342 239.741C236.035 239.556 235.676 239.463 235.266 239.463C234.828 239.463 234.443 239.57 234.112 239.783C233.781 239.992 233.522 240.268 233.337 240.611C233.156 240.95 233.063 241.323 233.059 241.729V242.989C233.059 243.517 233.156 243.971 233.349 244.35C233.542 244.724 233.812 245.012 234.159 245.213C234.507 245.411 234.913 245.509 235.378 245.509C235.69 245.509 235.972 245.466 236.224 245.379C236.477 245.288 236.695 245.156 236.881 244.983C237.066 244.809 237.206 244.594 237.301 244.338L239.3 244.563C239.174 245.091 238.934 245.553 238.579 245.947C238.228 246.337 237.778 246.641 237.23 246.858C236.682 247.071 236.055 247.177 235.349 247.177ZM245.224 247.177C244.313 247.177 243.526 246.988 242.863 246.61C242.205 246.227 241.698 245.687 241.343 244.989C240.988 244.287 240.81 243.46 240.81 242.51C240.81 241.575 240.988 240.755 241.343 240.049C241.702 239.339 242.203 238.787 242.846 238.392C243.488 237.994 244.244 237.795 245.111 237.795C245.671 237.795 246.2 237.885 246.697 238.067C247.198 238.244 247.639 238.52 248.022 238.895C248.409 239.27 248.712 239.747 248.933 240.327C249.154 240.903 249.264 241.589 249.264 242.386V243.042H241.816V241.599H247.212C247.208 241.189 247.119 240.824 246.945 240.504C246.772 240.181 246.529 239.926 246.218 239.741C245.91 239.556 245.551 239.463 245.141 239.463C244.703 239.463 244.319 239.57 243.987 239.783C243.656 239.992 243.398 240.268 243.212 240.611C243.031 240.95 242.938 241.323 242.934 241.729V242.989C242.934 243.517 243.031 243.971 243.224 244.35C243.417 244.724 243.688 245.012 244.035 245.213C244.382 245.411 244.788 245.509 245.253 245.509C245.565 245.509 245.847 245.466 246.099 245.379C246.352 245.288 246.571 245.156 246.756 244.983C246.941 244.809 247.081 244.594 247.176 244.338L249.176 244.563C249.049 245.091 248.809 245.553 248.454 245.947C248.103 246.337 247.653 246.641 247.105 246.858C246.557 247.071 245.93 247.177 245.224 247.177ZM255.614 237.913V239.57H250.39V237.913H255.614ZM251.68 235.736H253.821V244.267C253.821 244.555 253.865 244.776 253.951 244.929C254.042 245.079 254.16 245.182 254.306 245.237C254.452 245.292 254.614 245.32 254.791 245.32C254.925 245.32 255.048 245.31 255.158 245.29C255.273 245.271 255.359 245.253 255.418 245.237L255.779 246.911C255.665 246.951 255.501 246.994 255.288 247.041C255.079 247.089 254.823 247.116 254.519 247.124C253.983 247.14 253.5 247.059 253.07 246.882C252.64 246.7 252.299 246.42 252.046 246.042C251.798 245.663 251.676 245.19 251.68 244.622V235.736ZM261.099 236.724V234.884H270.766V236.724H267.021V247H264.844V236.724H261.099ZM271.591 247V237.913H273.668V239.428H273.762C273.928 238.903 274.212 238.499 274.614 238.215C275.02 237.927 275.484 237.783 276.004 237.783C276.123 237.783 276.255 237.789 276.401 237.801C276.551 237.809 276.675 237.822 276.774 237.842V239.812C276.683 239.781 276.539 239.753 276.342 239.729C276.148 239.702 275.961 239.688 275.78 239.688C275.389 239.688 275.038 239.773 274.727 239.942C274.419 240.108 274.176 240.339 273.999 240.634C273.821 240.93 273.733 241.271 273.733 241.658V247H271.591ZM280.649 247.183C280.073 247.183 279.554 247.081 279.093 246.876C278.635 246.667 278.272 246.359 278.004 245.953C277.74 245.547 277.608 245.046 277.608 244.45C277.608 243.938 277.702 243.514 277.892 243.178C278.081 242.843 278.339 242.575 278.667 242.374C278.994 242.173 279.363 242.021 279.773 241.918C280.187 241.812 280.615 241.735 281.057 241.687C281.589 241.632 282.021 241.583 282.352 241.54C282.684 241.492 282.924 241.421 283.074 241.327C283.228 241.228 283.305 241.076 283.305 240.871V240.836C283.305 240.39 283.173 240.045 282.908 239.8C282.644 239.556 282.264 239.433 281.767 239.433C281.242 239.433 280.826 239.548 280.518 239.777C280.215 240.005 280.01 240.276 279.903 240.587L277.904 240.303C278.061 239.751 278.322 239.29 278.684 238.919C279.047 238.544 279.491 238.264 280.016 238.079C280.54 237.889 281.12 237.795 281.755 237.795C282.193 237.795 282.628 237.846 283.062 237.949C283.496 238.051 283.892 238.221 284.251 238.457C284.61 238.69 284.898 239.008 285.115 239.41C285.336 239.812 285.446 240.315 285.446 240.918V247H283.388V245.752H283.317C283.186 246.004 283.003 246.241 282.766 246.462C282.534 246.679 282.24 246.854 281.885 246.988C281.534 247.118 281.122 247.183 280.649 247.183ZM281.205 245.61C281.635 245.61 282.007 245.525 282.323 245.355C282.638 245.182 282.881 244.953 283.05 244.669C283.224 244.385 283.311 244.076 283.311 243.74V242.67C283.244 242.725 283.129 242.776 282.968 242.823C282.81 242.871 282.632 242.912 282.435 242.948C282.238 242.983 282.043 243.015 281.849 243.042C281.656 243.07 281.489 243.093 281.347 243.113C281.027 243.157 280.741 243.228 280.489 243.326C280.236 243.425 280.037 243.563 279.891 243.74C279.745 243.914 279.672 244.139 279.672 244.415C279.672 244.809 279.816 245.107 280.104 245.308C280.392 245.509 280.759 245.61 281.205 245.61ZM289.741 241.676V247H287.6V237.913H289.647V239.457H289.753C289.962 238.948 290.295 238.544 290.753 238.244C291.214 237.945 291.784 237.795 292.463 237.795C293.09 237.795 293.636 237.929 294.101 238.197C294.571 238.465 294.934 238.854 295.19 239.362C295.45 239.871 295.578 240.489 295.574 241.214V247H293.433V241.545C293.433 240.938 293.275 240.463 292.96 240.12C292.648 239.777 292.216 239.605 291.664 239.605C291.289 239.605 290.956 239.688 290.664 239.854C290.376 240.015 290.15 240.25 289.984 240.558C289.822 240.865 289.741 241.238 289.741 241.676ZM304.934 240.315L302.981 240.528C302.926 240.331 302.829 240.145 302.691 239.972C302.557 239.798 302.376 239.658 302.147 239.552C301.918 239.445 301.638 239.392 301.307 239.392C300.861 239.392 300.487 239.489 300.183 239.682C299.883 239.875 299.735 240.126 299.739 240.433C299.735 240.698 299.832 240.912 300.029 241.078C300.23 241.244 300.562 241.38 301.023 241.486L302.573 241.818C303.433 242.003 304.072 242.297 304.49 242.699C304.912 243.101 305.125 243.628 305.129 244.279C305.125 244.851 304.957 245.355 304.626 245.793C304.299 246.227 303.843 246.566 303.259 246.811C302.676 247.055 302.005 247.177 301.248 247.177C300.136 247.177 299.24 246.945 298.562 246.479C297.884 246.01 297.479 245.357 297.349 244.521L299.438 244.32C299.532 244.73 299.733 245.04 300.041 245.249C300.349 245.458 300.749 245.562 301.242 245.562C301.751 245.562 302.159 245.458 302.467 245.249C302.778 245.04 302.934 244.782 302.934 244.474C302.934 244.214 302.833 243.999 302.632 243.829C302.435 243.659 302.127 243.529 301.709 243.439L300.159 243.113C299.288 242.932 298.643 242.626 298.225 242.196C297.807 241.762 297.6 241.214 297.604 240.552C297.6 239.992 297.752 239.506 298.059 239.096C298.371 238.682 298.803 238.363 299.355 238.138C299.911 237.909 300.552 237.795 301.277 237.795C302.342 237.795 303.18 238.022 303.792 238.475C304.407 238.929 304.788 239.542 304.934 240.315ZM309.036 234.884V247H306.895V234.884H309.036ZM313.853 247.183C313.277 247.183 312.759 247.081 312.297 246.876C311.84 246.667 311.477 246.359 311.209 245.953C310.945 245.547 310.813 245.046 310.813 244.45C310.813 243.938 310.907 243.514 311.096 243.178C311.286 242.843 311.544 242.575 311.871 242.374C312.199 242.173 312.568 242.021 312.978 241.918C313.392 241.812 313.82 241.735 314.262 241.687C314.794 241.632 315.226 241.583 315.557 241.54C315.888 241.492 316.129 241.421 316.279 241.327C316.433 241.228 316.51 241.076 316.51 240.871V240.836C316.51 240.39 316.377 240.045 316.113 239.8C315.849 239.556 315.468 239.433 314.971 239.433C314.447 239.433 314.031 239.548 313.723 239.777C313.419 240.005 313.214 240.276 313.108 240.587L311.108 240.303C311.266 239.751 311.526 239.29 311.889 238.919C312.252 238.544 312.696 238.264 313.22 238.079C313.745 237.889 314.325 237.795 314.96 237.795C315.397 237.795 315.833 237.846 316.267 237.949C316.701 238.051 317.097 238.221 317.456 238.457C317.815 238.69 318.103 239.008 318.32 239.41C318.541 239.812 318.651 240.315 318.651 240.918V247H316.592V245.752H316.521C316.391 246.004 316.208 246.241 315.971 246.462C315.739 246.679 315.445 246.854 315.09 246.988C314.739 247.118 314.327 247.183 313.853 247.183ZM314.409 245.61C314.839 245.61 315.212 245.525 315.528 245.355C315.843 245.182 316.086 244.953 316.255 244.669C316.429 244.385 316.515 244.076 316.515 243.74V242.67C316.448 242.725 316.334 242.776 316.172 242.823C316.015 242.871 315.837 242.912 315.64 242.948C315.443 242.983 315.248 243.015 315.054 243.042C314.861 243.07 314.693 243.093 314.551 243.113C314.232 243.157 313.946 243.228 313.694 243.326C313.441 243.425 313.242 243.563 313.096 243.74C312.95 243.914 312.877 244.139 312.877 244.415C312.877 244.809 313.021 245.107 313.309 245.308C313.597 245.509 313.964 245.61 314.409 245.61ZM325.342 237.913V239.57H320.118V237.913H325.342ZM321.408 235.736H323.55V244.267C323.55 244.555 323.593 244.776 323.68 244.929C323.77 245.079 323.889 245.182 324.035 245.237C324.181 245.292 324.342 245.32 324.52 245.32C324.654 245.32 324.776 245.31 324.887 245.29C325.001 245.271 325.088 245.253 325.147 245.237L325.508 246.911C325.393 246.951 325.23 246.994 325.017 247.041C324.808 247.089 324.551 247.116 324.248 247.124C323.711 247.14 323.228 247.059 322.798 246.882C322.368 246.7 322.027 246.42 321.775 246.042C321.526 245.663 321.404 245.19 321.408 244.622V235.736ZM327.133 247V237.913H329.275V247H327.133ZM328.21 236.623C327.871 236.623 327.579 236.511 327.334 236.286C327.09 236.057 326.968 235.783 326.968 235.464C326.968 235.14 327.09 234.866 327.334 234.642C327.579 234.413 327.871 234.298 328.21 234.298C328.553 234.298 328.845 234.413 329.085 234.642C329.33 234.866 329.452 235.14 329.452 235.464C329.452 235.783 329.33 236.057 329.085 236.286C328.845 236.511 328.553 236.623 328.21 236.623ZM335.441 247.177C334.553 247.177 333.784 246.982 333.133 246.592C332.483 246.201 331.978 245.655 331.619 244.953C331.264 244.251 331.087 243.431 331.087 242.492C331.087 241.553 331.264 240.731 331.619 240.025C331.978 239.319 332.483 238.771 333.133 238.38C333.784 237.99 334.553 237.795 335.441 237.795C336.328 237.795 337.097 237.99 337.748 238.38C338.399 238.771 338.901 239.319 339.256 240.025C339.615 240.731 339.795 241.553 339.795 242.492C339.795 243.431 339.615 244.251 339.256 244.953C338.901 245.655 338.399 246.201 337.748 246.592C337.097 246.982 336.328 247.177 335.441 247.177ZM335.452 245.462C335.934 245.462 336.336 245.33 336.659 245.065C336.983 244.797 337.223 244.438 337.381 243.989C337.543 243.539 337.624 243.038 337.624 242.486C337.624 241.93 337.543 241.427 337.381 240.978C337.223 240.524 336.983 240.163 336.659 239.895C336.336 239.627 335.934 239.493 335.452 239.493C334.959 239.493 334.549 239.627 334.222 239.895C333.899 240.163 333.656 240.524 333.494 240.978C333.337 241.427 333.258 241.93 333.258 242.486C333.258 243.038 333.337 243.539 333.494 243.989C333.656 244.438 333.899 244.797 334.222 245.065C334.549 245.33 334.959 245.462 335.452 245.462ZM343.754 241.676V247H341.612V237.913H343.659V239.457H343.766C343.975 238.948 344.308 238.544 344.766 238.244C345.227 237.945 345.797 237.795 346.475 237.795C347.102 237.795 347.649 237.929 348.114 238.197C348.583 238.465 348.946 238.854 349.203 239.362C349.463 239.871 349.591 240.489 349.587 241.214V247H347.446V241.545C347.446 240.938 347.288 240.463 346.972 240.12C346.661 239.777 346.229 239.605 345.677 239.605C345.302 239.605 344.969 239.688 344.677 239.854C344.389 240.015 344.162 240.25 343.997 240.558C343.835 240.865 343.754 241.238 343.754 241.676Z" fill="#1C1C45"/>
<rect x="49.4165" y="181.443" width="481.167" height="119.114" rx="9.57912" stroke="#E6E8EE" stroke-width="0.832967" shape-rendering="crispEdges"/>
</g>
<g filter="url(#filter3_d_849_4044)">
<path d="M102.31 388.713C102.31 396.687 95.846 403.151 87.8717 403.151C79.8974 403.151 73.4336 396.687 73.4336 388.713C73.4336 380.738 79.8974 374.275 87.8717 374.275C88.2493 374.275 88.6491 374.297 89.0267 374.319C96.0681 374.874 101.71 380.516 102.265 387.558C102.288 387.935 102.31 388.335 102.31 388.713Z" fill="#FF9700"/>
<path d="M117.859 373.164C117.859 380.405 112.528 386.38 105.597 387.424V387.291C104.909 378.673 97.9119 371.676 89.2268 370.987H89.1602C90.2041 364.057 96.1793 358.726 103.421 358.726C111.395 358.726 117.859 365.19 117.859 373.164Z" fill="#FF9700"/>
<path d="M81.4079 358.726H75.6548C74.4332 358.726 73.4336 359.725 73.4336 360.947V366.7C73.4336 368.677 75.8325 369.677 77.2319 368.277L82.9849 362.524C84.3621 361.125 83.3848 358.726 81.4079 358.726Z" fill="#FF9700"/>
<path d="M109.884 403.151H115.637C116.859 403.151 117.859 402.151 117.859 400.93V395.177C117.859 393.2 115.46 392.2 114.06 393.6L108.307 399.353C106.93 400.752 107.907 403.151 109.884 403.151Z" fill="#FF9700"/>
<path d="M153.858 378.911H151.645C151.582 378.548 151.466 378.226 151.296 377.946C151.126 377.662 150.915 377.422 150.663 377.224C150.411 377.027 150.123 376.879 149.799 376.781C149.48 376.678 149.135 376.627 148.764 376.627C148.105 376.627 147.522 376.793 147.013 377.124C146.504 377.451 146.106 377.932 145.818 378.567C145.53 379.198 145.386 379.969 145.386 380.881C145.386 381.807 145.53 382.588 145.818 383.223C146.11 383.854 146.508 384.332 147.013 384.655C147.522 384.974 148.103 385.134 148.758 385.134C149.121 385.134 149.46 385.087 149.776 384.992C150.095 384.894 150.381 384.75 150.633 384.56C150.89 384.371 151.105 384.138 151.278 383.862C151.456 383.586 151.578 383.271 151.645 382.916L153.858 382.927C153.775 383.503 153.595 384.044 153.319 384.548C153.047 385.053 152.69 385.499 152.249 385.885C151.807 386.268 151.29 386.568 150.699 386.785C150.107 386.998 149.45 387.104 148.729 387.104C147.664 387.104 146.713 386.858 145.877 386.365C145.041 385.872 144.382 385.16 143.901 384.229C143.42 383.298 143.179 382.182 143.179 380.881C143.179 379.575 143.422 378.459 143.907 377.532C144.392 376.601 145.053 375.889 145.889 375.396C146.725 374.903 147.672 374.657 148.729 374.657C149.403 374.657 150.03 374.752 150.61 374.941C151.19 375.13 151.706 375.408 152.16 375.775C152.613 376.138 152.986 376.584 153.278 377.112C153.574 377.637 153.767 378.236 153.858 378.911ZM159.796 387.116C158.885 387.116 158.098 386.927 157.435 386.548C156.777 386.165 156.27 385.625 155.915 384.927C155.56 384.225 155.383 383.399 155.383 382.448C155.383 381.514 155.56 380.693 155.915 379.987C156.274 379.277 156.775 378.725 157.418 378.331C158.06 377.932 158.816 377.733 159.683 377.733C160.243 377.733 160.772 377.824 161.269 378.005C161.77 378.183 162.212 378.459 162.594 378.834C162.981 379.208 163.284 379.686 163.505 380.265C163.726 380.841 163.836 381.527 163.836 382.324V382.981H156.388V381.537H161.784C161.78 381.127 161.691 380.762 161.517 380.443C161.344 380.119 161.101 379.865 160.79 379.68C160.482 379.494 160.123 379.402 159.713 379.402C159.275 379.402 158.891 379.508 158.559 379.721C158.228 379.93 157.97 380.206 157.784 380.549C157.603 380.888 157.51 381.261 157.506 381.667V382.927C157.506 383.456 157.603 383.91 157.796 384.288C157.989 384.663 158.26 384.951 158.607 385.152C158.954 385.349 159.36 385.448 159.825 385.448C160.137 385.448 160.419 385.404 160.671 385.318C160.924 385.227 161.143 385.095 161.328 384.921C161.513 384.748 161.653 384.533 161.748 384.276L163.748 384.501C163.621 385.03 163.381 385.491 163.026 385.885C162.675 386.276 162.225 386.58 161.677 386.796C161.129 387.009 160.502 387.116 159.796 387.116ZM165.648 386.938V377.852H167.725V379.366H167.819C167.985 378.842 168.269 378.437 168.671 378.153C169.077 377.865 169.541 377.721 170.062 377.721C170.18 377.721 170.312 377.727 170.458 377.739C170.608 377.747 170.732 377.761 170.831 377.781V379.751C170.74 379.719 170.596 379.691 170.399 379.668C170.205 379.64 170.018 379.626 169.837 379.626C169.446 379.626 169.095 379.711 168.784 379.881C168.476 380.046 168.233 380.277 168.056 380.573C167.879 380.869 167.79 381.21 167.79 381.596V386.938H165.648ZM177.279 377.852V379.508H172.055V377.852H177.279ZM173.345 375.674H175.486V384.205C175.486 384.493 175.53 384.714 175.617 384.868C175.707 385.018 175.826 385.12 175.972 385.176C176.117 385.231 176.279 385.258 176.457 385.258C176.591 385.258 176.713 385.248 176.823 385.229C176.938 385.209 177.025 385.191 177.084 385.176L177.445 386.85C177.33 386.889 177.167 386.933 176.954 386.98C176.745 387.027 176.488 387.055 176.185 387.063C175.648 387.078 175.165 386.998 174.735 386.82C174.305 386.639 173.964 386.359 173.712 385.98C173.463 385.601 173.341 385.128 173.345 384.56V375.674ZM179.07 386.938V377.852H181.212V386.938H179.07ZM180.147 376.562C179.808 376.562 179.516 376.449 179.271 376.225C179.027 375.996 178.904 375.722 178.904 375.402C178.904 375.079 179.027 374.805 179.271 374.58C179.516 374.351 179.808 374.237 180.147 374.237C180.49 374.237 180.782 374.351 181.022 374.58C181.267 374.805 181.389 375.079 181.389 375.402C181.389 375.722 181.267 375.996 181.022 376.225C180.782 376.449 180.49 376.562 180.147 376.562ZM188.016 377.852V379.508H182.645V377.852H188.016ZM183.988 386.938V376.994C183.988 376.382 184.114 375.874 184.366 375.467C184.623 375.061 184.966 374.758 185.396 374.556C185.826 374.355 186.303 374.255 186.827 374.255C187.198 374.255 187.527 374.284 187.815 374.343C188.103 374.403 188.316 374.456 188.454 374.503L188.028 376.16C187.938 376.132 187.823 376.104 187.685 376.077C187.547 376.045 187.393 376.029 187.224 376.029C186.825 376.029 186.543 376.126 186.378 376.319C186.216 376.509 186.135 376.781 186.135 377.136V386.938H183.988ZM189.694 386.938V377.852H191.835V386.938H189.694ZM190.77 376.562C190.431 376.562 190.139 376.449 189.895 376.225C189.65 375.996 189.528 375.722 189.528 375.402C189.528 375.079 189.65 374.805 189.895 374.58C190.139 374.351 190.431 374.237 190.77 374.237C191.113 374.237 191.405 374.351 191.646 374.58C191.89 374.805 192.013 375.079 192.013 375.402C192.013 375.722 191.89 375.996 191.646 376.225C191.405 376.449 191.113 376.562 190.77 376.562ZM198.001 387.116C197.094 387.116 196.315 386.917 195.664 386.518C195.017 386.12 194.519 385.57 194.168 384.868C193.82 384.162 193.647 383.349 193.647 382.431C193.647 381.508 193.824 380.693 194.179 379.987C194.534 379.277 195.035 378.725 195.682 378.331C196.333 377.932 197.102 377.733 197.989 377.733C198.727 377.733 199.38 377.869 199.947 378.141C200.519 378.41 200.975 378.79 201.314 379.283C201.653 379.772 201.846 380.344 201.894 380.999H199.847C199.764 380.561 199.567 380.196 199.255 379.904C198.948 379.609 198.536 379.461 198.019 379.461C197.581 379.461 197.197 379.579 196.865 379.816C196.534 380.048 196.276 380.384 196.09 380.821C195.909 381.259 195.818 381.784 195.818 382.395C195.818 383.014 195.909 383.547 196.09 383.992C196.272 384.434 196.526 384.775 196.853 385.016C197.185 385.252 197.573 385.371 198.019 385.371C198.334 385.371 198.616 385.312 198.865 385.193C199.117 385.071 199.328 384.895 199.498 384.667C199.667 384.438 199.784 384.16 199.847 383.833H201.894C201.843 384.475 201.653 385.045 201.326 385.542C200.999 386.035 200.553 386.422 199.989 386.702C199.425 386.978 198.762 387.116 198.001 387.116ZM206.267 387.122C205.691 387.122 205.173 387.019 204.711 386.814C204.254 386.605 203.891 386.298 203.623 385.891C203.358 385.485 203.226 384.984 203.226 384.389C203.226 383.876 203.321 383.452 203.51 383.117C203.7 382.782 203.958 382.513 204.285 382.312C204.613 382.111 204.981 381.959 205.392 381.857C205.806 381.75 206.234 381.673 206.675 381.626C207.208 381.571 207.64 381.521 207.971 381.478C208.302 381.431 208.543 381.36 208.693 381.265C208.847 381.166 208.923 381.015 208.923 380.81V380.774C208.923 380.328 208.791 379.983 208.527 379.739C208.263 379.494 207.882 379.372 207.385 379.372C206.861 379.372 206.445 379.486 206.137 379.715C205.833 379.944 205.628 380.214 205.522 380.526L203.522 380.242C203.68 379.689 203.94 379.228 204.303 378.857C204.666 378.483 205.11 378.203 205.634 378.017C206.159 377.828 206.738 377.733 207.373 377.733C207.811 377.733 208.247 377.785 208.681 377.887C209.115 377.99 209.511 378.159 209.87 378.396C210.229 378.629 210.517 378.946 210.734 379.348C210.955 379.751 211.065 380.253 211.065 380.857V386.938H209.006V385.69H208.935C208.805 385.943 208.622 386.179 208.385 386.4C208.152 386.617 207.859 386.793 207.504 386.927C207.153 387.057 206.74 387.122 206.267 387.122ZM206.823 385.548C207.253 385.548 207.626 385.463 207.941 385.294C208.257 385.12 208.499 384.892 208.669 384.608C208.843 384.324 208.929 384.014 208.929 383.679V382.608C208.862 382.663 208.748 382.714 208.586 382.762C208.428 382.809 208.251 382.851 208.054 382.886C207.857 382.922 207.661 382.953 207.468 382.981C207.275 383.008 207.107 383.032 206.965 383.052C206.646 383.095 206.36 383.166 206.107 383.265C205.855 383.363 205.656 383.501 205.51 383.679C205.364 383.852 205.291 384.077 205.291 384.353C205.291 384.748 205.435 385.045 205.723 385.247C206.011 385.448 206.378 385.548 206.823 385.548ZM217.756 377.852V379.508H212.532V377.852H217.756ZM213.822 375.674H215.963V384.205C215.963 384.493 216.007 384.714 216.094 384.868C216.184 385.018 216.303 385.12 216.449 385.176C216.594 385.231 216.756 385.258 216.934 385.258C217.068 385.258 217.19 385.248 217.3 385.229C217.415 385.209 217.502 385.191 217.561 385.176L217.922 386.85C217.807 386.889 217.644 386.933 217.431 386.98C217.222 387.027 216.965 387.055 216.662 387.063C216.125 387.078 215.642 386.998 215.212 386.82C214.782 386.639 214.441 386.359 214.189 385.98C213.94 385.601 213.818 385.128 213.822 384.56V375.674ZM223.472 387.116C222.561 387.116 221.774 386.927 221.112 386.548C220.453 386.165 219.946 385.625 219.591 384.927C219.236 384.225 219.059 383.399 219.059 382.448C219.059 381.514 219.236 380.693 219.591 379.987C219.95 379.277 220.451 378.725 221.094 378.331C221.737 377.932 222.492 377.733 223.36 377.733C223.92 377.733 224.448 377.824 224.945 378.005C225.446 378.183 225.888 378.459 226.271 378.834C226.657 379.208 226.961 379.686 227.182 380.265C227.402 380.841 227.513 381.527 227.513 382.324V382.981H220.065V381.537H225.46C225.456 381.127 225.367 380.762 225.194 380.443C225.02 380.119 224.778 379.865 224.466 379.68C224.159 379.494 223.8 379.402 223.389 379.402C222.952 379.402 222.567 379.508 222.236 379.721C221.905 379.93 221.646 380.206 221.461 380.549C221.279 380.888 221.187 381.261 221.183 381.667V382.927C221.183 383.456 221.279 383.91 221.473 384.288C221.666 384.663 221.936 384.951 222.283 385.152C222.63 385.349 223.036 385.448 223.502 385.448C223.813 385.448 224.095 385.404 224.348 385.318C224.6 385.227 224.819 385.095 225.004 384.921C225.19 384.748 225.33 384.533 225.425 384.276L227.424 384.501C227.298 385.03 227.057 385.491 226.702 385.885C226.351 386.276 225.902 386.58 225.354 386.796C224.805 387.009 224.178 387.116 223.472 387.116ZM233.019 376.662V374.823H242.686V376.662H238.941V386.938H236.764V376.662H233.019ZM243.511 386.938V377.852H245.588V379.366H245.682C245.848 378.842 246.132 378.437 246.534 378.153C246.94 377.865 247.404 377.721 247.924 377.721C248.043 377.721 248.175 377.727 248.321 377.739C248.471 377.747 248.595 377.761 248.693 377.781V379.751C248.603 379.719 248.459 379.691 248.262 379.668C248.068 379.64 247.881 379.626 247.7 379.626C247.309 379.626 246.958 379.711 246.647 379.881C246.339 380.046 246.096 380.277 245.919 380.573C245.741 380.869 245.653 381.21 245.653 381.596V386.938H243.511ZM252.568 387.122C251.993 387.122 251.474 387.019 251.013 386.814C250.555 386.605 250.192 386.298 249.924 385.891C249.66 385.485 249.528 384.984 249.528 384.389C249.528 383.876 249.622 383.452 249.812 383.117C250.001 382.782 250.259 382.513 250.587 382.312C250.914 382.111 251.283 381.959 251.693 381.857C252.107 381.75 252.535 381.673 252.977 381.626C253.509 381.571 253.941 381.521 254.272 381.478C254.604 381.431 254.844 381.36 254.994 381.265C255.148 381.166 255.225 381.015 255.225 380.81V380.774C255.225 380.328 255.093 379.983 254.828 379.739C254.564 379.494 254.183 379.372 253.687 379.372C253.162 379.372 252.746 379.486 252.438 379.715C252.135 379.944 251.93 380.214 251.823 380.526L249.823 380.242C249.981 379.689 250.241 379.228 250.604 378.857C250.967 378.483 251.411 378.203 251.935 378.017C252.46 377.828 253.04 377.733 253.675 377.733C254.112 377.733 254.548 377.785 254.982 377.887C255.416 377.99 255.812 378.159 256.171 378.396C256.53 378.629 256.818 378.946 257.035 379.348C257.256 379.751 257.366 380.253 257.366 380.857V386.938H255.308V385.69H255.237C255.106 385.943 254.923 386.179 254.686 386.4C254.454 386.617 254.16 386.793 253.805 386.927C253.454 387.057 253.042 387.122 252.568 387.122ZM253.125 385.548C253.554 385.548 253.927 385.463 254.243 385.294C254.558 385.12 254.801 384.892 254.97 384.608C255.144 384.324 255.231 384.014 255.231 383.679V382.608C255.164 382.663 255.049 382.714 254.887 382.762C254.73 382.809 254.552 382.851 254.355 382.886C254.158 382.922 253.963 382.953 253.769 382.981C253.576 383.008 253.408 383.032 253.267 383.052C252.947 383.095 252.661 383.166 252.409 383.265C252.156 383.363 251.957 383.501 251.811 383.679C251.665 383.852 251.592 384.077 251.592 384.353C251.592 384.748 251.736 385.045 252.024 385.247C252.312 385.448 252.679 385.548 253.125 385.548ZM261.661 381.614V386.938H259.52V377.852H261.567V379.396H261.673C261.882 378.887 262.215 378.483 262.673 378.183C263.134 377.883 263.704 377.733 264.383 377.733C265.01 377.733 265.556 377.867 266.021 378.136C266.491 378.404 266.853 378.792 267.11 379.301C267.37 379.81 267.498 380.427 267.494 381.153V386.938H265.353V381.484C265.353 380.877 265.195 380.401 264.88 380.058C264.568 379.715 264.136 379.544 263.584 379.544C263.209 379.544 262.876 379.626 262.584 379.792C262.296 379.954 262.069 380.188 261.904 380.496C261.742 380.804 261.661 381.176 261.661 381.614ZM276.853 380.253L274.901 380.466C274.846 380.269 274.749 380.084 274.611 379.91C274.477 379.737 274.296 379.597 274.067 379.49C273.838 379.384 273.558 379.331 273.227 379.331C272.781 379.331 272.407 379.427 272.103 379.62C271.803 379.814 271.655 380.064 271.659 380.372C271.655 380.636 271.752 380.851 271.949 381.017C272.15 381.182 272.482 381.318 272.943 381.425L274.493 381.756C275.353 381.941 275.992 382.235 276.41 382.638C276.832 383.04 277.045 383.566 277.049 384.217C277.045 384.789 276.877 385.294 276.546 385.732C276.218 386.165 275.763 386.505 275.179 386.749C274.596 386.994 273.925 387.116 273.168 387.116C272.056 387.116 271.16 386.883 270.482 386.418C269.804 385.949 269.399 385.296 269.269 384.46L271.358 384.259C271.452 384.669 271.653 384.978 271.961 385.187C272.269 385.396 272.669 385.501 273.162 385.501C273.671 385.501 274.079 385.396 274.386 385.187C274.698 384.978 274.854 384.72 274.854 384.412C274.854 384.152 274.753 383.937 274.552 383.768C274.355 383.598 274.047 383.468 273.629 383.377L272.079 383.052C271.208 382.87 270.563 382.565 270.145 382.135C269.727 381.701 269.52 381.153 269.524 380.49C269.52 379.93 269.671 379.445 269.979 379.035C270.291 378.621 270.723 378.301 271.275 378.076C271.831 377.848 272.472 377.733 273.197 377.733C274.262 377.733 275.1 377.96 275.712 378.414C276.327 378.867 276.708 379.48 276.853 380.253ZM280.956 374.823V386.938H278.815V374.823H280.956ZM285.773 387.122C285.197 387.122 284.679 387.019 284.217 386.814C283.76 386.605 283.397 386.298 283.129 385.891C282.865 385.485 282.732 384.984 282.732 384.389C282.732 383.876 282.827 383.452 283.016 383.117C283.206 382.782 283.464 382.513 283.791 382.312C284.119 382.111 284.487 381.959 284.898 381.857C285.312 381.75 285.74 381.673 286.181 381.626C286.714 381.571 287.146 381.521 287.477 381.478C287.808 381.431 288.049 381.36 288.199 381.265C288.353 381.166 288.429 381.015 288.429 380.81V380.774C288.429 380.328 288.297 379.983 288.033 379.739C287.769 379.494 287.388 379.372 286.891 379.372C286.367 379.372 285.951 379.486 285.643 379.715C285.339 379.944 285.134 380.214 285.028 380.526L283.028 380.242C283.186 379.689 283.446 379.228 283.809 378.857C284.172 378.483 284.616 378.203 285.14 378.017C285.665 377.828 286.245 377.733 286.88 377.733C287.317 377.733 287.753 377.785 288.187 377.887C288.621 377.99 289.017 378.159 289.376 378.396C289.735 378.629 290.023 378.946 290.24 379.348C290.461 379.751 290.571 380.253 290.571 380.857V386.938H288.512V385.69H288.441C288.311 385.943 288.128 386.179 287.891 386.4C287.658 386.617 287.365 386.793 287.01 386.927C286.659 387.057 286.246 387.122 285.773 387.122ZM286.329 385.548C286.759 385.548 287.132 385.463 287.447 385.294C287.763 385.12 288.006 384.892 288.175 384.608C288.349 384.324 288.435 384.014 288.435 383.679V382.608C288.368 382.663 288.254 382.714 288.092 382.762C287.935 382.809 287.757 382.851 287.56 382.886C287.363 382.922 287.167 382.953 286.974 382.981C286.781 383.008 286.613 383.032 286.471 383.052C286.152 383.095 285.866 383.166 285.613 383.265C285.361 383.363 285.162 383.501 285.016 383.679C284.87 383.852 284.797 384.077 284.797 384.353C284.797 384.748 284.941 385.045 285.229 385.247C285.517 385.448 285.884 385.548 286.329 385.548ZM297.262 377.852V379.508H292.038V377.852H297.262ZM293.328 375.674H295.469V384.205C295.469 384.493 295.513 384.714 295.6 384.868C295.69 385.018 295.809 385.12 295.955 385.176C296.101 385.231 296.262 385.258 296.44 385.258C296.574 385.258 296.696 385.248 296.806 385.229C296.921 385.209 297.008 385.191 297.067 385.176L297.428 386.85C297.313 386.889 297.15 386.933 296.937 386.98C296.728 387.027 296.471 387.055 296.168 387.063C295.631 387.078 295.148 386.998 294.718 386.82C294.288 386.639 293.947 386.359 293.695 385.98C293.446 385.601 293.324 385.128 293.328 384.56V375.674ZM299.053 386.938V377.852H301.195V386.938H299.053ZM300.13 376.562C299.791 376.562 299.499 376.449 299.254 376.225C299.01 375.996 298.887 375.722 298.887 375.402C298.887 375.079 299.01 374.805 299.254 374.58C299.499 374.351 299.791 374.237 300.13 374.237C300.473 374.237 300.765 374.351 301.005 374.58C301.25 374.805 301.372 375.079 301.372 375.402C301.372 375.722 301.25 375.996 301.005 376.225C300.765 376.449 300.473 376.562 300.13 376.562ZM307.361 387.116C306.473 387.116 305.704 386.921 305.053 386.53C304.403 386.14 303.898 385.594 303.539 384.892C303.184 384.19 303.006 383.369 303.006 382.431C303.006 381.492 303.184 380.67 303.539 379.964C303.898 379.258 304.403 378.709 305.053 378.319C305.704 377.928 306.473 377.733 307.361 377.733C308.248 377.733 309.017 377.928 309.668 378.319C310.319 378.709 310.821 379.258 311.176 379.964C311.535 380.67 311.715 381.492 311.715 382.431C311.715 383.369 311.535 384.19 311.176 384.892C310.821 385.594 310.319 386.14 309.668 386.53C309.017 386.921 308.248 387.116 307.361 387.116ZM307.372 385.4C307.854 385.4 308.256 385.268 308.579 385.004C308.903 384.736 309.143 384.377 309.301 383.927C309.463 383.478 309.544 382.977 309.544 382.425C309.544 381.868 309.463 381.366 309.301 380.916C309.143 380.462 308.903 380.102 308.579 379.833C308.256 379.565 307.854 379.431 307.372 379.431C306.879 379.431 306.469 379.565 306.142 379.833C305.818 380.102 305.576 380.462 305.414 380.916C305.256 381.366 305.178 381.868 305.178 382.425C305.178 382.977 305.256 383.478 305.414 383.927C305.576 384.377 305.818 384.736 306.142 385.004C306.469 385.268 306.879 385.4 307.372 385.4ZM315.674 381.614V386.938H313.532V377.852H315.579V379.396H315.686C315.895 378.887 316.228 378.483 316.686 378.183C317.147 377.883 317.717 377.733 318.395 377.733C319.022 377.733 319.569 377.867 320.034 378.136C320.503 378.404 320.866 378.792 321.123 379.301C321.383 379.81 321.511 380.427 321.507 381.153V386.938H319.366V381.484C319.366 380.877 319.208 380.401 318.892 380.058C318.581 379.715 318.149 379.544 317.597 379.544C317.222 379.544 316.889 379.626 316.597 379.792C316.309 379.954 316.082 380.188 315.917 380.496C315.755 380.804 315.674 381.176 315.674 381.614Z" fill="#1C1C45"/>
<rect x="49.4165" y="321.381" width="481.167" height="119.114" rx="9.57912" stroke="#E6E8EE" stroke-width="0.832967" shape-rendering="crispEdges"/>
</g>
<rect x="49" y="480.912" width="225" height="56" rx="4" fill="#FF9700"/>
<path d="M73.3665 515.912V502.821H77.7898C78.8168 502.821 79.6563 503.007 80.3082 503.377C80.9645 503.744 81.4503 504.24 81.7656 504.867C82.081 505.493 82.2386 506.192 82.2386 506.963C82.2386 507.735 82.081 508.436 81.7656 509.066C81.4545 509.697 80.973 510.2 80.321 510.575C79.669 510.945 78.8338 511.131 77.8153 511.131H74.6449V509.725H77.7642C78.4673 509.725 79.032 509.603 79.4581 509.36C79.8842 509.117 80.1932 508.789 80.3849 508.376C80.581 507.958 80.679 507.487 80.679 506.963C80.679 506.439 80.581 505.97 80.3849 505.557C80.1932 505.144 79.8821 504.82 79.4517 504.585C79.0213 504.347 78.4503 504.227 77.7386 504.227H74.9517V515.912H73.3665ZM84.5877 515.912V506.094H86.0451V507.577H86.1474C86.3263 507.091 86.6502 506.697 87.119 506.394C87.5877 506.092 88.1161 505.941 88.7042 505.941C88.815 505.941 88.9535 505.943 89.1197 505.947C89.2859 505.951 89.4116 505.958 89.4968 505.966V507.5C89.4457 507.487 89.3285 507.468 89.1452 507.443C88.9663 507.413 88.7766 507.398 88.5763 507.398C88.0991 507.398 87.6729 507.498 87.2979 507.698C86.9272 507.894 86.6332 508.167 86.4158 508.517C86.2028 508.862 86.0962 509.256 86.0962 509.699V515.912H84.5877ZM94.9748 516.117C94.0884 516.117 93.3107 515.906 92.6417 515.484C91.9769 515.062 91.457 514.472 91.082 513.713C90.7113 512.955 90.5259 512.068 90.5259 511.054C90.5259 510.031 90.7113 509.139 91.082 508.376C91.457 507.613 91.9769 507.021 92.6417 506.599C93.3107 506.177 94.0884 505.966 94.9748 505.966C95.8612 505.966 96.6367 506.177 97.3015 506.599C97.9705 507.021 98.4904 507.613 98.8612 508.376C99.2362 509.139 99.4237 510.031 99.4237 511.054C99.4237 512.068 99.2362 512.955 98.8612 513.713C98.4904 514.472 97.9705 515.062 97.3015 515.484C96.6367 515.906 95.8612 516.117 94.9748 516.117ZM94.9748 514.762C95.6481 514.762 96.2021 514.589 96.6367 514.244C97.0714 513.899 97.3931 513.445 97.6019 512.882C97.8107 512.32 97.9151 511.71 97.9151 511.054C97.9151 510.398 97.8107 509.786 97.6019 509.22C97.3931 508.653 97.0714 508.195 96.6367 507.845C96.2021 507.496 95.6481 507.321 94.9748 507.321C94.3015 507.321 93.7475 507.496 93.3129 507.845C92.8782 508.195 92.5565 508.653 92.3477 509.22C92.1388 509.786 92.0344 510.398 92.0344 511.054C92.0344 511.71 92.1388 512.32 92.3477 512.882C92.5565 513.445 92.8782 513.899 93.3129 514.244C93.7475 514.589 94.3015 514.762 94.9748 514.762ZM105.715 516.117C104.795 516.117 104.002 515.899 103.337 515.465C102.672 515.03 102.161 514.431 101.803 513.669C101.445 512.906 101.266 512.034 101.266 511.054C101.266 510.057 101.449 509.177 101.816 508.414C102.187 507.647 102.702 507.048 103.363 506.618C104.028 506.183 104.803 505.966 105.689 505.966C106.38 505.966 107.002 506.094 107.556 506.35C108.11 506.605 108.564 506.963 108.917 507.423C109.271 507.884 109.491 508.421 109.576 509.034H108.067C107.952 508.587 107.697 508.191 107.3 507.845C106.908 507.496 106.38 507.321 105.715 507.321C105.127 507.321 104.611 507.475 104.168 507.781C103.729 508.084 103.386 508.512 103.139 509.066C102.896 509.616 102.775 510.262 102.775 511.003C102.775 511.762 102.894 512.422 103.133 512.985C103.376 513.547 103.716 513.984 104.155 514.295C104.599 514.606 105.118 514.762 105.715 514.762C106.107 514.762 106.463 514.693 106.782 514.557C107.102 514.421 107.373 514.225 107.594 513.969C107.816 513.713 107.974 513.406 108.067 513.048H109.576C109.491 513.628 109.28 514.15 108.943 514.615C108.611 515.075 108.17 515.441 107.62 515.714C107.074 515.982 106.439 516.117 105.715 516.117ZM115.898 516.117C114.952 516.117 114.135 515.908 113.449 515.49C112.768 515.068 112.241 514.48 111.871 513.726C111.504 512.968 111.321 512.085 111.321 511.08C111.321 510.074 111.504 509.188 111.871 508.421C112.241 507.649 112.757 507.048 113.417 506.618C114.082 506.183 114.858 505.966 115.744 505.966C116.256 505.966 116.76 506.051 117.259 506.222C117.758 506.392 118.211 506.669 118.621 507.053C119.03 507.432 119.356 507.935 119.599 508.561C119.841 509.188 119.963 509.959 119.963 510.875V511.514H112.395V510.21H118.429C118.429 509.656 118.318 509.162 118.096 508.727C117.879 508.293 117.568 507.95 117.163 507.698C116.763 507.447 116.29 507.321 115.744 507.321C115.143 507.321 114.623 507.47 114.184 507.769C113.75 508.063 113.415 508.446 113.181 508.919C112.947 509.392 112.829 509.899 112.829 510.441V511.31C112.829 512.051 112.957 512.68 113.213 513.195C113.473 513.707 113.833 514.097 114.293 514.365C114.753 514.629 115.288 514.762 115.898 514.762C116.294 514.762 116.652 514.706 116.971 514.595C117.295 514.48 117.574 514.31 117.809 514.084C118.043 513.854 118.224 513.568 118.352 513.227L119.809 513.637C119.656 514.131 119.398 514.566 119.036 514.941C118.674 515.311 118.226 515.601 117.694 515.81C117.161 516.014 116.562 516.117 115.898 516.117ZM126.374 516.117C125.428 516.117 124.612 515.908 123.926 515.49C123.244 515.068 122.718 514.48 122.347 513.726C121.981 512.968 121.797 512.085 121.797 511.08C121.797 510.074 121.981 509.188 122.347 508.421C122.718 507.649 123.233 507.048 123.894 506.618C124.559 506.183 125.334 505.966 126.221 505.966C126.732 505.966 127.237 506.051 127.736 506.222C128.234 506.392 128.688 506.669 129.097 507.053C129.506 507.432 129.832 507.935 130.075 508.561C130.318 509.188 130.439 509.959 130.439 510.875V511.514H122.871V510.21H128.905C128.905 509.656 128.795 509.162 128.573 508.727C128.356 508.293 128.045 507.95 127.64 507.698C127.239 507.447 126.766 507.321 126.221 507.321C125.62 507.321 125.1 507.47 124.661 507.769C124.226 508.063 123.892 508.446 123.657 508.919C123.423 509.392 123.306 509.899 123.306 510.441V511.31C123.306 512.051 123.434 512.68 123.689 513.195C123.949 513.707 124.309 514.097 124.77 514.365C125.23 514.629 125.765 514.762 126.374 514.762C126.77 514.762 127.128 514.706 127.448 514.595C127.772 514.48 128.051 514.31 128.285 514.084C128.52 513.854 128.701 513.568 128.829 513.227L130.286 513.637C130.133 514.131 129.875 514.566 129.513 514.941C129.15 515.311 128.703 515.601 128.17 515.81C127.638 516.014 127.039 516.117 126.374 516.117ZM136.442 516.117C135.623 516.117 134.901 515.91 134.275 515.497C133.648 515.079 133.158 514.491 132.805 513.732C132.451 512.97 132.274 512.068 132.274 511.029C132.274 509.997 132.451 509.102 132.805 508.344C133.158 507.585 133.65 506.999 134.281 506.586C134.912 506.173 135.64 505.966 136.467 505.966C137.106 505.966 137.611 506.073 137.982 506.286C138.357 506.494 138.643 506.733 138.839 507.002C139.039 507.266 139.194 507.483 139.305 507.654H139.433V502.821H140.942V515.912H139.484V514.404H139.305C139.194 514.583 139.037 514.808 138.832 515.081C138.628 515.35 138.336 515.59 137.956 515.803C137.577 516.012 137.072 516.117 136.442 516.117ZM136.646 514.762C137.251 514.762 137.763 514.604 138.18 514.289C138.598 513.969 138.915 513.528 139.133 512.965C139.35 512.399 139.459 511.744 139.459 511.003C139.459 510.27 139.352 509.629 139.139 509.079C138.926 508.525 138.611 508.095 138.193 507.788C137.775 507.477 137.26 507.321 136.646 507.321C136.007 507.321 135.474 507.485 135.048 507.813C134.626 508.137 134.309 508.578 134.096 509.137C133.887 509.691 133.782 510.313 133.782 511.003C133.782 511.702 133.889 512.337 134.102 512.908C134.319 513.475 134.639 513.926 135.061 514.263C135.487 514.595 136.015 514.762 136.646 514.762ZM153.246 506.094V507.372H148.158V506.094H153.246ZM149.641 503.742H151.15V513.1C151.15 513.526 151.211 513.845 151.335 514.058C151.463 514.267 151.625 514.408 151.821 514.48C152.021 514.548 152.232 514.583 152.454 514.583C152.62 514.583 152.756 514.574 152.863 514.557C152.969 514.536 153.055 514.519 153.118 514.506L153.425 515.861C153.323 515.899 153.18 515.938 152.997 515.976C152.814 516.019 152.581 516.04 152.3 516.04C151.874 516.04 151.456 515.948 151.047 515.765C150.643 515.582 150.306 515.303 150.037 514.928C149.773 514.553 149.641 514.08 149.641 513.509V503.742ZM159.399 516.117C158.512 516.117 157.735 515.906 157.066 515.484C156.401 515.062 155.881 514.472 155.506 513.713C155.135 512.955 154.95 512.068 154.95 511.054C154.95 510.031 155.135 509.139 155.506 508.376C155.881 507.613 156.401 507.021 157.066 506.599C157.735 506.177 158.512 505.966 159.399 505.966C160.285 505.966 161.061 506.177 161.725 506.599C162.394 507.021 162.914 507.613 163.285 508.376C163.66 509.139 163.847 510.031 163.847 511.054C163.847 512.068 163.66 512.955 163.285 513.713C162.914 514.472 162.394 515.062 161.725 515.484C161.061 515.906 160.285 516.117 159.399 516.117ZM159.399 514.762C160.072 514.762 160.626 514.589 161.061 514.244C161.495 513.899 161.817 513.445 162.026 512.882C162.235 512.32 162.339 511.71 162.339 511.054C162.339 510.398 162.235 509.786 162.026 509.22C161.817 508.653 161.495 508.195 161.061 507.845C160.626 507.496 160.072 507.321 159.399 507.321C158.725 507.321 158.171 507.496 157.737 507.845C157.302 508.195 156.98 508.653 156.771 509.22C156.563 509.786 156.458 510.398 156.458 511.054C156.458 511.71 156.563 512.32 156.771 512.882C156.98 513.445 157.302 513.899 157.737 514.244C158.171 514.589 158.725 514.762 159.399 514.762ZM181.951 506.912H180.366C180.272 506.456 180.108 506.056 179.874 505.71C179.644 505.365 179.363 505.075 179.03 504.841C178.702 504.602 178.338 504.423 177.937 504.304C177.537 504.185 177.119 504.125 176.684 504.125C175.892 504.125 175.174 504.325 174.53 504.726C173.891 505.127 173.382 505.717 173.002 506.497C172.627 507.276 172.44 508.233 172.44 509.367C172.44 510.5 172.627 511.457 173.002 512.237C173.382 513.017 173.891 513.607 174.53 514.007C175.174 514.408 175.892 514.608 176.684 514.608C177.119 514.608 177.537 514.548 177.937 514.429C178.338 514.31 178.702 514.133 179.03 513.899C179.363 513.66 179.644 513.368 179.874 513.023C180.108 512.673 180.272 512.273 180.366 511.821H181.951C181.832 512.49 181.615 513.089 181.299 513.617C180.984 514.146 180.592 514.595 180.123 514.966C179.654 515.333 179.128 515.612 178.544 515.803C177.965 515.995 177.345 516.091 176.684 516.091C175.568 516.091 174.575 515.818 173.706 515.273C172.836 514.727 172.152 513.952 171.654 512.946C171.155 511.941 170.906 510.747 170.906 509.367C170.906 507.986 171.155 506.793 171.654 505.787C172.152 504.781 172.836 504.006 173.706 503.46C174.575 502.915 175.568 502.642 176.684 502.642C177.345 502.642 177.965 502.738 178.544 502.93C179.128 503.122 179.654 503.403 180.123 503.774C180.592 504.14 180.984 504.588 181.299 505.116C181.615 505.64 181.832 506.239 181.951 506.912ZM185.817 510.006V515.912H184.308V502.821H185.817V507.628H185.945C186.175 507.121 186.52 506.718 186.98 506.42C187.445 506.117 188.063 505.966 188.834 505.966C189.503 505.966 190.089 506.1 190.592 506.369C191.095 506.633 191.485 507.04 191.762 507.59C192.043 508.135 192.183 508.83 192.183 509.673V515.912H190.675V509.776C190.675 508.996 190.472 508.393 190.068 507.967C189.667 507.536 189.111 507.321 188.399 507.321C187.905 507.321 187.462 507.426 187.07 507.634C186.682 507.843 186.375 508.148 186.149 508.548C185.928 508.949 185.817 509.435 185.817 510.006ZM199.06 516.117C198.114 516.117 197.298 515.908 196.612 515.49C195.93 515.068 195.403 514.48 195.033 513.726C194.666 512.968 194.483 512.085 194.483 511.08C194.483 510.074 194.666 509.188 195.033 508.421C195.403 507.649 195.919 507.048 196.58 506.618C197.244 506.183 198.02 505.966 198.906 505.966C199.418 505.966 199.923 506.051 200.421 506.222C200.92 506.392 201.374 506.669 201.783 507.053C202.192 507.432 202.518 507.935 202.761 508.561C203.004 509.188 203.125 509.959 203.125 510.875V511.514H195.557V510.21H201.591C201.591 509.656 201.48 509.162 201.259 508.727C201.041 508.293 200.73 507.95 200.325 507.698C199.925 507.447 199.452 507.321 198.906 507.321C198.305 507.321 197.786 507.47 197.347 507.769C196.912 508.063 196.577 508.446 196.343 508.919C196.109 509.392 195.991 509.899 195.991 510.441V511.31C195.991 512.051 196.119 512.68 196.375 513.195C196.635 513.707 196.995 514.097 197.455 514.365C197.915 514.629 198.45 514.762 199.06 514.762C199.456 514.762 199.814 514.706 200.134 514.595C200.457 514.48 200.737 514.31 200.971 514.084C201.205 513.854 201.386 513.568 201.514 513.227L202.972 513.637C202.818 514.131 202.56 514.566 202.198 514.941C201.836 515.311 201.388 515.601 200.856 515.81C200.323 516.014 199.724 516.117 199.06 516.117ZM209.408 516.117C208.488 516.117 207.695 515.899 207.031 515.465C206.366 515.03 205.854 514.431 205.496 513.669C205.138 512.906 204.96 512.034 204.96 511.054C204.96 510.057 205.143 509.177 205.509 508.414C205.88 507.647 206.396 507.048 207.056 506.618C207.721 506.183 208.496 505.966 209.383 505.966C210.073 505.966 210.695 506.094 211.249 506.35C211.803 506.605 212.257 506.963 212.611 507.423C212.964 507.884 213.184 508.421 213.269 509.034H211.761C211.646 508.587 211.39 508.191 210.994 507.845C210.602 507.496 210.073 507.321 209.408 507.321C208.82 507.321 208.305 507.475 207.862 507.781C207.423 508.084 207.08 508.512 206.832 509.066C206.589 509.616 206.468 510.262 206.468 511.003C206.468 511.762 206.587 512.422 206.826 512.985C207.069 513.547 207.41 513.984 207.849 514.295C208.292 514.606 208.812 514.762 209.408 514.762C209.8 514.762 210.156 514.693 210.476 514.557C210.795 514.421 211.066 514.225 211.288 513.969C211.509 513.713 211.667 513.406 211.761 513.048H213.269C213.184 513.628 212.973 514.15 212.636 514.615C212.304 515.075 211.863 515.441 211.313 515.714C210.768 515.982 210.133 516.117 209.408 516.117ZM216.881 512.333L216.855 510.466H217.162L221.457 506.094H223.324L218.747 510.722H218.619L216.881 512.333ZM215.474 515.912V502.821H216.983V515.912H215.474ZM221.713 515.912L217.878 511.054L218.952 510.006L223.631 515.912H221.713ZM228.85 516.117C227.963 516.117 227.186 515.906 226.517 515.484C225.852 515.062 225.332 514.472 224.957 513.713C224.586 512.955 224.401 512.068 224.401 511.054C224.401 510.031 224.586 509.139 224.957 508.376C225.332 507.613 225.852 507.021 226.517 506.599C227.186 506.177 227.963 505.966 228.85 505.966C229.736 505.966 230.512 506.177 231.176 506.599C231.846 507.021 232.365 507.613 232.736 508.376C233.111 509.139 233.299 510.031 233.299 511.054C233.299 512.068 233.111 512.955 232.736 513.713C232.365 514.472 231.846 515.062 231.176 515.484C230.512 515.906 229.736 516.117 228.85 516.117ZM228.85 514.762C229.523 514.762 230.077 514.589 230.512 514.244C230.946 513.899 231.268 513.445 231.477 512.882C231.686 512.32 231.79 511.71 231.79 511.054C231.79 510.398 231.686 509.786 231.477 509.22C231.268 508.653 230.946 508.195 230.512 507.845C230.077 507.496 229.523 507.321 228.85 507.321C228.176 507.321 227.623 507.496 227.188 507.845C226.753 508.195 226.431 508.653 226.223 509.22C226.014 509.786 225.909 510.398 225.909 511.054C225.909 511.71 226.014 512.32 226.223 512.882C226.431 513.445 226.753 513.899 227.188 514.244C227.623 514.589 228.176 514.762 228.85 514.762ZM241.789 511.898V506.094H243.297V515.912H241.789V514.25H241.687C241.456 514.749 241.099 515.173 240.613 515.522C240.127 515.867 239.513 516.04 238.772 516.04C238.158 516.04 237.613 515.906 237.135 515.637C236.658 515.365 236.283 514.955 236.01 514.41C235.738 513.86 235.601 513.168 235.601 512.333V506.094H237.11V512.23C237.11 512.946 237.31 513.517 237.711 513.943C238.116 514.369 238.631 514.583 239.258 514.583C239.633 514.583 240.014 514.487 240.402 514.295C240.794 514.103 241.122 513.809 241.386 513.413C241.655 513.017 241.789 512.512 241.789 511.898ZM250.33 506.094V507.372H245.242V506.094H250.33ZM246.725 503.742H248.234V513.1C248.234 513.526 248.295 513.845 248.419 514.058C248.547 514.267 248.709 514.408 248.905 514.48C249.105 514.548 249.316 514.583 249.538 514.583C249.704 514.583 249.84 514.574 249.947 514.557C250.053 514.536 250.138 514.519 250.202 514.506L250.509 515.861C250.407 515.899 250.264 515.938 250.081 515.976C249.898 516.019 249.665 516.04 249.384 516.04C248.958 516.04 248.54 515.948 248.131 515.765C247.727 515.582 247.39 515.303 247.121 514.928C246.857 514.553 246.725 514.08 246.725 513.509V503.742Z" fill="#1C1C45"/>
<defs>
<filter id="filter0_d_849_4044" x="0.0746994" y="0.53735" width="579.851" height="593.851" filterUnits="userSpaceOnUse" color-interpolation-filters="sRGB">
<feFlood flood-opacity="0" result="BackgroundImageFix"/>
<feColorMatrix in="SourceAlpha" type="matrix" values="0 0 0 0 0 0 0 0 0 0 0 0 0 0 0 0 0 0 127 0" result="hardAlpha"/>
<feOffset dy="8.46265"/>
<feGaussianBlur stdDeviation="8.46265"/>
<feComposite in2="hardAlpha" operator="out"/>
<feColorMatrix type="matrix" values="0 0 0 0 0.670588 0 0 0 0 0.745098 0 0 0 0 0.819608 0 0 0 0.4 0"/>
<feBlend mode="normal" in2="BackgroundImageFix" result="effect1_dropShadow_849_4044"/>
<feBlend mode="normal" in="SourceGraphic" in2="effect1_dropShadow_849_4044" result="shape"/>
</filter>
<filter id="filter1_d_849_4044" x="35.6725" y="34.4242" width="508.655" height="146.602" filterUnits="userSpaceOnUse" color-interpolation-filters="sRGB">
<feFlood flood-opacity="0" result="BackgroundImageFix"/>
<feColorMatrix in="SourceAlpha" type="matrix" values="0 0 0 0 0 0 0 0 0 0 0 0 0 0 0 0 0 0 127 0" result="hardAlpha"/>
<feOffset dy="6.66374"/>
<feGaussianBlur stdDeviation="6.66374"/>
<feComposite in2="hardAlpha" operator="out"/>
<feColorMatrix type="matrix" values="0 0 0 0 0.670588 0 0 0 0 0.745098 0 0 0 0 0.819608 0 0 0 0.4 0"/>
<feBlend mode="normal" in2="BackgroundImageFix" result="effect1_dropShadow_849_4044"/>
<feBlend mode="normal" in="SourceGraphic" in2="effect1_dropShadow_849_4044" result="shape"/>
</filter>
<filter id="filter2_d_849_4044" x="35.6725" y="174.363" width="508.655" height="146.602" filterUnits="userSpaceOnUse" color-interpolation-filters="sRGB">
<feFlood flood-opacity="0" result="BackgroundImageFix"/>
<feColorMatrix in="SourceAlpha" type="matrix" values="0 0 0 0 0 0 0 0 0 0 0 0 0 0 0 0 0 0 127 0" result="hardAlpha"/>
<feOffset dy="6.66374"/>
<feGaussianBlur stdDeviation="6.66374"/>
<feComposite in2="hardAlpha" operator="out"/>
<feColorMatrix type="matrix" values="0 0 0 0 0.670588 0 0 0 0 0.745098 0 0 0 0 0.819608 0 0 0 0.4 0"/>
<feBlend mode="normal" in2="BackgroundImageFix" result="effect1_dropShadow_849_4044"/>
<feBlend mode="normal" in="SourceGraphic" in2="effect1_dropShadow_849_4044" result="shape"/>
</filter>
<filter id="filter3_d_849_4044" x="35.6725" y="314.301" width="508.655" height="146.602" filterUnits="userSpaceOnUse" color-interpolation-filters="sRGB">
<feFlood flood-opacity="0" result="BackgroundImageFix"/>
<feColorMatrix in="SourceAlpha" type="matrix" values="0 0 0 0 0 0 0 0 0 0 0 0 0 0 0 0 0 0 127 0" result="hardAlpha"/>
<feOffset dy="6.66374"/>
<feGaussianBlur stdDeviation="6.66374"/>
<feComposite in2="hardAlpha" operator="out"/>
<feColorMatrix type="matrix" values="0 0 0 0 0.670588 0 0 0 0 0.745098 0 0 0 0 0.819608 0 0 0 0.4 0"/>
<feBlend mode="normal" in2="BackgroundImageFix" result="effect1_dropShadow_849_4044"/>
<feBlend mode="normal" in="SourceGraphic" in2="effect1_dropShadow_849_4044" result="shape"/>
</filter>
</defs>
</svg>
