<svg width="580" height="474" viewBox="0 0 580 474" fill="none" xmlns="http://www.w3.org/2000/svg">
<g filter="url(#filter0_d_849_3997)">
<rect x="17" y="9" width="545.841" height="439" rx="12" fill="white"/>
<rect x="17.5289" y="9.52892" width="544.783" height="437.942" rx="11.4711" stroke="#E6E8EE" stroke-width="1.05783"/>
</g>
<rect x="58.2549" y="59.7759" width="463.33" height="15.8675" rx="7.93373" fill="#E6E8EE"/>
<rect x="58.2549" y="96.8" width="281.383" height="12.694" rx="6.34699" fill="#E6E8EE"/>
<rect x="58.2549" y="122.188" width="216.855" height="12.694" rx="6.34699" fill="#E6E8EE"/>
<rect x="59.3125" y="177.195" width="461.214" height="59.2386" rx="4.23133" fill="#E6E8EE"/>
<g clip-path="url(#clip0_849_3997)">
<path d="M100.602 203.046H102.089C103.319 203.046 104.32 202.045 104.32 200.814V196.352C104.32 195.121 103.319 194.12 102.089 194.12H100.602C99.3712 194.12 98.3702 195.121 98.3702 196.352V197.839H95.2671C94.96 196.974 94.1333 196.352 93.1637 196.352C92.194 196.352 91.3673 196.974 91.0602 197.839H87.9571V196.352C87.9571 195.121 86.9561 194.12 85.7258 194.12H84.2382C83.0078 194.12 82.0068 195.121 82.0068 196.352V200.814C82.0068 202.045 83.0078 203.046 84.2382 203.046H85.7258C86.9561 203.046 87.9571 202.045 87.9571 200.814V199.327H91.0602C91.2847 199.96 91.7869 200.462 92.4199 200.687V206.12C91.1895 206.12 90.1885 207.121 90.1885 208.351V209.839C90.1885 211.069 91.1895 212.07 92.4199 212.07V214.302H87.9571V212.814C87.9571 211.584 86.9561 210.583 85.7258 210.583H84.2382C83.0078 210.583 82.0068 211.584 82.0068 212.814V217.277C82.0068 218.507 83.0078 219.508 84.2382 219.508H85.7258C86.9561 219.508 87.9571 218.507 87.9571 217.277V215.789H98.3702V217.277C98.3702 218.507 99.3712 219.508 100.602 219.508H102.089C103.319 219.508 104.32 218.507 104.32 217.277V212.814C104.32 211.584 103.319 210.583 102.089 210.583H100.602C99.3712 210.583 98.3702 211.584 98.3702 212.814V214.302H93.9074V212.07C95.1378 212.07 96.1388 211.069 96.1388 209.839V208.351C96.1388 207.121 95.1378 206.12 93.9074 206.12V200.687C94.5404 200.462 95.0426 199.96 95.2671 199.327H98.3702V200.814C98.3702 202.045 99.3712 203.046 100.602 203.046ZM99.8577 196.352C99.8577 195.942 100.191 195.608 100.602 195.608H102.089C102.499 195.608 102.833 195.942 102.833 196.352V200.814C102.833 201.225 102.499 201.558 102.089 201.558H100.602C100.191 201.558 99.8577 201.225 99.8577 200.814V196.352ZM86.4696 200.814C86.4696 201.225 86.1359 201.558 85.7258 201.558H84.2382C83.8281 201.558 83.4944 201.225 83.4944 200.814V196.352C83.4944 195.942 83.8281 195.608 84.2382 195.608H85.7258C86.1359 195.608 86.4696 195.942 86.4696 196.352V200.814ZM86.4696 217.277C86.4696 217.687 86.1359 218.021 85.7258 218.021H84.2382C83.8281 218.021 83.4944 217.687 83.4944 217.277V212.814C83.4944 212.404 83.8281 212.07 84.2382 212.07H85.7258C86.1359 212.07 86.4696 212.404 86.4696 212.814V217.277ZM99.8577 212.814C99.8577 212.404 100.191 212.07 100.602 212.07H102.089C102.499 212.07 102.833 212.404 102.833 212.814V217.277C102.833 217.687 102.499 218.021 102.089 218.021H100.602C100.191 218.021 99.8577 217.687 99.8577 217.277V212.814ZM94.6512 208.351V209.839C94.6512 210.249 94.3176 210.583 93.9074 210.583H92.4199C92.0097 210.583 91.6761 210.249 91.6761 209.839V208.351C91.6761 207.941 92.0097 207.608 92.4199 207.608H93.9074C94.3176 207.608 94.6512 207.941 94.6512 208.351ZM93.1637 199.327C92.7535 199.327 92.4199 198.993 92.4199 198.583C92.4199 198.173 92.7535 197.839 93.1637 197.839C93.5738 197.839 93.9074 198.173 93.9074 198.583C93.9074 198.993 93.5738 199.327 93.1637 199.327Z" fill="#989EBB"/>
</g>
<path d="M120.041 213.12V200.811H127.47V202.133H121.532V206.293H127.086V207.615H121.532V211.798H127.566V213.12H120.041ZM131.383 207.567V213.12H129.965V203.888H131.335V205.331H131.455C131.671 204.862 132 204.485 132.441 204.201C132.882 203.912 133.451 203.768 134.148 203.768C134.773 203.768 135.32 203.896 135.789 204.153C136.257 204.405 136.622 204.79 136.883 205.307C137.143 205.82 137.273 206.469 137.273 207.254V213.12H135.855V207.35C135.855 206.625 135.666 206.06 135.29 205.655C134.913 205.247 134.396 205.042 133.739 205.042C133.286 205.042 132.882 205.141 132.525 205.337C132.172 205.533 131.894 205.82 131.69 206.196C131.485 206.573 131.383 207.03 131.383 207.567ZM143.88 203.888V205.09H139.096V203.888H143.88ZM140.49 201.677H141.909V210.476C141.909 210.876 141.967 211.177 142.083 211.377C142.203 211.574 142.355 211.706 142.54 211.774C142.728 211.838 142.926 211.87 143.135 211.87C143.291 211.87 143.419 211.862 143.52 211.846C143.62 211.826 143.7 211.81 143.76 211.798L144.048 213.072C143.952 213.108 143.818 213.144 143.646 213.18C143.473 213.221 143.255 213.241 142.991 213.241C142.59 213.241 142.197 213.154 141.813 212.982C141.432 212.81 141.115 212.547 140.863 212.195C140.614 211.842 140.49 211.397 140.49 210.86V201.677ZM149.785 213.313C148.896 213.313 148.128 213.116 147.483 212.724C146.842 212.327 146.347 211.774 145.999 211.065C145.654 210.352 145.482 209.522 145.482 208.576C145.482 207.631 145.654 206.797 145.999 206.076C146.347 205.351 146.832 204.786 147.453 204.381C148.078 203.973 148.808 203.768 149.641 203.768C150.122 203.768 150.597 203.848 151.066 204.009C151.534 204.169 151.961 204.429 152.346 204.79C152.73 205.147 153.037 205.619 153.265 206.208C153.494 206.797 153.608 207.523 153.608 208.384V208.985H146.492V207.759H152.165C152.165 207.238 152.061 206.773 151.853 206.365C151.649 205.956 151.356 205.633 150.975 205.397C150.599 205.161 150.154 205.042 149.641 205.042C149.076 205.042 148.587 205.183 148.175 205.463C147.766 205.74 147.451 206.1 147.231 206.545C147.011 206.99 146.9 207.467 146.9 207.975V208.793C146.9 209.49 147.021 210.081 147.261 210.566C147.505 211.047 147.844 211.413 148.277 211.666C148.709 211.914 149.212 212.038 149.785 212.038C150.158 212.038 150.495 211.986 150.795 211.882C151.1 211.774 151.362 211.614 151.582 211.401C151.803 211.185 151.973 210.917 152.093 210.596L153.464 210.981C153.319 211.445 153.077 211.854 152.736 212.207C152.396 212.555 151.975 212.828 151.474 213.024C150.973 213.217 150.41 213.313 149.785 213.313ZM155.766 213.12V203.888H157.136V205.283H157.232C157.401 204.826 157.705 204.455 158.146 204.171C158.587 203.886 159.083 203.744 159.636 203.744C159.741 203.744 159.871 203.746 160.027 203.75C160.183 203.754 160.302 203.76 160.382 203.768V205.211C160.334 205.199 160.223 205.181 160.051 205.157C159.883 205.129 159.705 205.115 159.516 205.115C159.067 205.115 158.667 205.209 158.314 205.397C157.966 205.581 157.689 205.838 157.485 206.166C157.284 206.491 157.184 206.862 157.184 207.278V213.12H155.766ZM170.574 213.313C169.708 213.313 168.963 213.108 168.338 212.7C167.713 212.291 167.232 211.728 166.895 211.011C166.559 210.293 166.391 209.474 166.391 208.552C166.391 207.615 166.563 206.787 166.907 206.07C167.256 205.349 167.741 204.786 168.362 204.381C168.987 203.973 169.716 203.768 170.55 203.768C171.199 203.768 171.784 203.888 172.305 204.129C172.826 204.369 173.252 204.706 173.585 205.139C173.918 205.571 174.124 206.076 174.204 206.653H172.786C172.677 206.232 172.437 205.86 172.064 205.535C171.696 205.207 171.199 205.042 170.574 205.042C170.021 205.042 169.536 205.187 169.119 205.475C168.707 205.76 168.384 206.162 168.152 206.683C167.923 207.2 167.809 207.807 167.809 208.504C167.809 209.218 167.921 209.839 168.146 210.368C168.374 210.897 168.695 211.307 169.107 211.6C169.524 211.892 170.013 212.038 170.574 212.038C170.942 212.038 171.277 211.974 171.578 211.846C171.878 211.718 172.133 211.534 172.341 211.293C172.549 211.053 172.698 210.764 172.786 210.428H174.204C174.124 210.973 173.926 211.463 173.609 211.9C173.297 212.333 172.882 212.678 172.365 212.934C171.852 213.186 171.255 213.313 170.574 213.313ZM177.696 207.567V213.12H176.278V200.811H177.696V205.331H177.816C178.033 204.854 178.357 204.475 178.79 204.195C179.227 203.91 179.808 203.768 180.533 203.768C181.162 203.768 181.713 203.894 182.186 204.147C182.659 204.395 183.025 204.778 183.286 205.295C183.55 205.808 183.683 206.461 183.683 207.254V213.12H182.264V207.35C182.264 206.617 182.074 206.05 181.693 205.649C181.316 205.245 180.794 205.042 180.124 205.042C179.66 205.042 179.243 205.141 178.874 205.337C178.51 205.533 178.221 205.82 178.009 206.196C177.8 206.573 177.696 207.03 177.696 207.567ZM188.994 213.337C188.409 213.337 187.878 213.227 187.401 213.006C186.925 212.782 186.546 212.459 186.266 212.038C185.985 211.614 185.845 211.101 185.845 210.5C185.845 209.971 185.949 209.542 186.157 209.214C186.366 208.881 186.644 208.621 186.993 208.432C187.341 208.244 187.726 208.104 188.147 208.012C188.571 207.915 188.998 207.839 189.427 207.783C189.988 207.711 190.443 207.657 190.791 207.621C191.144 207.581 191.4 207.515 191.561 207.422C191.725 207.33 191.807 207.17 191.807 206.942V206.894C191.807 206.301 191.645 205.84 191.32 205.511C191 205.183 190.513 205.018 189.86 205.018C189.183 205.018 188.652 205.167 188.267 205.463C187.882 205.76 187.612 206.076 187.456 206.413L186.109 205.932C186.35 205.371 186.67 204.934 187.071 204.622C187.476 204.305 187.916 204.085 188.393 203.961C188.874 203.832 189.347 203.768 189.812 203.768C190.108 203.768 190.449 203.804 190.833 203.876C191.222 203.944 191.597 204.087 191.957 204.303C192.322 204.519 192.625 204.846 192.865 205.283C193.105 205.72 193.226 206.305 193.226 207.038V213.12H191.807V211.87H191.735C191.639 212.071 191.479 212.285 191.254 212.513C191.03 212.742 190.731 212.936 190.359 213.096C189.986 213.257 189.531 213.337 188.994 213.337ZM189.211 212.063C189.772 212.063 190.244 211.952 190.629 211.732C191.018 211.512 191.31 211.227 191.507 210.878C191.707 210.53 191.807 210.163 191.807 209.779V208.48C191.747 208.552 191.615 208.619 191.41 208.679C191.21 208.735 190.978 208.785 190.713 208.829C190.453 208.869 190.198 208.905 189.95 208.937C189.705 208.965 189.507 208.989 189.355 209.009C188.986 209.057 188.642 209.135 188.321 209.244C188.005 209.348 187.748 209.506 187.552 209.718C187.359 209.927 187.263 210.211 187.263 210.572C187.263 211.065 187.446 211.437 187.81 211.69C188.179 211.938 188.646 212.063 189.211 212.063ZM202.354 205.956L201.08 206.317C201 206.104 200.881 205.898 200.725 205.698C200.573 205.493 200.364 205.325 200.1 205.193C199.835 205.06 199.497 204.994 199.084 204.994C198.519 204.994 198.048 205.125 197.672 205.385C197.299 205.641 197.113 205.968 197.113 206.365C197.113 206.717 197.241 206.996 197.497 207.2C197.754 207.404 198.155 207.575 198.7 207.711L200.07 208.048C200.895 208.248 201.51 208.554 201.915 208.967C202.32 209.376 202.522 209.903 202.522 210.548C202.522 211.077 202.37 211.55 202.065 211.966C201.765 212.383 201.344 212.712 200.803 212.952C200.262 213.192 199.633 213.313 198.916 213.313C197.974 213.313 197.195 213.108 196.578 212.7C195.961 212.291 195.57 211.694 195.406 210.909L196.752 210.572C196.88 211.069 197.123 211.441 197.479 211.69C197.84 211.938 198.311 212.063 198.892 212.063C199.553 212.063 200.078 211.922 200.467 211.642C200.859 211.357 201.056 211.017 201.056 210.62C201.056 210.299 200.943 210.031 200.719 209.815C200.495 209.594 200.15 209.43 199.685 209.322L198.147 208.961C197.301 208.761 196.68 208.45 196.283 208.03C195.891 207.605 195.694 207.074 195.694 206.437C195.694 205.916 195.841 205.455 196.133 205.054C196.43 204.654 196.832 204.339 197.341 204.111C197.854 203.882 198.435 203.768 199.084 203.768C199.998 203.768 200.715 203.969 201.236 204.369C201.761 204.77 202.133 205.299 202.354 205.956ZM211.197 205.956L209.922 206.317C209.842 206.104 209.724 205.898 209.568 205.698C209.416 205.493 209.207 205.325 208.943 205.193C208.678 205.06 208.34 204.994 207.927 204.994C207.362 204.994 206.891 205.125 206.515 205.385C206.142 205.641 205.956 205.968 205.956 206.365C205.956 206.717 206.084 206.996 206.34 207.2C206.597 207.404 206.997 207.575 207.542 207.711L208.913 208.048C209.738 208.248 210.353 208.554 210.758 208.967C211.163 209.376 211.365 209.903 211.365 210.548C211.365 211.077 211.213 211.55 210.908 211.966C210.608 212.383 210.187 212.712 209.646 212.952C209.105 213.192 208.476 213.313 207.759 213.313C206.817 213.313 206.038 213.108 205.421 212.7C204.804 212.291 204.413 211.694 204.249 210.909L205.595 210.572C205.723 211.069 205.966 211.441 206.322 211.69C206.683 211.938 207.154 212.063 207.735 212.063C208.396 212.063 208.921 211.922 209.309 211.642C209.702 211.357 209.898 211.017 209.898 210.62C209.898 210.299 209.786 210.031 209.562 209.815C209.337 209.594 208.993 209.43 208.528 209.322L206.989 208.961C206.144 208.761 205.523 208.45 205.126 208.03C204.733 207.605 204.537 207.074 204.537 206.437C204.537 205.916 204.683 205.455 204.976 205.054C205.272 204.654 205.675 204.339 206.184 204.111C206.697 203.882 207.278 203.768 207.927 203.768C208.841 203.768 209.558 203.969 210.079 204.369C210.604 204.77 210.976 205.299 211.197 205.956ZM213.5 213.12V203.888H214.919V213.12H213.5ZM214.221 202.35C213.945 202.35 213.707 202.256 213.506 202.067C213.31 201.879 213.212 201.653 213.212 201.388C213.212 201.124 213.31 200.897 213.506 200.709C213.707 200.521 213.945 200.426 214.221 200.426C214.498 200.426 214.734 200.521 214.931 200.709C215.131 200.897 215.231 201.124 215.231 201.388C215.231 201.653 215.131 201.879 214.931 202.067C214.734 202.256 214.498 202.35 214.221 202.35ZM224.056 205.956L222.782 206.317C222.702 206.104 222.583 205.898 222.427 205.698C222.275 205.493 222.066 205.325 221.802 205.193C221.538 205.06 221.199 204.994 220.786 204.994C220.221 204.994 219.75 205.125 219.374 205.385C219.001 205.641 218.815 205.968 218.815 206.365C218.815 206.717 218.943 206.996 219.2 207.2C219.456 207.404 219.857 207.575 220.402 207.711L221.772 208.048C222.597 208.248 223.212 208.554 223.617 208.967C224.022 209.376 224.224 209.903 224.224 210.548C224.224 211.077 224.072 211.55 223.767 211.966C223.467 212.383 223.046 212.712 222.505 212.952C221.964 213.192 221.335 213.313 220.618 213.313C219.676 213.313 218.897 213.108 218.28 212.7C217.663 212.291 217.272 211.694 217.108 210.909L218.454 210.572C218.582 211.069 218.825 211.441 219.181 211.69C219.542 211.938 220.013 212.063 220.594 212.063C221.255 212.063 221.78 211.922 222.169 211.642C222.561 211.357 222.758 211.017 222.758 210.62C222.758 210.299 222.645 210.031 222.421 209.815C222.197 209.594 221.852 209.43 221.387 209.322L219.849 208.961C219.003 208.761 218.382 208.45 217.985 208.03C217.593 207.605 217.396 207.074 217.396 206.437C217.396 205.916 217.543 205.455 217.835 205.054C218.132 204.654 218.534 204.339 219.043 204.111C219.556 203.882 220.137 203.768 220.786 203.768C221.7 203.768 222.417 203.969 222.938 204.369C223.463 204.77 223.836 205.299 224.056 205.956ZM232.538 207.567V213.12H231.12V203.888H232.49V205.331H232.61C232.827 204.862 233.155 204.485 233.596 204.201C234.037 203.912 234.606 203.768 235.303 203.768C235.928 203.768 236.475 203.896 236.944 204.153C237.413 204.405 237.777 204.79 238.038 205.307C238.298 205.82 238.428 206.469 238.428 207.254V213.12H237.01V207.35C237.01 206.625 236.822 206.06 236.445 205.655C236.068 205.247 235.551 205.042 234.894 205.042C234.441 205.042 234.037 205.141 233.68 205.337C233.327 205.533 233.049 205.82 232.845 206.196C232.64 206.573 232.538 207.03 232.538 207.567ZM244.771 213.313C243.937 213.313 243.206 213.114 242.577 212.718C241.952 212.321 241.463 211.766 241.11 211.053C240.762 210.34 240.588 209.506 240.588 208.552C240.588 207.591 240.762 206.751 241.11 206.034C241.463 205.317 241.952 204.76 242.577 204.363C243.206 203.967 243.937 203.768 244.771 203.768C245.604 203.768 246.333 203.967 246.959 204.363C247.588 204.76 248.077 205.317 248.425 206.034C248.778 206.751 248.954 207.591 248.954 208.552C248.954 209.506 248.778 210.34 248.425 211.053C248.077 211.766 247.588 212.321 246.959 212.718C246.333 213.114 245.604 213.313 244.771 213.313ZM244.771 212.038C245.404 212.038 245.925 211.876 246.333 211.552C246.742 211.227 247.045 210.8 247.241 210.271C247.437 209.743 247.536 209.17 247.536 208.552C247.536 207.935 247.437 207.36 247.241 206.827C247.045 206.295 246.742 205.864 246.333 205.535C245.925 205.207 245.404 205.042 244.771 205.042C244.138 205.042 243.617 205.207 243.208 205.535C242.799 205.864 242.497 206.295 242.301 206.827C242.104 207.36 242.006 207.935 242.006 208.552C242.006 209.17 242.104 209.743 242.301 210.271C242.497 210.8 242.799 211.227 243.208 211.552C243.617 211.876 244.138 212.038 244.771 212.038ZM252.153 213.217C251.857 213.217 251.602 213.11 251.39 212.898C251.177 212.686 251.071 212.431 251.071 212.135C251.071 211.838 251.177 211.584 251.39 211.371C251.602 211.159 251.857 211.053 252.153 211.053C252.45 211.053 252.704 211.159 252.916 211.371C253.129 211.584 253.235 211.838 253.235 212.135C253.235 212.331 253.185 212.511 253.085 212.676C252.989 212.84 252.858 212.972 252.694 213.072C252.534 213.168 252.353 213.217 252.153 213.217ZM256.285 207.927C256.285 206.413 256.482 205.02 256.874 203.75C257.271 202.476 257.836 201.304 258.569 200.234H259.819C259.531 200.631 259.26 201.12 259.008 201.701C258.76 202.278 258.541 202.913 258.353 203.606C258.164 204.295 258.016 205.008 257.908 205.746C257.804 206.483 257.752 207.21 257.752 207.927C257.752 208.881 257.844 209.849 258.028 210.83C258.213 211.812 258.461 212.724 258.774 213.565C259.086 214.407 259.435 215.092 259.819 215.621H258.569C257.836 214.551 257.271 213.381 256.874 212.111C256.482 210.836 256.285 209.442 256.285 207.927ZM265.585 213.313C264.695 213.313 263.928 213.116 263.283 212.724C262.642 212.327 262.147 211.774 261.798 211.065C261.454 210.352 261.281 209.522 261.281 208.576C261.281 207.631 261.454 206.797 261.798 206.076C262.147 205.351 262.632 204.786 263.253 204.381C263.878 203.973 264.607 203.768 265.441 203.768C265.921 203.768 266.396 203.848 266.865 204.009C267.334 204.169 267.761 204.429 268.145 204.79C268.53 205.147 268.836 205.619 269.065 206.208C269.293 206.797 269.407 207.523 269.407 208.384V208.985H262.291V207.759H267.965C267.965 207.238 267.861 206.773 267.652 206.365C267.448 205.956 267.156 205.633 266.775 205.397C266.398 205.161 265.953 205.042 265.441 205.042C264.876 205.042 264.387 205.183 263.974 205.463C263.565 205.74 263.251 206.1 263.03 206.545C262.81 206.99 262.7 207.467 262.7 207.975V208.793C262.7 209.49 262.82 210.081 263.06 210.566C263.305 211.047 263.643 211.413 264.076 211.666C264.509 211.914 265.012 212.038 265.585 212.038C265.957 212.038 266.294 211.986 266.595 211.882C266.899 211.774 267.162 211.614 267.382 211.401C267.602 211.185 267.773 210.917 267.893 210.596L269.263 210.981C269.119 211.445 268.877 211.854 268.536 212.207C268.195 212.555 267.775 212.828 267.274 213.024C266.773 213.217 266.21 213.313 265.585 213.313ZM272.599 213.217C272.302 213.217 272.048 213.11 271.836 212.898C271.623 212.686 271.517 212.431 271.517 212.135C271.517 211.838 271.623 211.584 271.836 211.371C272.048 211.159 272.302 211.053 272.599 211.053C272.895 211.053 273.15 211.159 273.362 211.371C273.575 211.584 273.681 211.838 273.681 212.135C273.681 212.331 273.631 212.511 273.531 212.676C273.434 212.84 273.304 212.972 273.14 213.072C272.98 213.168 272.799 213.217 272.599 213.217ZM279.953 216.775C279.268 216.775 278.678 216.687 278.186 216.51C277.693 216.338 277.282 216.11 276.954 215.825C276.629 215.545 276.37 215.244 276.178 214.923L277.308 214.13C277.436 214.298 277.599 214.491 277.795 214.707C277.991 214.927 278.26 215.118 278.6 215.278C278.945 215.442 279.396 215.525 279.953 215.525C280.698 215.525 281.313 215.344 281.798 214.984C282.283 214.623 282.525 214.058 282.525 213.289V211.413H282.405C282.301 211.582 282.153 211.79 281.96 212.038C281.772 212.283 281.499 212.501 281.143 212.694C280.79 212.882 280.313 212.976 279.712 212.976C278.967 212.976 278.298 212.8 277.705 212.447C277.116 212.095 276.649 211.582 276.304 210.909C275.964 210.235 275.793 209.418 275.793 208.456C275.793 207.511 275.96 206.687 276.292 205.986C276.625 205.281 277.088 204.736 277.681 204.351C278.274 203.963 278.959 203.768 279.736 203.768C280.337 203.768 280.814 203.868 281.167 204.069C281.523 204.265 281.796 204.489 281.984 204.742C282.177 204.99 282.325 205.195 282.429 205.355H282.573V203.888H283.944V213.385C283.944 214.178 283.763 214.823 283.403 215.32C283.046 215.821 282.565 216.188 281.96 216.42C281.359 216.656 280.69 216.775 279.953 216.775ZM279.905 211.702C280.474 211.702 280.954 211.572 281.347 211.311C281.74 211.051 282.038 210.676 282.243 210.187C282.447 209.698 282.549 209.113 282.549 208.432C282.549 207.767 282.449 207.18 282.249 206.671C282.048 206.162 281.752 205.764 281.359 205.475C280.966 205.187 280.482 205.042 279.905 205.042C279.304 205.042 278.803 205.195 278.402 205.499C278.005 205.804 277.707 206.212 277.506 206.725C277.31 207.238 277.212 207.807 277.212 208.432C277.212 209.073 277.312 209.64 277.512 210.133C277.717 210.622 278.017 211.007 278.414 211.287C278.815 211.564 279.312 211.702 279.905 211.702ZM287.574 213.217C287.277 213.217 287.023 213.11 286.811 212.898C286.598 212.686 286.492 212.431 286.492 212.135C286.492 211.838 286.598 211.584 286.811 211.371C287.023 211.159 287.277 211.053 287.574 211.053C287.87 211.053 288.125 211.159 288.337 211.371C288.55 211.584 288.656 211.838 288.656 212.135C288.656 212.331 288.606 212.511 288.506 212.676C288.409 212.84 288.279 212.972 288.115 213.072C287.955 213.168 287.774 213.217 287.574 213.217ZM300.866 200.811H302.356V209.61C302.356 210.396 302.212 211.063 301.924 211.612C301.635 212.161 301.229 212.577 300.704 212.862C300.179 213.146 299.56 213.289 298.846 213.289C298.173 213.289 297.574 213.166 297.049 212.922C296.524 212.674 296.112 212.321 295.811 211.864C295.511 211.407 295.36 210.864 295.36 210.235H296.827C296.827 210.584 296.913 210.888 297.085 211.149C297.262 211.405 297.502 211.606 297.807 211.75C298.111 211.894 298.458 211.966 298.846 211.966C299.275 211.966 299.64 211.876 299.94 211.696C300.241 211.516 300.469 211.251 300.625 210.903C300.786 210.55 300.866 210.119 300.866 209.61V200.811ZM304.935 213.12V212.038L311.57 202.133H304.863V200.811H313.35V201.893L306.714 211.798H313.422V213.12H304.935ZM316.427 213.12H314.864L319.384 200.811H320.923L325.442 213.12H323.88L320.201 202.758H320.105L316.427 213.12ZM317.004 208.312H323.303V209.634H317.004V208.312ZM331.086 213.289C330.261 213.289 329.532 213.142 328.898 212.85C328.269 212.553 327.778 212.147 327.426 211.63C327.073 211.109 326.899 210.516 326.903 209.851C326.899 209.33 327.001 208.849 327.21 208.408C327.418 207.963 327.702 207.593 328.063 207.296C328.428 206.996 328.834 206.805 329.283 206.725V206.653C328.694 206.501 328.225 206.17 327.877 205.661C327.528 205.149 327.356 204.566 327.36 203.912C327.356 203.287 327.514 202.728 327.835 202.236C328.155 201.743 328.596 201.354 329.157 201.069C329.722 200.785 330.365 200.643 331.086 200.643C331.799 200.643 332.437 200.785 332.998 201.069C333.558 201.354 333.999 201.743 334.32 202.236C334.644 202.728 334.809 203.287 334.813 203.912C334.809 204.566 334.63 205.149 334.278 205.661C333.929 206.17 333.466 206.501 332.889 206.653V206.725C333.334 206.805 333.735 206.996 334.091 207.296C334.448 207.593 334.733 207.963 334.945 208.408C335.157 208.849 335.265 209.33 335.269 209.851C335.265 210.516 335.085 211.109 334.729 211.63C334.376 212.147 333.885 212.553 333.256 212.85C332.631 213.142 331.908 213.289 331.086 213.289ZM331.086 211.966C331.643 211.966 332.124 211.876 332.529 211.696C332.933 211.516 333.246 211.261 333.466 210.933C333.687 210.604 333.799 210.219 333.803 209.779C333.799 209.314 333.679 208.903 333.442 208.546C333.206 208.19 332.883 207.909 332.475 207.705C332.07 207.501 331.607 207.398 331.086 207.398C330.561 207.398 330.092 207.501 329.68 207.705C329.271 207.909 328.949 208.19 328.712 208.546C328.48 208.903 328.366 209.314 328.37 209.779C328.366 210.219 328.472 210.604 328.688 210.933C328.908 211.261 329.223 211.516 329.632 211.696C330.04 211.876 330.525 211.966 331.086 211.966ZM331.086 206.124C331.527 206.124 331.918 206.036 332.258 205.86C332.603 205.683 332.873 205.437 333.07 205.121C333.266 204.804 333.366 204.433 333.37 204.009C333.366 203.592 333.268 203.229 333.076 202.921C332.883 202.608 332.617 202.368 332.276 202.199C331.936 202.027 331.539 201.941 331.086 201.941C330.625 201.941 330.223 202.027 329.878 202.199C329.534 202.368 329.267 202.608 329.079 202.921C328.89 203.229 328.798 203.592 328.802 204.009C328.798 204.433 328.892 204.804 329.085 205.121C329.281 205.437 329.552 205.683 329.896 205.86C330.241 206.036 330.637 206.124 331.086 206.124ZM341.588 213.289C340.682 213.289 339.911 213.042 339.274 212.549C338.637 212.053 338.15 211.333 337.813 210.392C337.477 209.446 337.308 208.304 337.308 206.966C337.308 205.635 337.477 204.499 337.813 203.558C338.154 202.612 338.643 201.891 339.28 201.394C339.921 200.893 340.69 200.643 341.588 200.643C342.485 200.643 343.253 200.893 343.89 201.394C344.531 201.891 345.02 202.612 345.356 203.558C345.697 204.499 345.867 205.635 345.867 206.966C345.867 208.304 345.699 209.446 345.362 210.392C345.026 211.333 344.539 212.053 343.902 212.549C343.265 213.042 342.493 213.289 341.588 213.289ZM341.588 211.966C342.485 211.966 343.183 211.534 343.68 210.668C344.176 209.803 344.425 208.568 344.425 206.966C344.425 205.9 344.311 204.992 344.082 204.243C343.858 203.494 343.533 202.923 343.109 202.53C342.688 202.137 342.181 201.941 341.588 201.941C340.698 201.941 340.003 202.38 339.502 203.257C339.001 204.131 338.751 205.367 338.751 206.966C338.751 208.032 338.863 208.937 339.088 209.682C339.312 210.428 339.635 210.995 340.055 211.383C340.48 211.772 340.991 211.966 341.588 211.966ZM353.464 206.305V207.627H348.079V206.305H353.464ZM360.264 200.811V213.12H358.773V202.374H358.701L355.696 204.369V202.855L358.773 200.811H360.264ZM368.131 200.811V213.12H366.641V202.374H366.569L363.563 204.369V202.855L366.641 200.811H368.131ZM375.686 213.289C374.781 213.289 374.01 213.042 373.372 212.549C372.735 212.053 372.248 211.333 371.912 210.392C371.575 209.446 371.407 208.304 371.407 206.966C371.407 205.635 371.575 204.499 371.912 203.558C372.252 202.612 372.741 201.891 373.378 201.394C374.02 200.893 374.789 200.643 375.686 200.643C376.584 200.643 377.351 200.893 377.988 201.394C378.63 201.891 379.118 202.612 379.455 203.558C379.796 204.499 379.966 205.635 379.966 206.966C379.966 208.304 379.798 209.446 379.461 210.392C379.124 211.333 378.638 212.053 378 212.549C377.363 213.042 376.592 213.289 375.686 213.289ZM375.686 211.966C376.584 211.966 377.281 211.534 377.778 210.668C378.275 209.803 378.523 208.568 378.523 206.966C378.523 205.9 378.409 204.992 378.181 204.243C377.956 203.494 377.632 202.923 377.207 202.53C376.786 202.137 376.279 201.941 375.686 201.941C374.797 201.941 374.102 202.38 373.601 203.257C373.1 204.131 372.85 205.367 372.85 206.966C372.85 208.032 372.962 208.937 373.186 209.682C373.41 210.428 373.733 210.995 374.154 211.383C374.579 211.772 375.089 211.966 375.686 211.966ZM381.961 210.596V209.37L387.371 200.811H388.26V202.71H387.659L383.572 209.178V209.274H390.857V210.596H381.961ZM387.755 213.12V210.223V209.652V200.811H389.174V213.12H387.755ZM397.028 200.643C397.533 200.647 398.038 200.743 398.542 200.931C399.047 201.12 399.508 201.432 399.925 201.869C400.342 202.302 400.676 202.893 400.929 203.642C401.181 204.391 401.307 205.331 401.307 206.461C401.307 207.555 401.203 208.526 400.995 209.376C400.79 210.221 400.494 210.935 400.105 211.516C399.721 212.097 399.252 212.537 398.699 212.838C398.15 213.138 397.529 213.289 396.836 213.289C396.146 213.289 395.531 213.152 394.99 212.88C394.453 212.603 394.013 212.221 393.668 211.732C393.327 211.239 393.109 210.668 393.013 210.019H394.479C394.612 210.584 394.874 211.051 395.267 211.419C395.663 211.784 396.186 211.966 396.836 211.966C397.785 211.966 398.534 211.552 399.083 210.722C399.636 209.893 399.913 208.721 399.913 207.206H399.817C399.592 207.543 399.326 207.833 399.017 208.078C398.709 208.322 398.366 208.51 397.99 208.643C397.613 208.775 397.212 208.841 396.787 208.841C396.082 208.841 395.435 208.667 394.846 208.318C394.261 207.965 393.792 207.483 393.44 206.87C393.091 206.252 392.917 205.547 392.917 204.754C392.917 204.001 393.085 203.311 393.422 202.686C393.762 202.057 394.239 201.556 394.852 201.184C395.469 200.811 396.194 200.631 397.028 200.643ZM397.028 201.965C396.523 201.965 396.068 202.091 395.663 202.344C395.263 202.592 394.944 202.929 394.708 203.353C394.475 203.774 394.359 204.241 394.359 204.754C394.359 205.267 394.471 205.734 394.696 206.154C394.924 206.571 395.235 206.904 395.627 207.152C396.024 207.396 396.475 207.519 396.98 207.519C397.36 207.519 397.715 207.445 398.044 207.296C398.372 207.144 398.659 206.938 398.903 206.677C399.152 206.413 399.346 206.114 399.486 205.782C399.626 205.445 399.696 205.094 399.696 204.73C399.696 204.249 399.58 203.798 399.348 203.377C399.119 202.957 398.803 202.616 398.398 202.356C397.998 202.095 397.541 201.965 397.028 201.965ZM403.382 210.596V209.37L408.792 200.811H409.681V202.71H409.08L404.993 209.178V209.274H412.278V210.596H403.382ZM409.176 213.12V210.223V209.652V200.811H410.595V213.12H409.176ZM418.617 213.289C418.112 213.281 417.607 213.184 417.103 213C416.598 212.816 416.137 212.505 415.72 212.069C415.303 211.628 414.969 211.033 414.716 210.283C414.464 209.53 414.338 208.585 414.338 207.447C414.338 206.357 414.44 205.391 414.644 204.55C414.849 203.704 415.145 202.993 415.534 202.416C415.923 201.835 416.391 201.394 416.94 201.094C417.493 200.793 418.116 200.643 418.81 200.643C419.499 200.643 420.112 200.781 420.649 201.057C421.19 201.33 421.63 201.711 421.971 202.199C422.312 202.688 422.532 203.251 422.632 203.888H421.166C421.029 203.335 420.765 202.877 420.372 202.512C419.98 202.147 419.459 201.965 418.81 201.965C417.856 201.965 417.105 202.38 416.556 203.209C416.011 204.039 415.736 205.203 415.732 206.701H415.828C416.053 206.361 416.319 206.07 416.628 205.83C416.94 205.585 417.285 205.397 417.662 205.265C418.038 205.133 418.437 205.066 418.858 205.066C419.563 205.066 420.208 205.243 420.793 205.595C421.378 205.944 421.847 206.427 422.199 207.044C422.552 207.657 422.728 208.36 422.728 209.153C422.728 209.915 422.558 210.612 422.217 211.245C421.877 211.874 421.398 212.375 420.781 212.748C420.168 213.116 419.447 213.297 418.617 213.289ZM418.617 211.966C419.122 211.966 419.575 211.84 419.976 211.588C420.38 211.335 420.699 210.997 420.931 210.572C421.168 210.147 421.286 209.674 421.286 209.153C421.286 208.645 421.172 208.182 420.943 207.765C420.719 207.344 420.408 207.01 420.012 206.761C419.619 206.513 419.17 206.389 418.665 206.389C418.285 206.389 417.93 206.465 417.601 206.617C417.273 206.765 416.984 206.97 416.736 207.23C416.492 207.491 416.299 207.789 416.159 208.126C416.019 208.458 415.949 208.809 415.949 209.178C415.949 209.666 416.063 210.123 416.291 210.548C416.524 210.973 416.84 211.315 417.241 211.576C417.646 211.836 418.104 211.966 418.617 211.966ZM428.145 206.966C428.145 208.48 427.947 209.875 427.55 211.149C427.158 212.419 426.595 213.589 425.861 214.659H424.611C424.9 214.262 425.168 213.773 425.417 213.192C425.669 212.615 425.889 211.982 426.078 211.293C426.266 210.6 426.412 209.885 426.516 209.147C426.625 208.406 426.679 207.679 426.679 206.966C426.679 206.012 426.587 205.044 426.402 204.063C426.218 203.081 425.969 202.169 425.657 201.328C425.344 200.486 424.996 199.801 424.611 199.272H425.861C426.595 200.342 427.158 201.514 427.55 202.788C427.947 204.059 428.145 205.451 428.145 206.966Z" fill="#989EBB"/>
<rect x="59.3125" y="270.284" width="461.214" height="59.8506" rx="4.23133" fill="#FFA520"/>
<path d="M200.298 293.361L204.409 305.019H204.571L208.682 293.361H210.44L205.355 307.209H203.625L198.54 293.361H200.298ZM215.769 307.426C214.768 307.426 213.905 307.205 213.179 306.763C212.458 306.317 211.901 305.695 211.509 304.897C211.121 304.095 210.927 303.161 210.927 302.098C210.927 301.034 211.121 300.096 211.509 299.285C211.901 298.469 212.446 297.833 213.145 297.378C213.848 296.918 214.669 296.688 215.606 296.688C216.147 296.688 216.681 296.778 217.209 296.959C217.736 297.139 218.216 297.432 218.649 297.838C219.082 298.239 219.427 298.771 219.684 299.434C219.94 300.096 220.069 300.912 220.069 301.881V302.557H212.063V301.178H218.446C218.446 300.592 218.329 300.069 218.095 299.609C217.865 299.15 217.536 298.787 217.107 298.521C216.684 298.255 216.183 298.122 215.606 298.122C214.971 298.122 214.421 298.28 213.956 298.595C213.497 298.906 213.143 299.312 212.895 299.812C212.647 300.313 212.523 300.849 212.523 301.421V302.341C212.523 303.125 212.658 303.79 212.929 304.336C213.204 304.877 213.584 305.289 214.071 305.573C214.558 305.853 215.124 305.992 215.769 305.992C216.188 305.992 216.566 305.934 216.904 305.817C217.247 305.695 217.542 305.515 217.79 305.276C218.038 305.032 218.23 304.73 218.365 304.37L219.907 304.802C219.744 305.325 219.472 305.785 219.089 306.182C218.705 306.574 218.232 306.88 217.669 307.101C217.105 307.318 216.472 307.426 215.769 307.426ZM222.496 307.209V296.823H224.038V298.392H224.146C224.336 297.878 224.678 297.461 225.174 297.141C225.67 296.821 226.229 296.661 226.851 296.661C226.968 296.661 227.115 296.663 227.29 296.668C227.466 296.672 227.599 296.679 227.689 296.688V298.311C227.635 298.298 227.511 298.277 227.318 298.25C227.128 298.219 226.928 298.203 226.716 298.203C226.211 298.203 225.76 298.309 225.363 298.521C224.971 298.728 224.66 299.017 224.43 299.386C224.205 299.751 224.092 300.168 224.092 300.637V307.209H222.496ZM229.581 307.209V296.823H231.177V307.209H229.581ZM230.392 295.092C230.081 295.092 229.813 294.987 229.588 294.775C229.367 294.563 229.256 294.308 229.256 294.011C229.256 293.713 229.367 293.458 229.588 293.247C229.813 293.035 230.081 292.929 230.392 292.929C230.703 292.929 230.969 293.035 231.19 293.247C231.416 293.458 231.528 293.713 231.528 294.011C231.528 294.308 231.416 294.563 231.19 294.775C230.969 294.987 230.703 295.092 230.392 295.092ZM238.725 296.823V298.176H233.126V296.823H238.725ZM234.803 307.209V295.39C234.803 294.795 234.942 294.299 235.222 293.902C235.501 293.506 235.864 293.208 236.311 293.01C236.757 292.812 237.228 292.712 237.724 292.712C238.116 292.712 238.436 292.744 238.684 292.807C238.932 292.87 239.117 292.929 239.238 292.983L238.779 294.362C238.697 294.335 238.585 294.301 238.441 294.261C238.301 294.22 238.116 294.2 237.886 294.2C237.359 294.2 236.978 294.333 236.743 294.599C236.513 294.865 236.398 295.255 236.398 295.769V307.209H234.803ZM241.989 311.104C241.718 311.104 241.477 311.082 241.265 311.037C241.053 310.996 240.907 310.955 240.826 310.915L241.231 309.508C241.619 309.608 241.962 309.644 242.259 309.617C242.557 309.59 242.82 309.457 243.05 309.218C243.285 308.983 243.499 308.602 243.693 308.075L243.99 307.264L240.15 296.823H241.881L244.748 305.1H244.856L247.723 296.823H249.454L245.045 308.724C244.847 309.261 244.601 309.705 244.308 310.056C244.015 310.412 243.675 310.676 243.287 310.847C242.904 311.019 242.471 311.104 241.989 311.104ZM257.7 307.209H255.942L261.026 293.361H262.757L267.842 307.209H266.084L261.946 295.552H261.838L257.7 307.209ZM258.349 301.8H265.435V303.288H258.349V301.8ZM276.328 302.963V296.823H277.924V307.209H276.328V305.451H276.22C275.976 305.979 275.598 306.427 275.084 306.797C274.57 307.162 273.921 307.345 273.137 307.345C272.487 307.345 271.91 307.203 271.406 306.919C270.901 306.63 270.504 306.197 270.215 305.62C269.927 305.039 269.783 304.306 269.783 303.423V296.823H271.378V303.315C271.378 304.072 271.59 304.676 272.014 305.127C272.442 305.578 272.988 305.803 273.65 305.803C274.047 305.803 274.451 305.702 274.861 305.499C275.275 305.296 275.623 304.985 275.902 304.566C276.186 304.146 276.328 303.612 276.328 302.963ZM285.066 307.426C284.092 307.426 283.254 307.196 282.551 306.736C281.847 306.276 281.306 305.643 280.928 304.836C280.549 304.029 280.36 303.107 280.36 302.071C280.36 301.016 280.554 300.085 280.941 299.278C281.333 298.467 281.879 297.833 282.578 297.378C283.281 296.918 284.101 296.688 285.039 296.688C285.769 296.688 286.427 296.823 287.013 297.094C287.599 297.364 288.079 297.743 288.453 298.23C288.828 298.717 289.06 299.285 289.15 299.934H287.554C287.432 299.461 287.162 299.041 286.743 298.676C286.328 298.307 285.769 298.122 285.066 298.122C284.444 298.122 283.898 298.284 283.43 298.609C282.965 298.929 282.602 299.382 282.341 299.968C282.084 300.549 281.955 301.232 281.955 302.016C281.955 302.819 282.082 303.518 282.334 304.113C282.591 304.708 282.952 305.17 283.416 305.499C283.885 305.828 284.435 305.992 285.066 305.992C285.481 305.992 285.857 305.92 286.195 305.776C286.533 305.632 286.819 305.424 287.054 305.154C287.288 304.883 287.455 304.559 287.554 304.18H289.15C289.06 304.793 288.837 305.345 288.481 305.837C288.129 306.324 287.662 306.711 287.081 307C286.504 307.284 285.832 307.426 285.066 307.426ZM296 296.823V298.176H290.617V296.823H296ZM292.186 294.335H293.782V304.234C293.782 304.685 293.847 305.023 293.978 305.249C294.113 305.469 294.284 305.618 294.492 305.695C294.704 305.767 294.927 305.803 295.161 305.803C295.337 305.803 295.481 305.794 295.594 305.776C295.707 305.753 295.797 305.735 295.864 305.722L296.189 307.155C296.081 307.196 295.93 307.237 295.736 307.277C295.542 307.322 295.296 307.345 294.999 307.345C294.548 307.345 294.106 307.248 293.674 307.054C293.245 306.86 292.889 306.565 292.605 306.168C292.326 305.771 292.186 305.271 292.186 304.667V294.335ZM298.4 307.209V296.823H299.996V307.209H298.4ZM299.211 295.092C298.9 295.092 298.632 294.987 298.407 294.775C298.186 294.563 298.075 294.308 298.075 294.011C298.075 293.713 298.186 293.458 298.407 293.247C298.632 293.035 298.9 292.929 299.211 292.929C299.522 292.929 299.788 293.035 300.009 293.247C300.235 293.458 300.347 293.713 300.347 294.011C300.347 294.308 300.235 294.563 300.009 294.775C299.788 294.987 299.522 295.092 299.211 295.092ZM307.138 307.426C306.2 307.426 305.377 307.203 304.67 306.756C303.967 306.31 303.417 305.686 303.02 304.883C302.628 304.081 302.432 303.143 302.432 302.071C302.432 300.989 302.628 300.044 303.02 299.237C303.417 298.431 303.967 297.804 304.67 297.358C305.377 296.911 306.2 296.688 307.138 296.688C308.075 296.688 308.896 296.911 309.599 297.358C310.307 297.804 310.857 298.431 311.249 299.237C311.646 300.044 311.844 300.989 311.844 302.071C311.844 303.143 311.646 304.081 311.249 304.883C310.857 305.686 310.307 306.31 309.599 306.756C308.896 307.203 308.075 307.426 307.138 307.426ZM307.138 305.992C307.85 305.992 308.436 305.81 308.896 305.445C309.356 305.08 309.696 304.599 309.917 304.004C310.138 303.409 310.248 302.765 310.248 302.071C310.248 301.376 310.138 300.73 309.917 300.13C309.696 299.53 309.356 299.046 308.896 298.676C308.436 298.307 307.85 298.122 307.138 298.122C306.426 298.122 305.84 298.307 305.38 298.676C304.92 299.046 304.58 299.53 304.359 300.13C304.138 300.73 304.027 301.376 304.027 302.071C304.027 302.765 304.138 303.409 304.359 304.004C304.58 304.599 304.92 305.08 305.38 305.445C305.84 305.81 306.426 305.992 307.138 305.992ZM315.876 300.962V307.209H314.28V296.823H315.821V298.446H315.957C316.2 297.919 316.57 297.495 317.066 297.175C317.561 296.851 318.202 296.688 318.986 296.688C319.689 296.688 320.304 296.833 320.832 297.121C321.359 297.405 321.77 297.838 322.063 298.419C322.356 298.996 322.502 299.727 322.502 300.61V307.209H320.906V300.718C320.906 299.902 320.694 299.267 320.271 298.811C319.847 298.352 319.265 298.122 318.526 298.122C318.017 298.122 317.561 298.232 317.16 298.453C316.764 298.674 316.45 298.996 316.22 299.42C315.991 299.844 315.876 300.358 315.876 300.962ZM338.563 296.823C338.482 296.138 338.153 295.606 337.576 295.228C336.999 294.849 336.291 294.66 335.452 294.66C334.839 294.66 334.303 294.759 333.843 294.957C333.388 295.156 333.032 295.428 332.775 295.775C332.522 296.123 332.396 296.517 332.396 296.959C332.396 297.328 332.484 297.646 332.66 297.912C332.84 298.174 333.07 298.392 333.35 298.568C333.629 298.739 333.922 298.881 334.229 298.994C334.535 299.102 334.817 299.19 335.074 299.258L336.48 299.636C336.841 299.731 337.242 299.862 337.684 300.029C338.13 300.195 338.556 300.423 338.962 300.711C339.372 300.995 339.71 301.361 339.976 301.807C340.242 302.253 340.375 302.801 340.375 303.45C340.375 304.198 340.179 304.874 339.787 305.478C339.399 306.083 338.831 306.563 338.083 306.919C337.339 307.275 336.435 307.453 335.371 307.453C334.38 307.453 333.521 307.293 332.795 306.973C332.074 306.653 331.506 306.206 331.091 305.634C330.681 305.062 330.449 304.397 330.395 303.639H332.126C332.171 304.162 332.347 304.595 332.653 304.938C332.964 305.276 333.356 305.528 333.83 305.695C334.307 305.857 334.821 305.938 335.371 305.938C336.011 305.938 336.586 305.835 337.095 305.627C337.605 305.415 338.008 305.122 338.306 304.748C338.603 304.37 338.752 303.928 338.752 303.423C338.752 302.963 338.624 302.589 338.367 302.3C338.11 302.012 337.772 301.778 337.352 301.597C336.933 301.417 336.48 301.259 335.993 301.124L334.289 300.637C333.208 300.326 332.351 299.882 331.72 299.305C331.089 298.728 330.773 297.973 330.773 297.04C330.773 296.265 330.983 295.588 331.402 295.011C331.826 294.43 332.394 293.979 333.106 293.659C333.823 293.334 334.623 293.172 335.506 293.172C336.399 293.172 337.192 293.332 337.887 293.652C338.581 293.968 339.131 294.401 339.536 294.951C339.947 295.5 340.163 296.125 340.186 296.823H338.563ZM344.511 300.962V307.209H342.916V293.361H344.511V298.446H344.647C344.89 297.91 345.255 297.484 345.742 297.168C346.233 296.848 346.887 296.688 347.703 296.688C348.411 296.688 349.03 296.83 349.562 297.114C350.094 297.394 350.507 297.824 350.8 298.406C351.097 298.983 351.246 299.718 351.246 300.61V307.209H349.65V300.718C349.65 299.893 349.436 299.255 349.008 298.805C348.584 298.349 347.996 298.122 347.243 298.122C346.72 298.122 346.251 298.232 345.837 298.453C345.426 298.674 345.102 298.996 344.863 299.42C344.629 299.844 344.511 300.358 344.511 300.962ZM358.52 307.426C357.519 307.426 356.656 307.205 355.93 306.763C355.209 306.317 354.652 305.695 354.26 304.897C353.872 304.095 353.679 303.161 353.679 302.098C353.679 301.034 353.872 300.096 354.26 299.285C354.652 298.469 355.198 297.833 355.896 297.378C356.6 296.918 357.42 296.688 358.358 296.688C358.899 296.688 359.433 296.778 359.96 296.959C360.488 297.139 360.968 297.432 361.4 297.838C361.833 298.239 362.178 298.771 362.435 299.434C362.692 300.096 362.82 300.912 362.82 301.881V302.557H354.815V301.178H361.198C361.198 300.592 361.08 300.069 360.846 299.609C360.616 299.15 360.287 298.787 359.859 298.521C359.435 298.255 358.935 298.122 358.358 298.122C357.722 298.122 357.172 298.28 356.708 298.595C356.248 298.906 355.894 299.312 355.646 299.812C355.398 300.313 355.274 300.849 355.274 301.421V302.341C355.274 303.125 355.41 303.79 355.68 304.336C355.955 304.877 356.336 305.289 356.823 305.573C357.31 305.853 357.875 305.992 358.52 305.992C358.939 305.992 359.318 305.934 359.656 305.817C359.999 305.695 360.294 305.515 360.542 305.276C360.79 305.032 360.981 304.73 361.116 304.37L362.658 304.802C362.496 305.325 362.223 305.785 361.84 306.182C361.457 306.574 360.983 306.88 360.42 307.101C359.857 307.318 359.223 307.426 358.52 307.426ZM369.602 307.426C368.602 307.426 367.738 307.205 367.013 306.763C366.291 306.317 365.735 305.695 365.343 304.897C364.955 304.095 364.761 303.161 364.761 302.098C364.761 301.034 364.955 300.096 365.343 299.285C365.735 298.469 366.28 297.833 366.979 297.378C367.682 296.918 368.502 296.688 369.44 296.688C369.981 296.688 370.515 296.778 371.043 296.959C371.57 297.139 372.05 297.432 372.483 297.838C372.916 298.239 373.26 298.771 373.517 299.434C373.774 300.096 373.903 300.912 373.903 301.881V302.557H365.897V301.178H372.28C372.28 300.592 372.163 300.069 371.928 299.609C371.699 299.15 371.369 298.787 370.941 298.521C370.517 298.255 370.017 298.122 369.44 298.122C368.805 298.122 368.255 298.28 367.79 298.595C367.33 298.906 366.977 299.312 366.729 299.812C366.481 300.313 366.357 300.849 366.357 301.421V302.341C366.357 303.125 366.492 303.79 366.762 304.336C367.037 304.877 367.418 305.289 367.905 305.573C368.392 305.853 368.958 305.992 369.602 305.992C370.022 305.992 370.4 305.934 370.738 305.817C371.081 305.695 371.376 305.515 371.624 305.276C371.872 305.032 372.064 304.73 372.199 304.37L373.741 304.802C373.578 305.325 373.306 305.785 372.922 306.182C372.539 306.574 372.066 306.88 371.502 307.101C370.939 307.318 370.306 307.426 369.602 307.426ZM380.847 296.823V298.176H375.465V296.823H380.847ZM377.033 294.335H378.629V304.234C378.629 304.685 378.695 305.023 378.825 305.249C378.961 305.469 379.132 305.618 379.339 305.695C379.551 305.767 379.774 305.803 380.009 305.803C380.184 305.803 380.329 305.794 380.441 305.776C380.554 305.753 380.644 305.735 380.712 305.722L381.036 307.155C380.928 307.196 380.777 307.237 380.583 307.277C380.39 307.322 380.144 307.345 379.846 307.345C379.396 307.345 378.954 307.248 378.521 307.054C378.093 306.86 377.737 306.565 377.453 306.168C377.173 305.771 377.033 305.271 377.033 304.667V294.335Z" fill="#1C1C45"/>
<rect x="59.3125" y="338.597" width="461.214" height="59.8506" rx="12.694" fill="white"/>
<path d="M171.941 361.675L176.052 373.332H176.214L180.325 361.675H182.083L176.999 375.523H175.268L170.183 361.675H171.941ZM184.024 375.523V365.137H185.62V375.523H184.024ZM184.835 363.406C184.524 363.406 184.256 363.3 184.031 363.088C183.81 362.876 183.699 362.621 183.699 362.324C183.699 362.026 183.81 361.772 184.031 361.56C184.256 361.348 184.524 361.242 184.835 361.242C185.146 361.242 185.412 361.348 185.633 361.56C185.859 361.772 185.971 362.026 185.971 362.324C185.971 362.621 185.859 362.876 185.633 363.088C185.412 363.3 185.146 363.406 184.835 363.406ZM192.897 375.739C191.896 375.739 191.033 375.518 190.307 375.076C189.586 374.63 189.029 374.008 188.637 373.21C188.25 372.408 188.056 371.475 188.056 370.411C188.056 369.347 188.25 368.409 188.637 367.598C189.029 366.782 189.575 366.146 190.274 365.691C190.977 365.231 191.797 365.001 192.735 365.001C193.276 365.001 193.81 365.092 194.337 365.272C194.865 365.452 195.345 365.745 195.778 366.151C196.21 366.552 196.555 367.084 196.812 367.747C197.069 368.409 197.197 369.225 197.197 370.194V370.871H189.192V369.491H195.575C195.575 368.905 195.457 368.382 195.223 367.923C194.993 367.463 194.664 367.1 194.236 366.834C193.812 366.568 193.312 366.435 192.735 366.435C192.099 366.435 191.549 366.593 191.085 366.908C190.625 367.219 190.271 367.625 190.023 368.125C189.775 368.626 189.651 369.162 189.651 369.735V370.654C189.651 371.439 189.787 372.104 190.057 372.649C190.332 373.19 190.713 373.602 191.2 373.886C191.687 374.166 192.252 374.306 192.897 374.306C193.316 374.306 193.695 374.247 194.033 374.13C194.376 374.008 194.671 373.828 194.919 373.589C195.167 373.345 195.358 373.043 195.494 372.683L197.035 373.116C196.873 373.638 196.6 374.098 196.217 374.495C195.834 374.887 195.361 375.194 194.797 375.415C194.234 375.631 193.6 375.739 192.897 375.739ZM201.978 375.523L198.814 365.137H200.49L202.735 373.088H202.844L205.061 365.137H206.765L208.956 373.061H209.064L211.309 365.137H212.986L209.822 375.523H208.253L205.981 367.544H205.819L203.547 375.523H201.978ZM224.968 365.137V366.489H219.586V365.137H224.968ZM221.154 362.648H222.75V372.548C222.75 372.998 222.815 373.336 222.946 373.562C223.081 373.783 223.253 373.931 223.46 374.008C223.672 374.08 223.895 374.116 224.129 374.116C224.305 374.116 224.449 374.107 224.562 374.089C224.675 374.067 224.765 374.049 224.833 374.035L225.157 375.469C225.049 375.509 224.898 375.55 224.704 375.59C224.51 375.635 224.265 375.658 223.967 375.658C223.516 375.658 223.075 375.561 222.642 375.367C222.214 375.173 221.857 374.878 221.573 374.481C221.294 374.085 221.154 373.584 221.154 372.98V362.648ZM229.187 369.275V375.523H227.591V361.675H229.187V366.76H229.322C229.566 366.223 229.931 365.797 230.418 365.482C230.909 365.162 231.563 365.001 232.379 365.001C233.086 365.001 233.706 365.143 234.238 365.427C234.77 365.707 235.183 366.137 235.476 366.719C235.773 367.296 235.922 368.031 235.922 368.923V375.523H234.326V369.031C234.326 368.207 234.112 367.569 233.684 367.118C233.26 366.663 232.672 366.435 231.919 366.435C231.396 366.435 230.927 366.545 230.512 366.766C230.102 366.987 229.778 367.309 229.539 367.733C229.304 368.157 229.187 368.671 229.187 369.275ZM243.196 375.739C242.195 375.739 241.332 375.518 240.606 375.076C239.885 374.63 239.328 374.008 238.936 373.21C238.548 372.408 238.354 371.475 238.354 370.411C238.354 369.347 238.548 368.409 238.936 367.598C239.328 366.782 239.873 366.146 240.572 365.691C241.275 365.231 242.096 365.001 243.033 365.001C243.574 365.001 244.109 365.092 244.636 365.272C245.163 365.452 245.643 365.745 246.076 366.151C246.509 366.552 246.854 367.084 247.111 367.747C247.368 368.409 247.496 369.225 247.496 370.194V370.871H239.49V369.491H245.873C245.873 368.905 245.756 368.382 245.522 367.923C245.292 367.463 244.963 367.1 244.535 366.834C244.111 366.568 243.61 366.435 243.033 366.435C242.398 366.435 241.848 366.593 241.384 366.908C240.924 367.219 240.57 367.625 240.322 368.125C240.074 368.626 239.95 369.162 239.95 369.735V370.654C239.95 371.439 240.085 372.104 240.356 372.649C240.631 373.19 241.012 373.602 241.499 373.886C241.985 374.166 242.551 374.306 243.196 374.306C243.615 374.306 243.994 374.247 244.332 374.13C244.674 374.008 244.97 373.828 245.217 373.589C245.465 373.345 245.657 373.043 245.792 372.683L247.334 373.116C247.172 373.638 246.899 374.098 246.516 374.495C246.133 374.887 245.659 375.194 245.096 375.415C244.532 375.631 243.899 375.739 243.196 375.739ZM263.068 365.137C262.987 364.452 262.658 363.92 262.081 363.541C261.504 363.162 260.796 362.973 259.958 362.973C259.345 362.973 258.808 363.072 258.349 363.27C257.893 363.469 257.537 363.742 257.28 364.089C257.028 364.436 256.902 364.83 256.902 365.272C256.902 365.642 256.99 365.959 257.165 366.225C257.346 366.487 257.576 366.705 257.855 366.881C258.135 367.053 258.428 367.195 258.734 367.307C259.041 367.415 259.322 367.503 259.579 367.571L260.986 367.95C261.346 368.044 261.748 368.175 262.189 368.342C262.636 368.509 263.062 368.736 263.467 369.025C263.877 369.309 264.216 369.674 264.482 370.12C264.747 370.566 264.88 371.114 264.88 371.763C264.88 372.511 264.684 373.188 264.292 373.792C263.905 374.396 263.337 374.876 262.588 375.232C261.844 375.588 260.941 375.766 259.877 375.766C258.885 375.766 258.026 375.606 257.301 375.286C256.579 374.966 256.011 374.52 255.597 373.947C255.186 373.375 254.954 372.71 254.9 371.953H256.631C256.676 372.475 256.852 372.908 257.159 373.251C257.47 373.589 257.862 373.841 258.335 374.008C258.813 374.17 259.327 374.252 259.877 374.252C260.517 374.252 261.092 374.148 261.601 373.94C262.11 373.729 262.514 373.436 262.811 373.061C263.109 372.683 263.258 372.241 263.258 371.736C263.258 371.276 263.129 370.902 262.872 370.614C262.615 370.325 262.277 370.091 261.858 369.91C261.439 369.73 260.986 369.572 260.499 369.437L258.795 368.95C257.713 368.639 256.857 368.195 256.225 367.618C255.594 367.041 255.279 366.286 255.279 365.353C255.279 364.578 255.488 363.902 255.908 363.325C256.331 362.743 256.899 362.292 257.612 361.972C258.328 361.648 259.129 361.485 260.012 361.485C260.905 361.485 261.698 361.645 262.392 361.965C263.086 362.281 263.636 362.714 264.042 363.264C264.452 363.814 264.669 364.438 264.691 365.137H263.068ZM270.477 375.766C269.819 375.766 269.222 375.642 268.686 375.394C268.149 375.142 267.723 374.779 267.408 374.306C267.092 373.828 266.934 373.251 266.934 372.575C266.934 371.98 267.052 371.497 267.286 371.128C267.52 370.753 267.834 370.46 268.226 370.249C268.618 370.037 269.051 369.879 269.524 369.775C270.002 369.667 270.482 369.581 270.964 369.518C271.595 369.437 272.107 369.376 272.499 369.336C272.896 369.291 273.184 369.216 273.365 369.113C273.55 369.009 273.642 368.829 273.642 368.572V368.518C273.642 367.85 273.459 367.332 273.094 366.962C272.734 366.593 272.186 366.408 271.451 366.408C270.689 366.408 270.092 366.575 269.659 366.908C269.227 367.242 268.922 367.598 268.746 367.977L267.232 367.436C267.502 366.805 267.863 366.313 268.314 365.962C268.769 365.606 269.265 365.358 269.801 365.218C270.342 365.074 270.874 365.001 271.397 365.001C271.731 365.001 272.114 365.042 272.547 365.123C272.984 365.2 273.405 365.36 273.811 365.603C274.221 365.847 274.562 366.214 274.832 366.705C275.102 367.197 275.238 367.855 275.238 368.68V375.523H273.642V374.116H273.561C273.453 374.342 273.272 374.583 273.02 374.84C272.767 375.097 272.432 375.315 272.012 375.496C271.593 375.676 271.082 375.766 270.477 375.766ZM270.721 374.333C271.352 374.333 271.884 374.209 272.317 373.961C272.754 373.713 273.083 373.393 273.304 373.001C273.529 372.608 273.642 372.196 273.642 371.763V370.303C273.574 370.384 273.426 370.458 273.196 370.526C272.97 370.589 272.709 370.645 272.411 370.695C272.118 370.74 271.832 370.78 271.553 370.817C271.278 370.848 271.054 370.875 270.883 370.898C270.468 370.952 270.081 371.04 269.72 371.161C269.364 371.279 269.076 371.457 268.855 371.696C268.638 371.93 268.53 372.25 268.53 372.656C268.53 373.21 268.735 373.629 269.145 373.913C269.56 374.193 270.085 374.333 270.721 374.333ZM278.15 375.523V365.137H279.692V366.76H279.827C280.044 366.205 280.393 365.775 280.875 365.468C281.358 365.157 281.937 365.001 282.613 365.001C283.298 365.001 283.868 365.157 284.324 365.468C284.784 365.775 285.142 366.205 285.399 366.76H285.507C285.773 366.223 286.172 365.797 286.704 365.482C287.236 365.162 287.874 365.001 288.617 365.001C289.546 365.001 290.306 365.292 290.896 365.874C291.487 366.451 291.782 367.35 291.782 368.572V375.523H290.186V368.572C290.186 367.805 289.977 367.258 289.557 366.929C289.138 366.6 288.644 366.435 288.077 366.435C287.346 366.435 286.781 366.656 286.379 367.098C285.978 367.535 285.778 368.089 285.778 368.761V375.523H284.155V368.409C284.155 367.819 283.963 367.343 283.58 366.983C283.197 366.618 282.703 366.435 282.099 366.435C281.684 366.435 281.297 366.545 280.936 366.766C280.58 366.987 280.292 367.294 280.071 367.686C279.854 368.074 279.746 368.522 279.746 369.031V375.523H278.15ZM294.7 379.417V365.137H296.241V366.787H296.431C296.548 366.606 296.71 366.376 296.917 366.097C297.129 365.813 297.431 365.56 297.824 365.34C298.22 365.114 298.757 365.001 299.433 365.001C300.307 365.001 301.078 365.22 301.745 365.657C302.412 366.095 302.933 366.714 303.307 367.517C303.681 368.319 303.868 369.266 303.868 370.357C303.868 371.457 303.681 372.41 303.307 373.217C302.933 374.019 302.415 374.641 301.752 375.083C301.089 375.52 300.325 375.739 299.46 375.739C298.793 375.739 298.259 375.629 297.857 375.408C297.456 375.182 297.147 374.928 296.931 374.644C296.715 374.355 296.548 374.116 296.431 373.927H296.295V379.417H294.7ZM296.268 370.33C296.268 371.114 296.383 371.806 296.613 372.406C296.843 373.001 297.179 373.467 297.621 373.805C298.062 374.139 298.603 374.306 299.243 374.306C299.911 374.306 300.467 374.13 300.914 373.778C301.364 373.422 301.702 372.944 301.928 372.345C302.158 371.741 302.273 371.069 302.273 370.33C302.273 369.599 302.16 368.941 301.935 368.355C301.714 367.765 301.378 367.298 300.927 366.956C300.481 366.609 299.92 366.435 299.243 366.435C298.594 366.435 298.049 366.6 297.607 366.929C297.165 367.253 296.832 367.708 296.606 368.294C296.381 368.876 296.268 369.554 296.268 370.33ZM307.898 361.675V375.523H306.303V361.675H307.898ZM315.176 375.739C314.175 375.739 313.312 375.518 312.586 375.076C311.865 374.63 311.308 374.008 310.916 373.21C310.528 372.408 310.334 371.475 310.334 370.411C310.334 369.347 310.528 368.409 310.916 367.598C311.308 366.782 311.853 366.146 312.552 365.691C313.255 365.231 314.076 365.001 315.013 365.001C315.554 365.001 316.089 365.092 316.616 365.272C317.143 365.452 317.623 365.745 318.056 366.151C318.489 366.552 318.834 367.084 319.091 367.747C319.348 368.409 319.476 369.225 319.476 370.194V370.871H311.47V369.491H317.853C317.853 368.905 317.736 368.382 317.502 367.923C317.272 367.463 316.943 367.1 316.515 366.834C316.091 366.568 315.59 366.435 315.013 366.435C314.378 366.435 313.828 366.593 313.364 366.908C312.904 367.219 312.55 367.625 312.302 368.125C312.054 368.626 311.93 369.162 311.93 369.735V370.654C311.93 371.439 312.065 372.104 312.336 372.649C312.611 373.19 312.992 373.602 313.479 373.886C313.965 374.166 314.531 374.306 315.176 374.306C315.595 374.306 315.974 374.247 316.312 374.13C316.654 374.008 316.95 373.828 317.197 373.589C317.445 373.345 317.637 373.043 317.772 372.683L319.314 373.116C319.152 373.638 318.879 374.098 318.496 374.495C318.113 374.887 317.639 375.194 317.076 375.415C316.512 375.631 315.879 375.739 315.176 375.739ZM331.478 375.739C330.541 375.739 329.718 375.516 329.01 375.07C328.307 374.623 327.757 373.999 327.36 373.197C326.968 372.394 326.772 371.457 326.772 370.384C326.772 369.302 326.968 368.358 327.36 367.551C327.757 366.744 328.307 366.117 329.01 365.671C329.718 365.225 330.541 365.001 331.478 365.001C332.416 365.001 333.236 365.225 333.939 365.671C334.647 366.117 335.197 366.744 335.589 367.551C335.986 368.358 336.184 369.302 336.184 370.384C336.184 371.457 335.986 372.394 335.589 373.197C335.197 373.999 334.647 374.623 333.939 375.07C333.236 375.516 332.416 375.739 331.478 375.739ZM331.478 374.306C332.19 374.306 332.776 374.123 333.236 373.758C333.696 373.393 334.036 372.913 334.257 372.318C334.478 371.723 334.589 371.078 334.589 370.384C334.589 369.69 334.478 369.043 334.257 368.443C334.036 367.844 333.696 367.359 333.236 366.989C332.776 366.62 332.19 366.435 331.478 366.435C330.766 366.435 330.18 366.62 329.72 366.989C329.26 367.359 328.92 367.844 328.699 368.443C328.478 369.043 328.368 369.69 328.368 370.384C328.368 371.078 328.478 371.723 328.699 372.318C328.92 372.913 329.26 373.393 329.72 373.758C330.18 374.123 330.766 374.306 331.478 374.306ZM343.245 365.137V366.489H337.647V365.137H343.245ZM339.323 375.523V363.703C339.323 363.108 339.463 362.612 339.743 362.216C340.022 361.819 340.385 361.521 340.831 361.323C341.278 361.125 341.749 361.026 342.245 361.026C342.637 361.026 342.957 361.057 343.205 361.12C343.453 361.183 343.637 361.242 343.759 361.296L343.299 362.675C343.218 362.648 343.106 362.615 342.961 362.574C342.822 362.533 342.637 362.513 342.407 362.513C341.879 362.513 341.498 362.646 341.264 362.912C341.034 363.178 340.919 363.568 340.919 364.082V375.523H339.323ZM351.053 375.523V361.675H355.732C356.814 361.675 357.702 361.86 358.397 362.229C359.091 362.594 359.605 363.097 359.938 363.737C360.272 364.377 360.439 365.105 360.439 365.921C360.439 366.737 360.272 367.46 359.938 368.092C359.605 368.723 359.093 369.219 358.403 369.579C357.714 369.935 356.832 370.113 355.759 370.113H351.973V368.599H355.705C356.445 368.599 357.04 368.491 357.49 368.274C357.946 368.058 358.275 367.751 358.478 367.355C358.685 366.953 358.789 366.476 358.789 365.921C358.789 365.367 358.685 364.882 358.478 364.467C358.27 364.053 357.939 363.733 357.484 363.507C357.028 363.277 356.427 363.162 355.678 363.162H352.73V375.523H351.053ZM357.572 369.302L360.98 375.523H359.032L355.678 369.302H357.572ZM367.259 375.739C366.259 375.739 365.395 375.518 364.67 375.076C363.948 374.63 363.392 374.008 363 373.21C362.612 372.408 362.418 371.475 362.418 370.411C362.418 369.347 362.612 368.409 363 367.598C363.392 366.782 363.937 366.146 364.636 365.691C365.339 365.231 366.16 365.001 367.097 365.001C367.638 365.001 368.172 365.092 368.7 365.272C369.227 365.452 369.707 365.745 370.14 366.151C370.573 366.552 370.918 367.084 371.174 367.747C371.431 368.409 371.56 369.225 371.56 370.194V370.871H363.554V369.491H369.937C369.937 368.905 369.82 368.382 369.585 367.923C369.356 367.463 369.027 367.1 368.598 366.834C368.175 366.568 367.674 366.435 367.097 366.435C366.462 366.435 365.912 366.593 365.447 366.908C364.988 367.219 364.634 367.625 364.386 368.125C364.138 368.626 364.014 369.162 364.014 369.735V370.654C364.014 371.439 364.149 372.104 364.42 372.649C364.695 373.19 365.075 373.602 365.562 373.886C366.049 374.166 366.615 374.306 367.259 374.306C367.679 374.306 368.057 374.247 368.395 374.13C368.738 374.008 369.033 373.828 369.281 373.589C369.529 373.345 369.721 373.043 369.856 372.683L371.398 373.116C371.235 373.638 370.963 374.098 370.579 374.495C370.196 374.887 369.723 375.194 369.16 375.415C368.596 375.631 367.963 375.739 367.259 375.739ZM373.987 379.417V365.137H375.529V366.787H375.718C375.836 366.606 375.998 366.376 376.205 366.097C376.417 365.813 376.719 365.56 377.111 365.34C377.508 365.114 378.044 365.001 378.721 365.001C379.595 365.001 380.366 365.22 381.033 365.657C381.7 366.095 382.221 366.714 382.595 367.517C382.969 368.319 383.156 369.266 383.156 370.357C383.156 371.457 382.969 372.41 382.595 373.217C382.221 374.019 381.702 374.641 381.04 375.083C380.377 375.52 379.613 375.739 378.748 375.739C378.08 375.739 377.546 375.629 377.145 375.408C376.744 375.182 376.435 374.928 376.219 374.644C376.002 374.355 375.836 374.116 375.718 373.927H375.583V379.417H373.987ZM375.556 370.33C375.556 371.114 375.671 371.806 375.901 372.406C376.131 373.001 376.467 373.467 376.908 373.805C377.35 374.139 377.891 374.306 378.531 374.306C379.198 374.306 379.755 374.13 380.201 373.778C380.652 373.422 380.99 372.944 381.216 372.345C381.446 371.741 381.56 371.069 381.56 370.33C381.56 369.599 381.448 368.941 381.222 368.355C381.001 367.765 380.666 367.298 380.215 366.956C379.769 366.609 379.207 366.435 378.531 366.435C377.882 366.435 377.337 366.6 376.895 366.929C376.453 367.253 376.12 367.708 375.894 368.294C375.669 368.876 375.556 369.554 375.556 370.33ZM389.81 375.739C388.872 375.739 388.049 375.516 387.342 375.07C386.639 374.623 386.089 373.999 385.692 373.197C385.3 372.394 385.104 371.457 385.104 370.384C385.104 369.302 385.3 368.358 385.692 367.551C386.089 366.744 386.639 366.117 387.342 365.671C388.049 365.225 388.872 365.001 389.81 365.001C390.747 365.001 391.568 365.225 392.271 365.671C392.979 366.117 393.529 366.744 393.921 367.551C394.318 368.358 394.516 369.302 394.516 370.384C394.516 371.457 394.318 372.394 393.921 373.197C393.529 373.999 392.979 374.623 392.271 375.07C391.568 375.516 390.747 375.739 389.81 375.739ZM389.81 374.306C390.522 374.306 391.108 374.123 391.568 373.758C392.028 373.393 392.368 372.913 392.589 372.318C392.81 371.723 392.92 371.078 392.92 370.384C392.92 369.69 392.81 369.043 392.589 368.443C392.368 367.844 392.028 367.359 391.568 366.989C391.108 366.62 390.522 366.435 389.81 366.435C389.098 366.435 388.511 366.62 388.052 366.989C387.592 367.359 387.252 367.844 387.031 368.443C386.81 369.043 386.699 369.69 386.699 370.384C386.699 371.078 386.81 371.723 387.031 372.318C387.252 372.913 387.592 373.393 388.052 373.758C388.511 374.123 389.098 374.306 389.81 374.306ZM396.952 375.523V365.137H398.493V366.705H398.602C398.791 366.192 399.134 365.775 399.629 365.455C400.125 365.134 400.684 364.974 401.306 364.974C401.424 364.974 401.57 364.977 401.746 364.981C401.922 364.986 402.055 364.992 402.145 365.001V366.624C402.091 366.611 401.967 366.59 401.773 366.563C401.584 366.532 401.383 366.516 401.171 366.516C400.666 366.516 400.215 366.622 399.819 366.834C399.427 367.041 399.116 367.33 398.886 367.699C398.66 368.065 398.548 368.482 398.548 368.95V375.523H396.952ZM409.204 365.137V366.489H403.822V365.137H409.204ZM405.39 362.648H406.986V372.548C406.986 372.998 407.052 373.336 407.182 373.562C407.317 373.783 407.489 373.931 407.696 374.008C407.908 374.08 408.131 374.116 408.366 374.116C408.541 374.116 408.686 374.107 408.798 374.089C408.911 374.067 409.001 374.049 409.069 374.035L409.393 375.469C409.285 375.509 409.134 375.55 408.94 375.59C408.746 375.635 408.501 375.658 408.203 375.658C407.752 375.658 407.311 375.561 406.878 375.367C406.45 375.173 406.094 374.878 405.81 374.481C405.53 374.085 405.39 373.584 405.39 372.98V362.648Z" fill="#1C1C45"/>
<defs>
<filter id="filter0_d_849_3997" x="0.0746994" y="0.53735" width="579.691" height="472.851" filterUnits="userSpaceOnUse" color-interpolation-filters="sRGB">
<feFlood flood-opacity="0" result="BackgroundImageFix"/>
<feColorMatrix in="SourceAlpha" type="matrix" values="0 0 0 0 0 0 0 0 0 0 0 0 0 0 0 0 0 0 127 0" result="hardAlpha"/>
<feOffset dy="8.46265"/>
<feGaussianBlur stdDeviation="8.46265"/>
<feComposite in2="hardAlpha" operator="out"/>
<feColorMatrix type="matrix" values="0 0 0 0 0.670588 0 0 0 0 0.745098 0 0 0 0 0.819608 0 0 0 0.4 0"/>
<feBlend mode="normal" in2="BackgroundImageFix" result="effect1_dropShadow_849_3997"/>
<feBlend mode="normal" in="SourceGraphic" in2="effect1_dropShadow_849_3997" result="shape"/>
</filter>
<clipPath id="clip0_849_3997">
<rect width="25.388" height="25.388" fill="white" transform="translate(80.4688 194.12)"/>
</clipPath>
</defs>
</svg>
