<svg width="64" height="64" viewBox="0 0 64 64" fill="none" xmlns="http://www.w3.org/2000/svg">
<g id="trade">
<g id="vuesax/bold/trade">
<g id="trade_2">
<path id="Vector" d="M40 41.3333C40 50.9067 32.24 58.6667 22.6667 58.6667C13.0933 58.6667 5.33334 50.9067 5.33334 41.3333C5.33334 31.76 13.0933 24 22.6667 24C23.12 24 23.6 24.0267 24.0533 24.0533C32.5067 24.72 39.28 31.4933 39.9467 39.9467C39.9733 40.4 40 40.88 40 41.3333Z" fill="#FF9700"/>
<path id="Vector_2" d="M58.6667 22.6666C58.6667 31.3599 52.2667 38.5333 43.9467 39.7866V39.6266C43.12 29.2799 34.72 20.8799 24.2933 20.0533H24.2133C25.4667 11.7333 32.64 5.33325 41.3333 5.33325C50.9067 5.33325 58.6667 13.0933 58.6667 22.6666Z" fill="#FF9700"/>
<path id="Vector_3" d="M14.9067 5.33325H8.00001C6.53334 5.33325 5.33334 6.53325 5.33334 7.99992V14.9066C5.33334 17.2799 8.21334 18.4799 9.89334 16.7999L16.8 9.89325C18.4533 8.21325 17.28 5.33325 14.9067 5.33325Z" fill="#FF9700"/>
<path id="Vector_4" d="M49.0933 58.6667H56C57.4667 58.6667 58.6666 57.4667 58.6666 56V49.0934C58.6666 46.72 55.7867 45.52 54.1067 47.2L47.2 54.1067C45.5467 55.7867 46.72 58.6667 49.0933 58.6667Z" fill="#FF9700"/>
</g>
</g>
</g>
</svg>
