<svg width="24" height="24" viewBox="0 0 24 24" fill="none" xmlns="http://www.w3.org/2000/svg">
<g id="translate">
<g id="vuesax/bold/translate">
<g id="translate_2">
<path id="Vector" d="M8.93 2.00012L5.02 2.00012C3 2.00012 2 3.00012 2 5.02012L2 8.94012C2 11.0001 3 12.0001 5.02 11.9501L8.94 11.9501C11 12.0001 12 11.0001 11.95 8.93012L11.95 5.02012C12 3.00012 11 2.00012 8.93 2.00012ZM9.01 9.76012C8.33 9.76012 7.67 9.50012 7.12 9.04012C6.5 9.49012 5.75 9.76012 4.94 9.76012C4.53 9.76012 4.19 9.42012 4.19 9.01012C4.19 8.60012 4.53 8.26012 4.94 8.26012C5.96 8.26012 6.81 7.56012 7.12 6.60012L4.94 6.60012C4.53 6.60012 4.19 6.26012 4.19 5.85012C4.19 5.44012 4.53 5.10012 4.94 5.10012L6.23 5.10012C6.27 4.72012 6.58 4.42012 6.97 4.42012C7.36 4.42012 7.67 4.72012 7.71 5.10012L7.97 5.10012C7.98 5.10012 7.99 5.10012 7.99 5.10012L8.01 5.10012L9 5.10012C9.41 5.10012 9.75 5.44012 9.75 5.85012C9.75 6.26012 9.42 6.60012 9 6.60012L8.67 6.60012C8.58 7.08012 8.39 7.53012 8.14 7.94012C8.41 8.14012 8.7 8.26012 9.01 8.26012C9.42 8.26012 9.76 8.60012 9.76 9.01012C9.76 9.42012 9.42 9.76012 9.01 9.76012Z" fill="#575E8D"/>
<path id="Vector_2" d="M9 22.7501C4.73 22.7501 1.25 19.2701 1.25 15.0001C1.25 14.5901 1.59 14.2501 2 14.2501C2.41 14.2501 2.75 14.5901 2.75 15.0001C2.75 17.9601 4.81 20.4401 7.58 21.0901L7.31 20.6401C7.1 20.2801 7.21 19.8201 7.57 19.6101C7.92 19.4001 8.39 19.5101 8.6 19.8701L9.65 21.6201C9.79 21.8501 9.79 22.1401 9.66 22.3701C9.52 22.6001 9.27 22.7501 9 22.7501Z" fill="#575E8D"/>
<path id="Vector_3" d="M22.0004 9.75012C21.5904 9.75012 21.2504 9.41012 21.2504 9.00012C21.2504 6.04012 19.1904 3.56012 16.4204 2.91012L16.6904 3.36012C16.9004 3.72012 16.7904 4.18012 16.4304 4.39012C16.0804 4.60012 15.6104 4.49012 15.4004 4.13012L14.3504 2.38012C14.2104 2.15012 14.2104 1.86012 14.3404 1.63012C14.4804 1.40012 14.7304 1.25012 15.0004 1.25012C19.2704 1.25012 22.7504 4.73012 22.7504 9.00012C22.7504 9.41012 22.4104 9.75012 22.0004 9.75012Z" fill="#575E8D"/>
<path id="Vector_4" d="M16.9198 11.8501C14.1198 11.8501 11.8398 14.1201 11.8398 16.9301C11.8398 19.7301 14.1098 22.0101 16.9198 22.0101C19.7198 22.0101 21.9998 19.7401 21.9998 16.9301C21.9998 14.1201 19.7298 11.8501 16.9198 11.8501ZM19.3998 19.3401C19.0298 19.5201 18.5798 19.3801 18.3898 19.0001L18.2198 18.6601L15.6298 18.6601L15.4598 19.0001C15.3298 19.2601 15.0598 19.4101 14.7898 19.4101C14.6798 19.4101 14.5598 19.3801 14.4598 19.3301C14.0898 19.1401 13.9398 18.6901 14.1198 18.3201L16.2598 14.0501C16.3898 13.8001 16.6498 13.6401 16.9298 13.6401C17.2098 13.6401 17.4698 13.8001 17.5998 14.0601L19.7398 18.3301C19.9198 18.7001 19.7698 19.1501 19.3998 19.3401Z" fill="#575E8D"/>
<path id="Vector_5" d="M16.3799 17.1601L17.4699 17.1601L16.9199 16.0701L16.3799 17.1601Z" fill="#575E8D"/>
</g>
</g>
</g>
</svg>
