<svg width="64" height="64" viewBox="0 0 64 64" fill="none" xmlns="http://www.w3.org/2000/svg">
<g id="translate">
<g id="vuesax/bold/translate">
<g id="translate_2">
<path id="Vector" d="M23.8133 5.33325H13.3867C8 5.33325 5.33334 7.99992 5.33334 13.3866V23.8399C5.33334 29.3333 8 31.9999 13.3867 31.8666H23.84C29.3333 31.9999 32 29.3333 31.8667 23.8133V13.3866C32 7.99992 29.3333 5.33325 23.8133 5.33325ZM24.0267 26.0266C22.2133 26.0266 20.4533 25.3333 18.9867 24.1066C17.3333 25.3066 15.3333 26.0266 13.1733 26.0266C12.08 26.0266 11.1733 25.1199 11.1733 24.0266C11.1733 22.9333 12.08 22.0266 13.1733 22.0266C15.8933 22.0266 18.16 20.1599 18.9867 17.5999H13.1733C12.08 17.5999 11.1733 16.6933 11.1733 15.5999C11.1733 14.5066 12.08 13.5999 13.1733 13.5999H16.6133C16.72 12.5866 17.5467 11.7866 18.5867 11.7866C19.6267 11.7866 20.4533 12.5866 20.56 13.5999H21.2533C21.28 13.5999 21.3067 13.5999 21.3067 13.5999H21.36H24C25.0933 13.5999 26 14.5066 26 15.5999C26 16.6933 25.12 17.5999 24 17.5999H23.12C22.88 18.8799 22.3733 20.0799 21.7067 21.1733C22.4267 21.7066 23.2 22.0266 24.0267 22.0266C25.12 22.0266 26.0267 22.9333 26.0267 24.0266C26.0267 25.1199 25.12 26.0266 24.0267 26.0266Z" fill="#FF9700"/>
<path id="Vector_2" d="M24 60.6667C12.6133 60.6667 3.33334 51.3867 3.33334 40C3.33334 38.9067 4.24 38 5.33334 38C6.42667 38 7.33334 38.9067 7.33334 40C7.33334 47.8933 12.8267 54.5067 20.2133 56.24L19.4933 55.04C18.9333 54.08 19.2267 52.8533 20.1867 52.2933C21.12 51.7333 22.3733 52.0267 22.9333 52.9867L25.7333 57.6533C26.1067 58.2667 26.1067 59.04 25.76 59.6533C25.3867 60.2667 24.72 60.6667 24 60.6667Z" fill="#FF9700"/>
<path id="Vector_3" d="M58.6667 25.9999C57.5733 25.9999 56.6667 25.0933 56.6667 23.9999C56.6667 16.1066 51.1733 9.49325 43.7867 7.75992L44.5067 8.95992C45.0667 9.91992 44.7733 11.1466 43.8133 11.7066C42.88 12.2666 41.6267 11.9733 41.0667 11.0133L38.2667 6.34659C37.8933 5.73325 37.8933 4.95992 38.24 4.34659C38.6133 3.73325 39.28 3.33325 40 3.33325C51.3867 3.33325 60.6667 12.6133 60.6667 23.9999C60.6667 25.0933 59.76 25.9999 58.6667 25.9999Z" fill="#FF9700"/>
<path id="Vector_4" d="M45.12 31.6001C37.6533 31.6001 31.5733 37.6534 31.5733 45.1468C31.5733 52.6134 37.6267 58.6934 45.12 58.6934C52.5867 58.6934 58.6667 52.6401 58.6667 45.1468C58.6667 37.6534 52.6133 31.6001 45.12 31.6001ZM51.7333 51.5734C50.7467 52.0534 49.5467 51.6801 49.04 50.6668L48.5867 49.7601H41.68L41.2267 50.6668C40.88 51.3601 40.16 51.7601 39.44 51.7601C39.1467 51.7601 38.8267 51.6801 38.56 51.5468C37.5733 51.0401 37.1733 49.8401 37.6533 48.8534L43.36 37.4668C43.7067 36.8001 44.4 36.3734 45.1467 36.3734C45.8933 36.3734 46.5867 36.8001 46.9333 37.4934L52.64 48.8801C53.12 49.8668 52.72 51.0668 51.7333 51.5734Z" fill="#FF9700"/>
<path id="Vector_5" d="M43.68 45.7599H46.5867L45.12 42.8533L43.68 45.7599Z" fill="#FF9700"/>
</g>
</g>
</g>
</svg>
