<svg width="14" height="14" viewBox="0 0 14 14" fill="none" xmlns="http://www.w3.org/2000/svg">
<path d="M13.4322 6.16L12.5255 5.10667C12.3522 4.90667 12.2122 4.53333 12.2122 4.26667L12.2122 3.13333C12.2122 2.42667 11.6322 1.84667 10.9255 1.84667L9.79217 1.84667C9.53217 1.84667 9.15217 1.70667 8.95217 1.53333L7.89884 0.626666C7.43884 0.233332 6.68551 0.233332 6.21884 0.626666L5.17217 1.54C4.97217 1.70667 4.59217 1.84667 4.33217 1.84667L3.17884 1.84667C2.47217 1.84667 1.89217 2.42667 1.89217 3.13333L1.89217 4.27333C1.89217 4.53333 1.75217 4.90667 1.58551 5.10667L0.685507 6.16667C0.298841 6.62667 0.298841 7.37333 0.685507 7.83333L1.58551 8.89333C1.75217 9.09333 1.89217 9.46667 1.89217 9.72667L1.89217 10.8667C1.89217 11.5733 2.47217 12.1533 3.17884 12.1533L4.33217 12.1533C4.59217 12.1533 4.97217 12.2933 5.17217 12.4667L6.22551 13.3733C6.68551 13.7667 7.43884 13.7667 7.90551 13.3733L8.95884 12.4667C9.15884 12.2933 9.53217 12.1533 9.79884 12.1533L10.9322 12.1533C11.6388 12.1533 12.2188 11.5733 12.2188 10.8667L12.2188 9.73333C12.2188 9.47333 12.3588 9.09333 12.5322 8.89333L13.4388 7.84C13.8255 7.38 13.8255 6.62 13.4322 6.16ZM9.83217 5.74L6.61217 8.96C6.51884 9.05333 6.39217 9.10667 6.25884 9.10667C6.12551 9.10667 5.99884 9.05333 5.90551 8.96L4.29217 7.34667C4.09884 7.15333 4.09884 6.83333 4.29217 6.64C4.48551 6.44667 4.80551 6.44667 4.99884 6.64L6.25884 7.9L9.12551 5.03333C9.31884 4.84 9.63884 4.84 9.83217 5.03333C10.0255 5.22667 10.0255 5.54667 9.83217 5.74Z" fill="#1C1C45"/>
</svg>
