<svg width="25" height="24" viewBox="0 0 25 24" fill="none" xmlns="http://www.w3.org/2000/svg">
<g id="verify">
<g id="vuesax/bold/verify">
<g id="verify_2">
<path id="Vector" d="M22.06 10.7401L20.7 9.16006C20.44 8.86006 20.23 8.30006 20.23 7.90006L20.23 6.20006C20.23 5.14006 19.36 4.27006 18.3 4.27006L16.6 4.27006C16.21 4.27006 15.64 4.06006 15.34 3.80006L13.76 2.44006C13.07 1.85006 11.94 1.85006 11.24 2.44006L9.67 3.81006C9.37 4.06006 8.8 4.27006 8.41 4.27006L6.68 4.27006C5.62 4.27006 4.75 5.14006 4.75 6.20006L4.75 7.91006C4.75 8.30006 4.54 8.86006 4.29 9.16006L2.94 10.7501C2.36 11.4401 2.36 12.5601 2.94 13.2501L4.29 14.8401C4.54 15.1401 4.75 15.7001 4.75 16.0901L4.75 17.8001C4.75 18.8601 5.62 19.7301 6.68 19.7301L8.41 19.7301C8.8 19.7301 9.37 19.9401 9.67 20.2001L11.25 21.5601C11.94 22.1501 13.07 22.1501 13.77 21.5601L15.35 20.2001C15.65 19.9401 16.21 19.7301 16.61 19.7301L18.31 19.7301C19.37 19.7301 20.24 18.8601 20.24 17.8001L20.24 16.1001C20.24 15.7101 20.45 15.1401 20.71 14.8401L22.07 13.2601C22.65 12.5701 22.65 11.4301 22.06 10.7401ZM16.66 10.1101L11.83 14.9401C11.69 15.0801 11.5 15.1601 11.3 15.1601C11.1 15.1601 10.91 15.0801 10.77 14.9401L8.35 12.5201C8.06 12.2301 8.06 11.7501 8.35 11.4601C8.64 11.1701 9.12 11.1701 9.41 11.4601L11.3 13.3501L15.6 9.05006C15.89 8.76006 16.37 8.76006 16.66 9.05006C16.95 9.34006 16.95 9.82006 16.66 10.1101Z" fill="#012552"/>
</g>
</g>
</g>
</svg>
