<svg width="48" height="48" viewBox="0 0 48 48" fill="none" xmlns="http://www.w3.org/2000/svg">
<circle cx="24" cy="24" r="24" fill="white"/>
<path d="M25.1425 33.9738L19.1928 33.8653C17.2664 33.8275 15.3353 33.903 13.4467 33.5113C10.5737 32.9262 10.3701 30.057 10.1572 27.6504C9.86369 24.2669 9.9773 20.822 10.5311 17.4668C10.8437 15.5842 12.0741 14.4608 13.9768 14.3386C20.3998 13.8949 26.8655 13.9475 33.2742 14.1545C33.9511 14.1734 34.6326 14.2772 35.3 14.3952C38.5944 14.9709 38.6747 18.2223 38.8883 20.9593C39.1013 23.7246 39.0114 26.5041 38.6043 29.2506C38.2777 31.5246 37.6529 33.4315 35.0159 33.6156C31.7121 33.8563 28.484 34.0501 25.1708 33.9884C25.171 33.9738 25.1519 33.9738 25.1425 33.9738ZM21.6446 28.2167C24.1344 26.7915 26.5767 25.39 29.0522 23.9743C26.5578 22.5491 24.1202 21.1476 21.6446 19.732V28.2167Z" fill="#FF0000"/>
</svg>
